<svg width="330" height="171" viewBox="0 0 330 171" fill="none" xmlns="http://www.w3.org/2000/svg">
<g filter="url(#filter0_d_51_231)">
<path d="M4 4C4 1.79086 5.79086 0 8 0H322C324.209 0 326 1.79086 326 4V136C326 138.209 324.209 140 322 140H8.00001C5.79087 140 4 138.209 4 136V4Z" fill="white"/>
<g filter="url(#filter1_d_51_231)">
<path d="M94.5489 54.927C94.8483 54.0057 96.1517 54.0057 96.4511 54.9271L99.2045 63.4012C99.3384 63.8132 99.7223 64.0922 100.156 64.0922L109.066 64.0922C110.035 64.0922 110.437 65.3318 109.654 65.9012L102.445 71.1385C102.095 71.3932 101.948 71.8446 102.082 72.2566L104.835 80.7308C105.135 81.6521 104.08 82.4182 103.296 81.8488L96.0878 76.6115C95.7373 76.3568 95.2627 76.3568 94.9122 76.6115L87.7037 81.8488C86.9199 82.4182 85.8655 81.6521 86.1648 80.7307L88.9182 72.2566C89.0521 71.8446 88.9055 71.3932 88.555 71.1385L81.3464 65.9012C80.5627 65.3318 80.9655 64.0922 81.9342 64.0922L90.8445 64.0922C91.2777 64.0922 91.6616 63.8132 91.7955 63.4012L94.5489 54.927Z" fill="#926B5A" fill-opacity="0.84" shape-rendering="crispEdges"/>
</g>
<g filter="url(#filter2_d_51_231)">
<path d="M143.549 54.927C143.848 54.0057 145.152 54.0057 145.451 54.9271L148.204 63.4012C148.338 63.8132 148.722 64.0922 149.156 64.0922L158.066 64.0922C159.035 64.0922 159.437 65.3318 158.654 65.9012L151.445 71.1385C151.095 71.3932 150.948 71.8446 151.082 72.2566L153.835 80.7308C154.135 81.6521 153.08 82.4182 152.296 81.8488L145.088 76.6115C144.737 76.3568 144.263 76.3568 143.912 76.6115L136.704 81.8488C135.92 82.4182 134.865 81.6521 135.165 80.7307L137.918 72.2566C138.052 71.8446 137.905 71.3932 137.555 71.1385L130.346 65.9012C129.563 65.3318 129.965 64.0922 130.934 64.0922L139.844 64.0922C140.278 64.0922 140.662 63.8132 140.796 63.4012L143.549 54.927Z" fill="#926B5A" fill-opacity="0.63" shape-rendering="crispEdges"/>
</g>
<g filter="url(#filter3_d_51_231)">
<path d="M189.549 54.927C189.848 54.0057 191.152 54.0057 191.451 54.9271L194.204 63.4012C194.338 63.8132 194.722 64.0922 195.156 64.0922L204.066 64.0922C205.035 64.0922 205.437 65.3318 204.654 65.9012L197.445 71.1385C197.095 71.3932 196.948 71.8446 197.082 72.2566L199.835 80.7308C200.135 81.6521 199.08 82.4182 198.296 81.8488L191.088 76.6115C190.737 76.3568 190.263 76.3568 189.912 76.6115L182.704 81.8488C181.92 82.4182 180.865 81.6521 181.165 80.7307L183.918 72.2566C184.052 71.8446 183.905 71.3932 183.555 71.1385L176.346 65.9012C175.563 65.3318 175.965 64.0922 176.934 64.0922L185.844 64.0922C186.278 64.0922 186.662 63.8132 186.796 63.4012L189.549 54.927Z" fill="#926B5A" fill-opacity="0.45" shape-rendering="crispEdges"/>
</g>
<g filter="url(#filter4_d_51_231)">
<path d="M235.549 54.927C235.848 54.0057 237.152 54.0057 237.451 54.9271L240.204 63.4012C240.338 63.8132 240.722 64.0922 241.156 64.0922L250.066 64.0922C251.035 64.0922 251.437 65.3318 250.654 65.9012L243.445 71.1385C243.095 71.3932 242.948 71.8446 243.082 72.2566L245.835 80.7308C246.135 81.6521 245.08 82.4182 244.296 81.8488L237.088 76.6115C236.737 76.3568 236.263 76.3568 235.912 76.6115L228.704 81.8488C227.92 82.4182 226.865 81.6521 227.165 80.7307L229.918 72.2566C230.052 71.8446 229.905 71.3932 229.555 71.1385L222.346 65.9012C221.563 65.3318 221.965 64.0922 222.934 64.0922L231.844 64.0922C232.278 64.0922 232.662 63.8132 232.796 63.4012L235.549 54.927Z" fill="#926B5A" fill-opacity="0.28" shape-rendering="crispEdges"/>
</g>
<g filter="url(#filter5_d_51_231)">
<path d="M45.5489 54.927C45.8483 54.0057 47.1517 54.0057 47.4511 54.9271L50.2045 63.4012C50.3384 63.8132 50.7223 64.0922 51.1555 64.0922L60.0658 64.0922C61.0345 64.0922 61.4373 65.3318 60.6536 65.9012L53.445 71.1385C53.0945 71.3932 52.9479 71.8446 53.0818 72.2566L55.8352 80.7308C56.1345 81.6521 55.0801 82.4182 54.2963 81.8488L47.0878 76.6115C46.7373 76.3568 46.2627 76.3568 45.9122 76.6115L38.7037 81.8488C37.9199 82.4182 36.8655 81.6521 37.1648 80.7307L39.9182 72.2566C40.0521 71.8446 39.9055 71.3932 39.555 71.1385L32.3464 65.9012C31.5627 65.3318 31.9655 64.0922 32.9342 64.0922L41.8445 64.0922C42.2777 64.0922 42.6616 63.8132 42.7955 63.4012L45.5489 54.927Z" fill="#926B5A"/>
</g>
<path d="M52.36 33V21.44L47.22 30.42H46.34L41.18 21.44V33H39.78V18.8H41.22L46.76 28.52L52.34 18.8H53.76V33H52.36ZM61.3228 33.2C60.5761 33.2 59.8828 33.06 59.2428 32.78C58.6161 32.4867 58.0695 32.0933 57.6028 31.6C57.1495 31.0933 56.7961 30.52 56.5428 29.88C56.2895 29.2267 56.1628 28.54 56.1628 27.82C56.1628 27.0733 56.2895 26.38 56.5428 25.74C56.7961 25.0867 57.1561 24.5133 57.6228 24.02C58.0895 23.5133 58.6361 23.12 59.2628 22.84C59.9028 22.5467 60.5961 22.4 61.3428 22.4C62.0895 22.4 62.7761 22.5467 63.4028 22.84C64.0295 23.12 64.5761 23.5133 65.0428 24.02C65.5095 24.5133 65.8695 25.0867 66.1228 25.74C66.3761 26.38 66.5028 27.0733 66.5028 27.82C66.5028 28.54 66.3761 29.2267 66.1228 29.88C65.8695 30.52 65.5095 31.0933 65.0428 31.6C64.5895 32.0933 64.0428 32.4867 63.4028 32.78C62.7761 33.06 62.0828 33.2 61.3228 33.2ZM57.5428 27.84C57.5428 28.6133 57.7095 29.32 58.0428 29.96C58.3895 30.5867 58.8495 31.0867 59.4228 31.46C59.9961 31.82 60.6295 32 61.3228 32C62.0161 32 62.6495 31.8133 63.2228 31.44C63.7961 31.0667 64.2561 30.56 64.6028 29.92C64.9495 29.2667 65.1228 28.56 65.1228 27.8C65.1228 27.0267 64.9495 26.32 64.6028 25.68C64.2561 25.04 63.7961 24.5333 63.2228 24.16C62.6495 23.7867 62.0161 23.6 61.3228 23.6C60.6295 23.6 59.9961 23.7933 59.4228 24.18C58.8628 24.5667 58.4095 25.08 58.0628 25.72C57.7161 26.3467 57.5428 27.0533 57.5428 27.84ZM77.5373 33H76.1773V27.18C76.1773 25.9533 75.9973 25.06 75.6373 24.5C75.2773 23.9267 74.7107 23.64 73.9373 23.64C73.404 23.64 72.8773 23.7733 72.3573 24.04C71.8373 24.2933 71.3773 24.6467 70.9773 25.1C70.5907 25.54 70.3107 26.0467 70.1373 26.62V33H68.7773V22.58H70.0173V24.94C70.2973 24.4333 70.664 23.9933 71.1173 23.62C71.5707 23.2333 72.084 22.9333 72.6573 22.72C73.2307 22.5067 73.824 22.4 74.4373 22.4C75.0107 22.4 75.4973 22.5067 75.8973 22.72C76.2973 22.9333 76.6173 23.24 76.8573 23.64C77.0973 24.0267 77.2707 24.5 77.3773 25.06C77.484 25.6067 77.5373 26.22 77.5373 26.9V33ZM79.5975 30C79.5975 29.3467 79.7842 28.7867 80.1575 28.32C80.5308 27.84 81.0442 27.4733 81.6975 27.22C82.3642 26.9533 83.1308 26.82 83.9975 26.82C84.5042 26.82 85.0308 26.86 85.5775 26.94C86.1242 27.02 86.6108 27.14 87.0375 27.3V26.42C87.0375 25.54 86.7775 24.84 86.2575 24.32C85.7375 23.8 85.0175 23.54 84.0975 23.54C83.5375 23.54 82.9842 23.6467 82.4375 23.86C81.9042 24.06 81.3442 24.36 80.7575 24.76L80.2375 23.8C80.9175 23.3333 81.5842 22.9867 82.2375 22.76C82.8908 22.52 83.5575 22.4 84.2375 22.4C85.5175 22.4 86.5308 22.7667 87.2775 23.5C88.0242 24.2333 88.3975 25.2467 88.3975 26.54V31.36C88.3975 31.5467 88.4375 31.6867 88.5175 31.78C88.5975 31.86 88.7242 31.9067 88.8975 31.92V33C88.7508 33.0133 88.6242 33.0267 88.5175 33.04C88.4108 33.0533 88.3308 33.0533 88.2775 33.04C87.9442 33.0267 87.6908 32.92 87.5175 32.72C87.3442 32.52 87.2508 32.3067 87.2375 32.08L87.2175 31.32C86.7508 31.92 86.1442 32.3867 85.3975 32.72C84.6508 33.04 83.8908 33.2 83.1175 33.2C82.4508 33.2 81.8442 33.06 81.2975 32.78C80.7642 32.4867 80.3442 32.1 80.0375 31.62C79.7442 31.1267 79.5975 30.5867 79.5975 30ZM86.5775 30.8C86.7242 30.6133 86.8375 30.4333 86.9175 30.26C86.9975 30.0867 87.0375 29.9333 87.0375 29.8V28.28C86.5842 28.1067 86.1108 27.9733 85.6175 27.88C85.1375 27.7867 84.6508 27.74 84.1575 27.74C83.1842 27.74 82.3975 27.9333 81.7975 28.32C81.1975 28.7067 80.8975 29.2333 80.8975 29.9C80.8975 30.2867 80.9975 30.6533 81.1975 31C81.3975 31.3333 81.6908 31.6133 82.0775 31.84C82.4642 32.0533 82.9175 32.16 83.4375 32.16C84.0908 32.16 84.6975 32.0333 85.2575 31.78C85.8308 31.5267 86.2708 31.2 86.5775 30.8Z" fill="black"/>
<path d="M41.488 117V107.752L37.376 114.936H36.672L32.544 107.752V117H31.424V105.64H32.576L37.008 113.416L41.472 105.64H42.608V117H41.488ZM48.6583 117.16C48.0609 117.16 47.5063 117.048 46.9943 116.824C46.4929 116.589 46.0556 116.275 45.6823 115.88C45.3196 115.475 45.0369 115.016 44.8343 114.504C44.6316 113.981 44.5303 113.432 44.5303 112.856C44.5303 112.259 44.6316 111.704 44.8343 111.192C45.0369 110.669 45.3249 110.211 45.6983 109.816C46.0716 109.411 46.5089 109.096 47.0103 108.872C47.5223 108.637 48.0769 108.52 48.6743 108.52C49.2716 108.52 49.8209 108.637 50.3223 108.872C50.8236 109.096 51.2609 109.411 51.6343 109.816C52.0076 110.211 52.2956 110.669 52.4983 111.192C52.7009 111.704 52.8023 112.259 52.8023 112.856C52.8023 113.432 52.7009 113.981 52.4983 114.504C52.2956 115.016 52.0076 115.475 51.6343 115.88C51.2716 116.275 50.8343 116.589 50.3223 116.824C49.8209 117.048 49.2663 117.16 48.6583 117.16ZM45.6343 112.872C45.6343 113.491 45.7676 114.056 46.0343 114.568C46.3116 115.069 46.6796 115.469 47.1383 115.768C47.5969 116.056 48.1036 116.2 48.6583 116.2C49.2129 116.2 49.7196 116.051 50.1783 115.752C50.6369 115.453 51.0049 115.048 51.2823 114.536C51.5596 114.013 51.6983 113.448 51.6983 112.84C51.6983 112.221 51.5596 111.656 51.2823 111.144C51.0049 110.632 50.6369 110.227 50.1783 109.928C49.7196 109.629 49.2129 109.48 48.6583 109.48C48.1036 109.48 47.5969 109.635 47.1383 109.944C46.6903 110.253 46.3276 110.664 46.0503 111.176C45.7729 111.677 45.6343 112.243 45.6343 112.872ZM58.2379 117.16C57.6299 117.16 57.0699 117.048 56.5579 116.824C56.0565 116.589 55.6139 116.269 55.2299 115.864C54.8565 115.459 54.5632 114.995 54.3499 114.472C54.1472 113.949 54.0459 113.395 54.0459 112.808C54.0459 112.019 54.2219 111.299 54.5739 110.648C54.9259 109.997 55.4165 109.48 56.0459 109.096C56.6752 108.712 57.4005 108.52 58.2219 108.52C59.0005 108.52 59.6885 108.701 60.2859 109.064C60.8832 109.416 61.3259 109.896 61.6139 110.504L60.5579 110.84C60.3232 110.413 59.9925 110.083 59.5659 109.848C59.1499 109.603 58.6859 109.48 58.1739 109.48C57.6192 109.48 57.1125 109.624 56.6539 109.912C56.1952 110.2 55.8272 110.595 55.5499 111.096C55.2832 111.597 55.1499 112.168 55.1499 112.808C55.1499 113.437 55.2885 114.008 55.5659 114.52C55.8432 115.032 56.2112 115.443 56.6699 115.752C57.1285 116.051 57.6352 116.2 58.1899 116.2C58.5525 116.2 58.8992 116.136 59.2299 116.008C59.5712 115.88 59.8645 115.709 60.1099 115.496C60.3659 115.272 60.5365 115.032 60.6219 114.776L61.6939 115.096C61.5445 115.491 61.2939 115.848 60.9419 116.168C60.6005 116.477 60.1952 116.723 59.7259 116.904C59.2672 117.075 58.7712 117.16 58.2379 117.16ZM66.941 117.16C66.333 117.16 65.773 117.048 65.261 116.824C64.7597 116.589 64.317 116.269 63.933 115.864C63.5597 115.459 63.2663 114.995 63.053 114.472C62.8503 113.949 62.749 113.395 62.749 112.808C62.749 112.019 62.925 111.299 63.277 110.648C63.629 109.997 64.1197 109.48 64.749 109.096C65.3783 108.712 66.1037 108.52 66.925 108.52C67.7037 108.52 68.3917 108.701 68.989 109.064C69.5863 109.416 70.029 109.896 70.317 110.504L69.261 110.84C69.0263 110.413 68.6957 110.083 68.269 109.848C67.853 109.603 67.389 109.48 66.877 109.48C66.3223 109.48 65.8157 109.624 65.357 109.912C64.8983 110.2 64.5303 110.595 64.253 111.096C63.9863 111.597 63.853 112.168 63.853 112.808C63.853 113.437 63.9917 114.008 64.269 114.52C64.5463 115.032 64.9143 115.443 65.373 115.752C65.8317 116.051 66.3383 116.2 66.893 116.2C67.2557 116.2 67.6023 116.136 67.933 116.008C68.2743 115.88 68.5677 115.709 68.813 115.496C69.069 115.272 69.2397 115.032 69.325 114.776L70.397 115.096C70.2477 115.491 69.997 115.848 69.645 116.168C69.3037 116.477 68.8983 116.723 68.429 116.904C67.9703 117.075 67.4743 117.16 66.941 117.16ZM75.5801 117.16C74.9828 117.16 74.4281 117.048 73.9161 116.824C73.4148 116.589 72.9775 116.275 72.6041 115.88C72.2415 115.475 71.9588 115.016 71.7561 114.504C71.5535 113.981 71.4521 113.432 71.4521 112.856C71.4521 112.259 71.5535 111.704 71.7561 111.192C71.9588 110.669 72.2468 110.211 72.6201 109.816C72.9935 109.411 73.4308 109.096 73.9321 108.872C74.4441 108.637 74.9988 108.52 75.5961 108.52C76.1935 108.52 76.7428 108.637 77.2441 108.872C77.7455 109.096 78.1828 109.411 78.5561 109.816C78.9295 110.211 79.2175 110.669 79.4201 111.192C79.6228 111.704 79.7241 112.259 79.7241 112.856C79.7241 113.432 79.6228 113.981 79.4201 114.504C79.2175 115.016 78.9295 115.475 78.5561 115.88C78.1935 116.275 77.7561 116.589 77.2441 116.824C76.7428 117.048 76.1881 117.16 75.5801 117.16ZM72.5561 112.872C72.5561 113.491 72.6895 114.056 72.9561 114.568C73.2335 115.069 73.6015 115.469 74.0601 115.768C74.5188 116.056 75.0255 116.2 75.5801 116.2C76.1348 116.2 76.6415 116.051 77.1001 115.752C77.5588 115.453 77.9268 115.048 78.2041 114.536C78.4815 114.013 78.6201 113.448 78.6201 112.84C78.6201 112.221 78.4815 111.656 78.2041 111.144C77.9268 110.632 77.5588 110.227 77.1001 109.928C76.6415 109.629 76.1348 109.48 75.5801 109.48C75.0255 109.48 74.5188 109.635 74.0601 109.944C73.6121 110.253 73.2495 110.664 72.9721 111.176C72.6948 111.677 72.5561 112.243 72.5561 112.872ZM84.9499 114.6C84.9499 114.077 85.0992 113.629 85.3979 113.256C85.6965 112.872 86.1072 112.579 86.6299 112.376C87.1632 112.163 87.7765 112.056 88.4699 112.056C88.8752 112.056 89.2965 112.088 89.7339 112.152C90.1712 112.216 90.5605 112.312 90.9019 112.44V111.736C90.9019 111.032 90.6939 110.472 90.2779 110.056C89.8619 109.64 89.2859 109.432 88.5499 109.432C88.1019 109.432 87.6592 109.517 87.2219 109.688C86.7952 109.848 86.3472 110.088 85.8779 110.408L85.4619 109.64C86.0059 109.267 86.5392 108.989 87.0619 108.808C87.5845 108.616 88.1179 108.52 88.6619 108.52C89.6859 108.52 90.4965 108.813 91.0939 109.4C91.6912 109.987 91.9899 110.797 91.9899 111.832V115.688C91.9899 115.837 92.0219 115.949 92.0859 116.024C92.1499 116.088 92.2512 116.125 92.3899 116.136V117C92.2725 117.011 92.1712 117.021 92.0859 117.032C92.0005 117.043 91.9365 117.043 91.8939 117.032C91.6272 117.021 91.4245 116.936 91.2859 116.776C91.1472 116.616 91.0725 116.445 91.0619 116.264L91.0459 115.656C90.6725 116.136 90.1872 116.509 89.5899 116.776C88.9925 117.032 88.3845 117.16 87.7659 117.16C87.2325 117.16 86.7472 117.048 86.3099 116.824C85.8832 116.589 85.5472 116.28 85.3019 115.896C85.0672 115.501 84.9499 115.069 84.9499 114.6ZM90.5339 115.24C90.6512 115.091 90.7419 114.947 90.8059 114.808C90.8699 114.669 90.9019 114.547 90.9019 114.44V113.224C90.5392 113.085 90.1605 112.979 89.7659 112.904C89.3819 112.829 88.9925 112.792 88.5979 112.792C87.8192 112.792 87.1899 112.947 86.7099 113.256C86.2299 113.565 85.9899 113.987 85.9899 114.52C85.9899 114.829 86.0699 115.123 86.2299 115.4C86.3899 115.667 86.6245 115.891 86.9339 116.072C87.2432 116.243 87.6059 116.328 88.0219 116.328C88.5445 116.328 89.0299 116.227 89.4779 116.024C89.9365 115.821 90.2885 115.56 90.5339 115.24ZM86.9819 106.856V105.352H87.9099V106.856H86.9819ZM89.3659 106.856V105.352H90.2939V106.856H89.3659ZM98.5006 109.624C97.7753 109.645 97.1353 109.848 96.5806 110.232C96.0366 110.616 95.6526 111.144 95.4286 111.816V117H94.3406V108.664H95.3646V110.664C95.6526 110.077 96.0313 109.603 96.5006 109.24C96.9806 108.877 97.4873 108.675 98.0206 108.632C98.1273 108.621 98.218 108.616 98.2926 108.616C98.378 108.616 98.4473 108.621 98.5006 108.632V109.624ZM110.661 117H109.573V112.344C109.573 111.405 109.408 110.701 109.077 110.232C108.746 109.752 108.272 109.512 107.653 109.512C107.248 109.512 106.842 109.619 106.437 109.832C106.042 110.035 105.69 110.317 105.381 110.68C105.082 111.032 104.869 111.437 104.741 111.896V117H103.653V105.32H104.741V110.552C105.072 109.933 105.53 109.443 106.117 109.08C106.714 108.707 107.349 108.52 108.021 108.52C108.501 108.52 108.906 108.605 109.237 108.776C109.578 108.947 109.85 109.197 110.053 109.528C110.266 109.848 110.421 110.227 110.517 110.664C110.613 111.091 110.661 111.576 110.661 112.12V117ZM116.581 117.16C115.984 117.16 115.429 117.048 114.917 116.824C114.405 116.589 113.963 116.275 113.589 115.88C113.216 115.475 112.923 115.011 112.709 114.488C112.507 113.965 112.405 113.405 112.405 112.808C112.405 112.029 112.581 111.315 112.933 110.664C113.296 110.013 113.792 109.496 114.421 109.112C115.051 108.717 115.765 108.52 116.565 108.52C117.387 108.52 118.101 108.717 118.709 109.112C119.328 109.507 119.813 110.029 120.165 110.68C120.517 111.32 120.693 112.024 120.693 112.792C120.693 112.877 120.693 112.963 120.693 113.048C120.693 113.123 120.688 113.181 120.677 113.224H113.541C113.595 113.821 113.76 114.355 114.037 114.824C114.325 115.283 114.693 115.651 115.141 115.928C115.6 116.195 116.096 116.328 116.629 116.328C117.173 116.328 117.685 116.189 118.165 115.912C118.656 115.635 118.997 115.272 119.189 114.824L120.133 115.08C119.963 115.475 119.701 115.832 119.349 116.152C118.997 116.472 118.581 116.723 118.101 116.904C117.632 117.075 117.125 117.16 116.581 117.16ZM113.509 112.44H119.669C119.627 111.832 119.461 111.299 119.173 110.84C118.896 110.381 118.528 110.024 118.069 109.768C117.621 109.501 117.125 109.368 116.581 109.368C116.037 109.368 115.541 109.501 115.093 109.768C114.645 110.024 114.277 110.387 113.989 110.856C113.712 111.315 113.552 111.843 113.509 112.44ZM122.42 105.32H123.508V115.112C123.508 115.528 123.583 115.8 123.732 115.928C123.881 116.056 124.063 116.12 124.276 116.12C124.468 116.12 124.66 116.099 124.852 116.056C125.044 116.013 125.209 115.971 125.348 115.928L125.54 116.808C125.337 116.893 125.087 116.963 124.788 117.016C124.5 117.069 124.249 117.096 124.036 117.096C123.545 117.096 123.151 116.952 122.852 116.664C122.564 116.376 122.42 115.981 122.42 115.48V105.32ZM130.731 116.6C130.646 116.632 130.513 116.691 130.331 116.776C130.15 116.861 129.931 116.936 129.675 117C129.419 117.064 129.142 117.096 128.843 117.096C128.534 117.096 128.241 117.037 127.963 116.92C127.697 116.803 127.483 116.627 127.323 116.392C127.163 116.147 127.083 115.848 127.083 115.496V109.528H125.931V108.664H127.083V105.848H128.171V108.664H130.091V109.528H128.171V115.192C128.193 115.491 128.299 115.715 128.491 115.864C128.694 116.013 128.923 116.088 129.179 116.088C129.478 116.088 129.75 116.04 129.995 115.944C130.241 115.837 130.39 115.763 130.443 115.72L130.731 116.6ZM136.569 117V109.528H135.417V108.664H136.569V108.44C136.569 107.757 136.665 107.171 136.857 106.68C137.059 106.189 137.342 105.816 137.705 105.56C138.078 105.293 138.515 105.16 139.017 105.16C139.347 105.16 139.667 105.208 139.977 105.304C140.286 105.4 140.553 105.528 140.777 105.688L140.441 106.472C140.302 106.355 140.121 106.264 139.897 106.2C139.673 106.136 139.449 106.104 139.225 106.104C138.723 106.104 138.334 106.301 138.057 106.696C137.79 107.091 137.657 107.661 137.657 108.408V108.664H139.961V109.528H137.657V117H136.569ZM140.747 114.6C140.747 114.077 140.896 113.629 141.195 113.256C141.493 112.872 141.904 112.579 142.427 112.376C142.96 112.163 143.573 112.056 144.267 112.056C144.672 112.056 145.093 112.088 145.531 112.152C145.968 112.216 146.357 112.312 146.699 112.44V111.736C146.699 111.032 146.491 110.472 146.075 110.056C145.659 109.64 145.083 109.432 144.347 109.432C143.899 109.432 143.456 109.517 143.019 109.688C142.592 109.848 142.144 110.088 141.675 110.408L141.259 109.64C141.803 109.267 142.336 108.989 142.859 108.808C143.381 108.616 143.915 108.52 144.459 108.52C145.483 108.52 146.293 108.813 146.891 109.4C147.488 109.987 147.787 110.797 147.787 111.832V115.688C147.787 115.837 147.819 115.949 147.883 116.024C147.947 116.088 148.048 116.125 148.187 116.136V117C148.069 117.011 147.968 117.021 147.883 117.032C147.797 117.043 147.733 117.043 147.691 117.032C147.424 117.021 147.221 116.936 147.083 116.776C146.944 116.616 146.869 116.445 146.859 116.264L146.843 115.656C146.469 116.136 145.984 116.509 145.387 116.776C144.789 117.032 144.181 117.16 143.563 117.16C143.029 117.16 142.544 117.048 142.107 116.824C141.68 116.589 141.344 116.28 141.099 115.896C140.864 115.501 140.747 115.069 140.747 114.6ZM146.331 115.24C146.448 115.091 146.539 114.947 146.603 114.808C146.667 114.669 146.699 114.547 146.699 114.44V113.224C146.336 113.085 145.957 112.979 145.563 112.904C145.179 112.829 144.789 112.792 144.395 112.792C143.616 112.792 142.987 112.947 142.507 113.256C142.027 113.565 141.787 113.987 141.787 114.52C141.787 114.829 141.867 115.123 142.027 115.4C142.187 115.667 142.421 115.891 142.731 116.072C143.04 116.243 143.403 116.328 143.819 116.328C144.341 116.328 144.827 116.227 145.275 116.024C145.733 115.821 146.085 115.56 146.331 115.24ZM157.146 117H156.058V112.344C156.058 111.363 155.914 110.648 155.626 110.2C155.338 109.741 154.884 109.512 154.266 109.512C153.839 109.512 153.418 109.619 153.002 109.832C152.586 110.035 152.218 110.317 151.898 110.68C151.588 111.032 151.364 111.437 151.226 111.896V117H150.138V108.664H151.13V110.552C151.354 110.147 151.647 109.795 152.01 109.496C152.372 109.187 152.783 108.947 153.242 108.776C153.7 108.605 154.175 108.52 154.666 108.52C155.124 108.52 155.514 108.605 155.834 108.776C156.154 108.947 156.41 109.192 156.602 109.512C156.794 109.821 156.932 110.2 157.017 110.648C157.103 111.085 157.146 111.576 157.146 112.12V117ZM163.388 116.6C163.302 116.632 163.169 116.691 162.988 116.776C162.806 116.861 162.588 116.936 162.332 117C162.076 117.064 161.798 117.096 161.5 117.096C161.19 117.096 160.897 117.037 160.62 116.92C160.353 116.803 160.14 116.627 159.98 116.392C159.82 116.147 159.74 115.848 159.74 115.496V109.528H158.588V108.664H159.74V105.848H160.828V108.664H162.748V109.528H160.828V115.192C160.849 115.491 160.956 115.715 161.148 115.864C161.35 116.013 161.58 116.088 161.836 116.088C162.134 116.088 162.406 116.04 162.652 115.944C162.897 115.837 163.046 115.763 163.1 115.72L163.388 116.6ZM164.075 114.6C164.075 114.077 164.224 113.629 164.523 113.256C164.822 112.872 165.232 112.579 165.755 112.376C166.288 112.163 166.902 112.056 167.595 112.056C168 112.056 168.422 112.088 168.859 112.152C169.296 112.216 169.686 112.312 170.027 112.44V111.736C170.027 111.032 169.819 110.472 169.403 110.056C168.987 109.64 168.411 109.432 167.675 109.432C167.227 109.432 166.784 109.517 166.347 109.688C165.92 109.848 165.472 110.088 165.003 110.408L164.587 109.64C165.131 109.267 165.664 108.989 166.187 108.808C166.71 108.616 167.243 108.52 167.787 108.52C168.811 108.52 169.622 108.813 170.219 109.4C170.816 109.987 171.115 110.797 171.115 111.832V115.688C171.115 115.837 171.147 115.949 171.211 116.024C171.275 116.088 171.376 116.125 171.515 116.136V117C171.398 117.011 171.296 117.021 171.211 117.032C171.126 117.043 171.062 117.043 171.019 117.032C170.752 117.021 170.55 116.936 170.411 116.776C170.272 116.616 170.198 116.445 170.187 116.264L170.171 115.656C169.798 116.136 169.312 116.509 168.715 116.776C168.118 117.032 167.51 117.16 166.891 117.16C166.358 117.16 165.872 117.048 165.435 116.824C165.008 116.589 164.672 116.28 164.427 115.896C164.192 115.501 164.075 115.069 164.075 114.6ZM169.659 115.24C169.776 115.091 169.867 114.947 169.931 114.808C169.995 114.669 170.027 114.547 170.027 114.44V113.224C169.664 113.085 169.286 112.979 168.891 112.904C168.507 112.829 168.118 112.792 167.723 112.792C166.944 112.792 166.315 112.947 165.835 113.256C165.355 113.565 165.115 113.987 165.115 114.52C165.115 114.829 165.195 115.123 165.355 115.4C165.515 115.667 165.75 115.891 166.059 116.072C166.368 116.243 166.731 116.328 167.147 116.328C167.67 116.328 168.155 116.227 168.603 116.024C169.062 115.821 169.414 115.56 169.659 115.24ZM176.202 117.16C175.519 117.16 174.884 117.048 174.298 116.824C173.711 116.6 173.204 116.259 172.778 115.8L173.226 115.032C173.695 115.469 174.164 115.789 174.634 115.992C175.114 116.184 175.62 116.28 176.154 116.28C176.804 116.28 177.332 116.152 177.738 115.896C178.143 115.629 178.346 115.251 178.346 114.76C178.346 114.429 178.244 114.179 178.042 114.008C177.85 113.827 177.567 113.683 177.194 113.576C176.831 113.459 176.394 113.336 175.882 113.208C175.306 113.048 174.82 112.883 174.426 112.712C174.042 112.531 173.748 112.307 173.546 112.04C173.354 111.763 173.258 111.405 173.258 110.968C173.258 110.424 173.391 109.976 173.658 109.624C173.935 109.261 174.308 108.989 174.778 108.808C175.258 108.616 175.791 108.52 176.378 108.52C177.018 108.52 177.583 108.621 178.074 108.824C178.564 109.027 178.964 109.309 179.274 109.672L178.746 110.408C178.447 110.067 178.09 109.816 177.674 109.656C177.268 109.485 176.815 109.4 176.314 109.4C175.972 109.4 175.647 109.448 175.338 109.544C175.028 109.629 174.772 109.779 174.57 109.992C174.378 110.195 174.282 110.477 174.282 110.84C174.282 111.139 174.356 111.373 174.506 111.544C174.655 111.704 174.879 111.843 175.178 111.96C175.476 112.067 175.844 112.184 176.282 112.312C176.911 112.483 177.46 112.659 177.93 112.84C178.399 113.011 178.762 113.235 179.018 113.512C179.274 113.789 179.402 114.179 179.402 114.68C179.402 115.459 179.108 116.067 178.522 116.504C177.935 116.941 177.162 117.16 176.202 117.16ZM185.2 116.6C185.115 116.632 184.981 116.691 184.8 116.776C184.619 116.861 184.4 116.936 184.144 117C183.888 117.064 183.611 117.096 183.312 117.096C183.003 117.096 182.709 117.037 182.432 116.92C182.165 116.803 181.952 116.627 181.792 116.392C181.632 116.147 181.552 115.848 181.552 115.496V109.528H180.4V108.664H181.552V105.848H182.64V108.664H184.56V109.528H182.64V115.192C182.661 115.491 182.768 115.715 182.96 115.864C183.163 116.013 183.392 116.088 183.648 116.088C183.947 116.088 184.219 116.04 184.464 115.944C184.709 115.837 184.859 115.763 184.912 115.72L185.2 116.6ZM186.559 117V108.664H187.647V117H186.559ZM186.559 106.92V105.32H187.647V106.92H186.559ZM192.78 117.16C192.097 117.16 191.462 117.048 190.876 116.824C190.289 116.6 189.782 116.259 189.356 115.8L189.804 115.032C190.273 115.469 190.742 115.789 191.212 115.992C191.692 116.184 192.198 116.28 192.732 116.28C193.382 116.28 193.91 116.152 194.316 115.896C194.721 115.629 194.924 115.251 194.924 114.76C194.924 114.429 194.822 114.179 194.62 114.008C194.428 113.827 194.145 113.683 193.772 113.576C193.409 113.459 192.972 113.336 192.46 113.208C191.884 113.048 191.398 112.883 191.004 112.712C190.62 112.531 190.326 112.307 190.124 112.04C189.932 111.763 189.836 111.405 189.836 110.968C189.836 110.424 189.969 109.976 190.236 109.624C190.513 109.261 190.886 108.989 191.356 108.808C191.836 108.616 192.369 108.52 192.956 108.52C193.596 108.52 194.161 108.621 194.652 108.824C195.142 109.027 195.542 109.309 195.852 109.672L195.324 110.408C195.025 110.067 194.668 109.816 194.252 109.656C193.846 109.485 193.393 109.4 192.892 109.4C192.55 109.4 192.225 109.448 191.916 109.544C191.606 109.629 191.35 109.779 191.148 109.992C190.956 110.195 190.86 110.477 190.86 110.84C190.86 111.139 190.934 111.373 191.084 111.544C191.233 111.704 191.457 111.843 191.756 111.96C192.054 112.067 192.422 112.184 192.86 112.312C193.489 112.483 194.038 112.659 194.508 112.84C194.977 113.011 195.34 113.235 195.596 113.512C195.852 113.789 195.98 114.179 195.98 114.68C195.98 115.459 195.686 116.067 195.1 116.504C194.513 116.941 193.74 117.16 192.78 117.16ZM203.73 117L200.642 112.728L198.866 114.392V117H197.778V105.32H198.866V113.224L203.586 108.68H204.786L201.378 112.088L204.914 117H203.73ZM210.263 116.6C210.177 116.632 210.044 116.691 209.863 116.776C209.681 116.861 209.463 116.936 209.207 117C208.951 117.064 208.673 117.096 208.375 117.096C208.065 117.096 207.772 117.037 207.495 116.92C207.228 116.803 207.015 116.627 206.855 116.392C206.695 116.147 206.615 115.848 206.615 115.496V109.528H205.463V108.664H206.615V105.848H207.703V108.664H209.623V109.528H207.703V115.192C207.724 115.491 207.831 115.715 208.023 115.864C208.225 116.013 208.455 116.088 208.711 116.088C209.009 116.088 209.281 116.04 209.527 115.944C209.772 115.837 209.921 115.763 209.975 115.72L210.263 116.6ZM211.894 113.352V105.528H212.982V113.352H211.894ZM211.894 117V115.208H212.982V117H211.894Z" fill="black"/>
<path d="M221.86 9.9L224.4 16.13L226.93 9.9H227.66L224.72 17H224.08L221.13 9.9H221.86ZM230.113 17.1C229.74 17.1 229.393 17.03 229.073 16.89C228.753 16.7433 228.477 16.5467 228.243 16.3C228.01 16.0467 227.827 15.7567 227.693 15.43C227.567 15.1033 227.503 14.7533 227.503 14.38C227.503 13.8933 227.613 13.4467 227.833 13.04C228.06 12.6333 228.37 12.31 228.763 12.07C229.157 11.8233 229.603 11.7 230.103 11.7C230.617 11.7 231.063 11.8233 231.443 12.07C231.83 12.3167 232.133 12.6433 232.353 13.05C232.573 13.45 232.683 13.89 232.683 14.37C232.683 14.4233 232.683 14.4767 232.683 14.53C232.683 14.5767 232.68 14.6133 232.673 14.64H228.213C228.247 15.0133 228.35 15.3467 228.523 15.64C228.703 15.9267 228.933 16.1567 229.213 16.33C229.5 16.4967 229.81 16.58 230.143 16.58C230.483 16.58 230.803 16.4933 231.103 16.32C231.41 16.1467 231.623 15.92 231.743 15.64L232.333 15.8C232.227 16.0467 232.063 16.27 231.843 16.47C231.623 16.67 231.363 16.8267 231.063 16.94C230.77 17.0467 230.453 17.1 230.113 17.1ZM228.193 14.15H232.043C232.017 13.77 231.913 13.4367 231.733 13.15C231.56 12.8633 231.33 12.64 231.043 12.48C230.763 12.3133 230.453 12.23 230.113 12.23C229.773 12.23 229.463 12.3133 229.183 12.48C228.903 12.64 228.673 12.8667 228.493 13.16C228.32 13.4467 228.22 13.7767 228.193 14.15ZM236.332 12.39C235.879 12.4033 235.479 12.53 235.132 12.77C234.792 13.01 234.552 13.34 234.412 13.76V17H233.732V11.79H234.372V13.04C234.552 12.6733 234.789 12.3767 235.082 12.15C235.382 11.9233 235.699 11.7967 236.032 11.77C236.099 11.7633 236.156 11.76 236.202 11.76C236.256 11.76 236.299 11.7633 236.332 11.77V12.39ZM237.238 17V11.79H237.918V17H237.238ZM237.238 10.7V9.7H237.918V10.7H237.238ZM239.666 12.33H238.946V11.79H239.666V11.65C239.666 11.4033 239.703 11.16 239.776 10.92C239.849 10.68 239.959 10.46 240.106 10.26C240.259 10.06 240.449 9.9 240.676 9.78C240.909 9.66 241.186 9.6 241.506 9.6C241.753 9.6 241.973 9.62667 242.166 9.68C242.366 9.73333 242.539 9.79667 242.686 9.87C242.833 9.94333 242.943 10.01 243.016 10.07L242.706 10.56C242.599 10.46 242.439 10.3767 242.226 10.31C242.019 10.2367 241.793 10.2 241.546 10.2C241.266 10.2 241.036 10.2733 240.856 10.42C240.683 10.56 240.553 10.74 240.466 10.96C240.386 11.18 240.346 11.4033 240.346 11.63V11.79H242.956V17H242.276V12.33H240.346V17H239.666V12.33ZM246.705 17.1C246.332 17.1 245.985 17.03 245.665 16.89C245.345 16.7433 245.068 16.5467 244.835 16.3C244.602 16.0467 244.418 15.7567 244.285 15.43C244.158 15.1033 244.095 14.7533 244.095 14.38C244.095 13.8933 244.205 13.4467 244.425 13.04C244.652 12.6333 244.962 12.31 245.355 12.07C245.748 11.8233 246.195 11.7 246.695 11.7C247.208 11.7 247.655 11.8233 248.035 12.07C248.422 12.3167 248.725 12.6433 248.945 13.05C249.165 13.45 249.275 13.89 249.275 14.37C249.275 14.4233 249.275 14.4767 249.275 14.53C249.275 14.5767 249.272 14.6133 249.265 14.64H244.805C244.838 15.0133 244.942 15.3467 245.115 15.64C245.295 15.9267 245.525 16.1567 245.805 16.33C246.092 16.4967 246.402 16.58 246.735 16.58C247.075 16.58 247.395 16.4933 247.695 16.32C248.002 16.1467 248.215 15.92 248.335 15.64L248.925 15.8C248.818 16.0467 248.655 16.27 248.435 16.47C248.215 16.67 247.955 16.8267 247.655 16.94C247.362 17.0467 247.045 17.1 246.705 17.1ZM244.785 14.15H248.635C248.608 13.77 248.505 13.4367 248.325 13.15C248.152 12.8633 247.922 12.64 247.635 12.48C247.355 12.3133 247.045 12.23 246.705 12.23C246.365 12.23 246.055 12.3133 245.775 12.48C245.495 12.64 245.265 12.8667 245.085 13.16C244.912 13.4467 244.812 13.7767 244.785 14.15ZM252.924 12.39C252.471 12.4033 252.071 12.53 251.724 12.77C251.384 13.01 251.144 13.34 251.004 13.76V17H250.324V11.79H250.964V13.04C251.144 12.6733 251.381 12.3767 251.674 12.15C251.974 11.9233 252.291 11.7967 252.624 11.77C252.691 11.7633 252.748 11.76 252.794 11.76C252.848 11.76 252.891 11.7633 252.924 11.77V12.39ZM253.391 15.5C253.391 15.1733 253.484 14.8933 253.671 14.66C253.857 14.42 254.114 14.2367 254.441 14.11C254.774 13.9767 255.157 13.91 255.591 13.91C255.844 13.91 256.107 13.93 256.381 13.97C256.654 14.01 256.897 14.07 257.111 14.15V13.71C257.111 13.27 256.981 12.92 256.721 12.66C256.461 12.4 256.101 12.27 255.641 12.27C255.361 12.27 255.084 12.3233 254.811 12.43C254.544 12.53 254.264 12.68 253.971 12.88L253.711 12.4C254.051 12.1667 254.384 11.9933 254.711 11.88C255.037 11.76 255.371 11.7 255.711 11.7C256.351 11.7 256.857 11.8833 257.231 12.25C257.604 12.6167 257.791 13.1233 257.791 13.77V16.18C257.791 16.2733 257.811 16.3433 257.851 16.39C257.891 16.43 257.954 16.4533 258.041 16.46V17C257.967 17.0067 257.904 17.0133 257.851 17.02C257.797 17.0267 257.757 17.0267 257.731 17.02C257.564 17.0133 257.437 16.96 257.351 16.86C257.264 16.76 257.217 16.6533 257.211 16.54L257.201 16.16C256.967 16.46 256.664 16.6933 256.291 16.86C255.917 17.02 255.537 17.1 255.151 17.1C254.817 17.1 254.514 17.03 254.241 16.89C253.974 16.7433 253.764 16.55 253.611 16.31C253.464 16.0633 253.391 15.7933 253.391 15.5ZM256.881 15.9C256.954 15.8067 257.011 15.7167 257.051 15.63C257.091 15.5433 257.111 15.4667 257.111 15.4V14.64C256.884 14.5533 256.647 14.4867 256.401 14.44C256.161 14.3933 255.917 14.37 255.671 14.37C255.184 14.37 254.791 14.4667 254.491 14.66C254.191 14.8533 254.041 15.1167 254.041 15.45C254.041 15.6433 254.091 15.8267 254.191 16C254.291 16.1667 254.437 16.3067 254.631 16.42C254.824 16.5267 255.051 16.58 255.311 16.58C255.637 16.58 255.941 16.5167 256.221 16.39C256.507 16.2633 256.727 16.1 256.881 15.9ZM258.91 14.41C258.91 13.9167 259.01 13.4667 259.21 13.06C259.416 12.6467 259.7 12.3167 260.06 12.07C260.42 11.8233 260.83 11.7 261.29 11.7C261.723 11.7 262.11 11.8167 262.45 12.05C262.796 12.2767 263.066 12.5533 263.26 12.88V9.7H263.94V16.18C263.94 16.2733 263.96 16.3433 264 16.39C264.04 16.43 264.1 16.4533 264.18 16.46V17C264.046 17.02 263.943 17.0267 263.87 17.02C263.73 17.0133 263.606 16.9567 263.5 16.85C263.393 16.7433 263.34 16.6267 263.34 16.5V15.99C263.133 16.33 262.853 16.6 262.5 16.8C262.146 17 261.78 17.1 261.4 17.1C261.04 17.1 260.706 17.0267 260.4 16.88C260.1 16.7333 259.836 16.5333 259.61 16.28C259.39 16.0267 259.216 15.74 259.09 15.42C258.97 15.0933 258.91 14.7567 258.91 14.41ZM263.26 15.21V13.6C263.173 13.36 263.033 13.1433 262.84 12.95C262.646 12.75 262.426 12.5933 262.18 12.48C261.94 12.36 261.7 12.3 261.46 12.3C261.18 12.3 260.926 12.36 260.7 12.48C260.473 12.5933 260.276 12.75 260.11 12.95C259.95 13.15 259.826 13.3767 259.74 13.63C259.653 13.8833 259.61 14.1433 259.61 14.41C259.61 14.69 259.656 14.9567 259.75 15.21C259.85 15.4633 259.99 15.69 260.17 15.89C260.35 16.0833 260.556 16.2333 260.79 16.34C261.023 16.4467 261.276 16.5 261.55 16.5C261.723 16.5 261.903 16.4667 262.09 16.4C262.276 16.3333 262.453 16.2433 262.62 16.13C262.793 16.01 262.936 15.87 263.05 15.71C263.163 15.55 263.233 15.3833 263.26 15.21ZM267.609 15.5C267.609 15.1733 267.703 14.8933 267.889 14.66C268.076 14.42 268.333 14.2367 268.659 14.11C268.993 13.9767 269.376 13.91 269.809 13.91C270.063 13.91 270.326 13.93 270.599 13.97C270.873 14.01 271.116 14.07 271.329 14.15V13.71C271.329 13.27 271.199 12.92 270.939 12.66C270.679 12.4 270.319 12.27 269.859 12.27C269.579 12.27 269.303 12.3233 269.029 12.43C268.763 12.53 268.483 12.68 268.189 12.88L267.929 12.4C268.269 12.1667 268.603 11.9933 268.929 11.88C269.256 11.76 269.589 11.7 269.929 11.7C270.569 11.7 271.076 11.8833 271.449 12.25C271.823 12.6167 272.009 13.1233 272.009 13.77V16.18C272.009 16.2733 272.029 16.3433 272.069 16.39C272.109 16.43 272.173 16.4533 272.259 16.46V17C272.186 17.0067 272.123 17.0133 272.069 17.02C272.016 17.0267 271.976 17.0267 271.949 17.02C271.783 17.0133 271.656 16.96 271.569 16.86C271.483 16.76 271.436 16.6533 271.429 16.54L271.419 16.16C271.186 16.46 270.883 16.6933 270.509 16.86C270.136 17.02 269.756 17.1 269.369 17.1C269.036 17.1 268.733 17.03 268.459 16.89C268.193 16.7433 267.983 16.55 267.829 16.31C267.683 16.0633 267.609 15.7933 267.609 15.5ZM271.099 15.9C271.173 15.8067 271.229 15.7167 271.269 15.63C271.309 15.5433 271.329 15.4667 271.329 15.4V14.64C271.103 14.5533 270.866 14.4867 270.619 14.44C270.379 14.3933 270.136 14.37 269.889 14.37C269.403 14.37 269.009 14.4667 268.709 14.66C268.409 14.8533 268.259 15.1167 268.259 15.45C268.259 15.6433 268.309 15.8267 268.409 16C268.509 16.1667 268.656 16.3067 268.849 16.42C269.043 16.5267 269.269 16.58 269.529 16.58C269.856 16.58 270.159 16.5167 270.439 16.39C270.726 16.2633 270.946 16.1 271.099 15.9ZM277.859 17H277.179V14.09C277.179 13.4767 277.089 13.03 276.909 12.75C276.729 12.4633 276.445 12.32 276.059 12.32C275.792 12.32 275.529 12.3867 275.269 12.52C275.009 12.6467 274.779 12.8233 274.579 13.05C274.385 13.27 274.245 13.5233 274.159 13.81V17H273.479V11.79H274.099V12.97C274.239 12.7167 274.422 12.4967 274.649 12.31C274.875 12.1167 275.132 11.9667 275.419 11.86C275.705 11.7533 276.002 11.7 276.309 11.7C276.595 11.7 276.839 11.7533 277.039 11.86C277.239 11.9667 277.399 12.12 277.519 12.32C277.639 12.5133 277.725 12.75 277.779 13.03C277.832 13.3033 277.859 13.61 277.859 13.95V17ZM280.751 17L278.641 11.79H279.351L281.131 16.32L282.921 11.79H283.591L281.481 17H280.751ZM283.986 15.5C283.986 15.1733 284.08 14.8933 284.266 14.66C284.453 14.42 284.71 14.2367 285.036 14.11C285.37 13.9767 285.753 13.91 286.186 13.91C286.44 13.91 286.703 13.93 286.976 13.97C287.25 14.01 287.493 14.07 287.706 14.15V13.71C287.706 13.27 287.576 12.92 287.316 12.66C287.056 12.4 286.696 12.27 286.236 12.27C285.956 12.27 285.68 12.3233 285.406 12.43C285.14 12.53 284.86 12.68 284.566 12.88L284.306 12.4C284.646 12.1667 284.98 11.9933 285.306 11.88C285.633 11.76 285.966 11.7 286.306 11.7C286.946 11.7 287.453 11.8833 287.826 12.25C288.2 12.6167 288.386 13.1233 288.386 13.77V16.18C288.386 16.2733 288.406 16.3433 288.446 16.39C288.486 16.43 288.55 16.4533 288.636 16.46V17C288.563 17.0067 288.5 17.0133 288.446 17.02C288.393 17.0267 288.353 17.0267 288.326 17.02C288.16 17.0133 288.033 16.96 287.946 16.86C287.86 16.76 287.813 16.6533 287.806 16.54L287.796 16.16C287.563 16.46 287.26 16.6933 286.886 16.86C286.513 17.02 286.133 17.1 285.746 17.1C285.413 17.1 285.11 17.03 284.836 16.89C284.57 16.7433 284.36 16.55 284.206 16.31C284.06 16.0633 283.986 15.7933 283.986 15.5ZM287.476 15.9C287.55 15.8067 287.606 15.7167 287.646 15.63C287.686 15.5433 287.706 15.4667 287.706 15.4V14.64C287.48 14.5533 287.243 14.4867 286.996 14.44C286.756 14.3933 286.513 14.37 286.266 14.37C285.78 14.37 285.386 14.4667 285.086 14.66C284.786 14.8533 284.636 15.1167 284.636 15.45C284.636 15.6433 284.686 15.8267 284.786 16C284.886 16.1667 285.033 16.3067 285.226 16.42C285.42 16.5267 285.646 16.58 285.906 16.58C286.233 16.58 286.536 16.5167 286.816 16.39C287.103 16.2633 287.323 16.1 287.476 15.9ZM285.256 10.66V9.72H285.836V10.66H285.256ZM286.746 10.66V9.72H287.326V10.66H286.746ZM294.235 17H293.555V14.09C293.555 13.4767 293.465 13.03 293.285 12.75C293.105 12.4633 292.822 12.32 292.435 12.32C292.169 12.32 291.905 12.3867 291.645 12.52C291.385 12.6467 291.155 12.8233 290.955 13.05C290.762 13.27 290.622 13.5233 290.535 13.81V17H289.855V11.79H290.475V12.97C290.615 12.7167 290.799 12.4967 291.025 12.31C291.252 12.1167 291.509 11.9667 291.795 11.86C292.082 11.7533 292.379 11.7 292.685 11.7C292.972 11.7 293.215 11.7533 293.415 11.86C293.615 11.9667 293.775 12.12 293.895 12.32C294.015 12.5133 294.102 12.75 294.155 13.03C294.209 13.3033 294.235 13.61 294.235 13.95V17ZM295.336 14.41C295.336 13.9167 295.436 13.4667 295.636 13.06C295.842 12.6467 296.126 12.3167 296.486 12.07C296.846 11.8233 297.256 11.7 297.716 11.7C298.149 11.7 298.536 11.8167 298.876 12.05C299.222 12.2767 299.492 12.5533 299.686 12.88V9.7H300.366V16.18C300.366 16.2733 300.386 16.3433 300.426 16.39C300.466 16.43 300.526 16.4533 300.606 16.46V17C300.472 17.02 300.369 17.0267 300.296 17.02C300.156 17.0133 300.032 16.9567 299.926 16.85C299.819 16.7433 299.766 16.6267 299.766 16.5V15.99C299.559 16.33 299.279 16.6 298.926 16.8C298.572 17 298.206 17.1 297.826 17.1C297.466 17.1 297.132 17.0267 296.826 16.88C296.526 16.7333 296.262 16.5333 296.036 16.28C295.816 16.0267 295.642 15.74 295.516 15.42C295.396 15.0933 295.336 14.7567 295.336 14.41ZM299.686 15.21V13.6C299.599 13.36 299.459 13.1433 299.266 12.95C299.072 12.75 298.852 12.5933 298.606 12.48C298.366 12.36 298.126 12.3 297.886 12.3C297.606 12.3 297.352 12.36 297.126 12.48C296.899 12.5933 296.702 12.75 296.536 12.95C296.376 13.15 296.252 13.3767 296.166 13.63C296.079 13.8833 296.036 14.1433 296.036 14.41C296.036 14.69 296.082 14.9567 296.176 15.21C296.276 15.4633 296.416 15.69 296.596 15.89C296.776 16.0833 296.982 16.2333 297.216 16.34C297.449 16.4467 297.702 16.5 297.976 16.5C298.149 16.5 298.329 16.4667 298.516 16.4C298.702 16.3333 298.879 16.2433 299.046 16.13C299.219 16.01 299.362 15.87 299.476 15.71C299.589 15.55 299.659 15.3833 299.686 15.21ZM301.486 15.5C301.486 15.1733 301.58 14.8933 301.766 14.66C301.953 14.42 302.21 14.2367 302.536 14.11C302.87 13.9767 303.253 13.91 303.686 13.91C303.94 13.91 304.203 13.93 304.476 13.97C304.75 14.01 304.993 14.07 305.206 14.15V13.71C305.206 13.27 305.076 12.92 304.816 12.66C304.556 12.4 304.196 12.27 303.736 12.27C303.456 12.27 303.18 12.3233 302.906 12.43C302.64 12.53 302.36 12.68 302.066 12.88L301.806 12.4C302.146 12.1667 302.48 11.9933 302.806 11.88C303.133 11.76 303.466 11.7 303.806 11.7C304.446 11.7 304.953 11.8833 305.326 12.25C305.7 12.6167 305.886 13.1233 305.886 13.77V16.18C305.886 16.2733 305.906 16.3433 305.946 16.39C305.986 16.43 306.05 16.4533 306.136 16.46V17C306.063 17.0067 306 17.0133 305.946 17.02C305.893 17.0267 305.853 17.0267 305.826 17.02C305.66 17.0133 305.533 16.96 305.446 16.86C305.36 16.76 305.313 16.6533 305.306 16.54L305.296 16.16C305.063 16.46 304.76 16.6933 304.386 16.86C304.013 17.02 303.633 17.1 303.246 17.1C302.913 17.1 302.61 17.03 302.336 16.89C302.07 16.7433 301.86 16.55 301.706 16.31C301.56 16.0633 301.486 15.7933 301.486 15.5ZM304.976 15.9C305.05 15.8067 305.106 15.7167 305.146 15.63C305.186 15.5433 305.206 15.4667 305.206 15.4V14.64C304.98 14.5533 304.743 14.4867 304.496 14.44C304.256 14.3933 304.013 14.37 303.766 14.37C303.28 14.37 302.886 14.4667 302.586 14.66C302.286 14.8533 302.136 15.1167 302.136 15.45C302.136 15.6433 302.186 15.8267 302.286 16C302.386 16.1667 302.533 16.3067 302.726 16.42C302.92 16.5267 303.146 16.58 303.406 16.58C303.733 16.58 304.036 16.5167 304.316 16.39C304.603 16.2633 304.823 16.1 304.976 15.9ZM309.955 12.39C309.502 12.4033 309.102 12.53 308.755 12.77C308.415 13.01 308.175 13.34 308.035 13.76V17H307.355V11.79H307.995V13.04C308.175 12.6733 308.412 12.3767 308.705 12.15C309.005 11.9233 309.322 11.7967 309.655 11.77C309.722 11.7633 309.779 11.76 309.825 11.76C309.879 11.76 309.922 11.7633 309.955 11.77V12.39ZM312.945 17.1C312.572 17.1 312.225 17.03 311.905 16.89C311.585 16.7433 311.309 16.5467 311.075 16.3C310.842 16.0467 310.659 15.7567 310.525 15.43C310.399 15.1033 310.335 14.7533 310.335 14.38C310.335 13.8933 310.445 13.4467 310.665 13.04C310.892 12.6333 311.202 12.31 311.595 12.07C311.989 11.8233 312.435 11.7 312.935 11.7C313.449 11.7 313.895 11.8233 314.275 12.07C314.662 12.3167 314.965 12.6433 315.185 13.05C315.405 13.45 315.515 13.89 315.515 14.37C315.515 14.4233 315.515 14.4767 315.515 14.53C315.515 14.5767 315.512 14.6133 315.505 14.64H311.045C311.079 15.0133 311.182 15.3467 311.355 15.64C311.535 15.9267 311.765 16.1567 312.045 16.33C312.332 16.4967 312.642 16.58 312.975 16.58C313.315 16.58 313.635 16.4933 313.935 16.32C314.242 16.1467 314.455 15.92 314.575 15.64L315.165 15.8C315.059 16.0467 314.895 16.27 314.675 16.47C314.455 16.67 314.195 16.8267 313.895 16.94C313.602 17.0467 313.285 17.1 312.945 17.1ZM311.025 14.15H314.875C314.849 13.77 314.745 13.4367 314.565 13.15C314.392 12.8633 314.162 12.64 313.875 12.48C313.595 12.3133 313.285 12.23 312.945 12.23C312.605 12.23 312.295 12.3133 312.015 12.48C311.735 12.64 311.505 12.8667 311.325 13.16C311.152 13.4467 311.052 13.7767 311.025 14.15Z" fill="#838282"/>
<circle cx="213" cy="13" r="4.5" stroke="#838282"/>
<line y1="-0.5" x2="3.39502" y2="-0.5" transform="matrix(0.697617 0.716471 -0.697617 0.716471 210.105 12.8652)" stroke="#838282"/>
<line y1="-0.5" x2="5.47803" y2="-0.5" transform="matrix(-0.672544 0.740058 -0.721907 -0.69199 216.158 11.2432)" stroke="#838282"/>
</g>
<defs>
<filter id="filter0_d_51_231" x="0" y="0" width="330" height="179" filterUnits="userSpaceOnUse" color-interpolation-filters="sRGB">
<feFlood flood-opacity="0" result="BackgroundImageFix"/>
<feColorMatrix in="SourceAlpha" type="matrix" values="0 0 0 0 0 0 0 0 0 0 0 0 0 0 0 0 0 0 127 0" result="hardAlpha"/>
<feOffset dy="4"/>
<feGaussianBlur stdDeviation="2"/>
<feComposite in2="hardAlpha" operator="out"/>
<feColorMatrix type="matrix" values="0 0 0 0 0 0 0 0 0 0 0 0 0 0 0 0 0 0 0.25 0"/>
<feBlend mode="normal" in2="BackgroundImageFix" result="effect1_dropShadow_51_231"/>
<feBlend mode="normal" in="SourceGraphic" in2="effect1_dropShadow_51_231" result="shape"/>
</filter>
<filter id="filter1_d_51_231" x="76.9321" y="54.2363" width="37.1357" height="35.8076" filterUnits="userSpaceOnUse" color-interpolation-filters="sRGB">
<feFlood flood-opacity="0" result="BackgroundImageFix"/>
<feColorMatrix in="SourceAlpha" type="matrix" values="0 0 0 0 0 0 0 0 0 0 0 0 0 0 0 0 0 0 127 0" result="hardAlpha"/>
<feOffset dy="4"/>
<feGaussianBlur stdDeviation="2"/>
<feComposite in2="hardAlpha" operator="out"/>
<feColorMatrix type="matrix" values="0 0 0 0 0 0 0 0 0 0 0 0 0 0 0 0 0 0 0.25 0"/>
<feBlend mode="normal" in2="BackgroundImageFix" result="effect1_dropShadow_51_231"/>
<feBlend mode="normal" in="SourceGraphic" in2="effect1_dropShadow_51_231" result="shape"/>
</filter>
<filter id="filter2_d_51_231" x="125.932" y="54.2363" width="37.1357" height="35.8076" filterUnits="userSpaceOnUse" color-interpolation-filters="sRGB">
<feFlood flood-opacity="0" result="BackgroundImageFix"/>
<feColorMatrix in="SourceAlpha" type="matrix" values="0 0 0 0 0 0 0 0 0 0 0 0 0 0 0 0 0 0 127 0" result="hardAlpha"/>
<feOffset dy="4"/>
<feGaussianBlur stdDeviation="2"/>
<feComposite in2="hardAlpha" operator="out"/>
<feColorMatrix type="matrix" values="0 0 0 0 0 0 0 0 0 0 0 0 0 0 0 0 0 0 0.25 0"/>
<feBlend mode="normal" in2="BackgroundImageFix" result="effect1_dropShadow_51_231"/>
<feBlend mode="normal" in="SourceGraphic" in2="effect1_dropShadow_51_231" result="shape"/>
</filter>
<filter id="filter3_d_51_231" x="171.932" y="54.2363" width="37.1357" height="35.8076" filterUnits="userSpaceOnUse" color-interpolation-filters="sRGB">
<feFlood flood-opacity="0" result="BackgroundImageFix"/>
<feColorMatrix in="SourceAlpha" type="matrix" values="0 0 0 0 0 0 0 0 0 0 0 0 0 0 0 0 0 0 127 0" result="hardAlpha"/>
<feOffset dy="4"/>
<feGaussianBlur stdDeviation="2"/>
<feComposite in2="hardAlpha" operator="out"/>
<feColorMatrix type="matrix" values="0 0 0 0 0 0 0 0 0 0 0 0 0 0 0 0 0 0 0.25 0"/>
<feBlend mode="normal" in2="BackgroundImageFix" result="effect1_dropShadow_51_231"/>
<feBlend mode="normal" in="SourceGraphic" in2="effect1_dropShadow_51_231" result="shape"/>
</filter>
<filter id="filter4_d_51_231" x="217.932" y="54.2363" width="37.1357" height="35.8076" filterUnits="userSpaceOnUse" color-interpolation-filters="sRGB">
<feFlood flood-opacity="0" result="BackgroundImageFix"/>
<feColorMatrix in="SourceAlpha" type="matrix" values="0 0 0 0 0 0 0 0 0 0 0 0 0 0 0 0 0 0 127 0" result="hardAlpha"/>
<feOffset dy="4"/>
<feGaussianBlur stdDeviation="2"/>
<feComposite in2="hardAlpha" operator="out"/>
<feColorMatrix type="matrix" values="0 0 0 0 0 0 0 0 0 0 0 0 0 0 0 0 0 0 0.25 0"/>
<feBlend mode="normal" in2="BackgroundImageFix" result="effect1_dropShadow_51_231"/>
<feBlend mode="normal" in="SourceGraphic" in2="effect1_dropShadow_51_231" result="shape"/>
</filter>
<filter id="filter5_d_51_231" x="27.9321" y="54.2363" width="37.1357" height="35.8076" filterUnits="userSpaceOnUse" color-interpolation-filters="sRGB">
<feFlood flood-opacity="0" result="BackgroundImageFix"/>
<feColorMatrix in="SourceAlpha" type="matrix" values="0 0 0 0 0 0 0 0 0 0 0 0 0 0 0 0 0 0 127 0" result="hardAlpha"/>
<feOffset dy="4"/>
<feGaussianBlur stdDeviation="2"/>
<feComposite in2="hardAlpha" operator="out"/>
<feColorMatrix type="matrix" values="0 0 0 0 0 0 0 0 0 0 0 0 0 0 0 0 0 0 0.25 0"/>
<feBlend mode="normal" in2="BackgroundImageFix" result="effect1_dropShadow_51_231"/>
<feBlend mode="normal" in="SourceGraphic" in2="effect1_dropShadow_51_231" result="shape"/>
</filter>
</defs>
</svg>
