<svg width="330" height="171" viewBox="0 0 330 171" fill="none" xmlns="http://www.w3.org/2000/svg">
<g filter="url(#filter0_d_51_289)">
<path d="M4 4C4 1.79086 5.79086 0 8 0H322C324.209 0 326 1.79086 326 4V136C326 138.209 324.209 140 322 140H8.00001C5.79087 140 4 138.209 4 136V4Z" fill="white"/>
<g filter="url(#filter1_d_51_289)">
<path d="M94.5489 54.927C94.8483 54.0057 96.1517 54.0057 96.4511 54.9271L99.2045 63.4012C99.3384 63.8132 99.7223 64.0922 100.156 64.0922L109.066 64.0922C110.035 64.0922 110.437 65.3318 109.654 65.9012L102.445 71.1385C102.095 71.3932 101.948 71.8446 102.082 72.2566L104.835 80.7308C105.135 81.6521 104.08 82.4182 103.296 81.8488L96.0878 76.6115C95.7373 76.3568 95.2627 76.3568 94.9122 76.6115L87.7037 81.8488C86.9199 82.4182 85.8655 81.6521 86.1648 80.7307L88.9182 72.2566C89.0521 71.8446 88.9055 71.3932 88.555 71.1385L81.3464 65.9012C80.5627 65.3318 80.9655 64.0922 81.9342 64.0922L90.8445 64.0922C91.2777 64.0922 91.6616 63.8132 91.7955 63.4012L94.5489 54.927Z" fill="#926B5A" fill-opacity="0.84" shape-rendering="crispEdges"/>
</g>
<g filter="url(#filter2_d_51_289)">
<path d="M143.549 54.927C143.848 54.0057 145.152 54.0057 145.451 54.9271L148.204 63.4012C148.338 63.8132 148.722 64.0922 149.156 64.0922L158.066 64.0922C159.035 64.0922 159.437 65.3318 158.654 65.9012L151.445 71.1385C151.095 71.3932 150.948 71.8446 151.082 72.2566L153.835 80.7308C154.135 81.6521 153.08 82.4182 152.296 81.8488L145.088 76.6115C144.737 76.3568 144.263 76.3568 143.912 76.6115L136.704 81.8488C135.92 82.4182 134.865 81.6521 135.165 80.7307L137.918 72.2566C138.052 71.8446 137.905 71.3932 137.555 71.1385L130.346 65.9012C129.563 65.3318 129.965 64.0922 130.934 64.0922L139.844 64.0922C140.278 64.0922 140.662 63.8132 140.796 63.4012L143.549 54.927Z" fill="#926B5A" fill-opacity="0.63" shape-rendering="crispEdges"/>
</g>
<g filter="url(#filter3_d_51_289)">
<path d="M189.549 54.927C189.848 54.0057 191.152 54.0057 191.451 54.9271L194.204 63.4012C194.338 63.8132 194.722 64.0922 195.156 64.0922L204.066 64.0922C205.035 64.0922 205.437 65.3318 204.654 65.9012L197.445 71.1385C197.095 71.3932 196.948 71.8446 197.082 72.2566L199.835 80.7308C200.135 81.6521 199.08 82.4182 198.296 81.8488L191.088 76.6115C190.737 76.3568 190.263 76.3568 189.912 76.6115L182.704 81.8488C181.92 82.4182 180.865 81.6521 181.165 80.7307L183.918 72.2566C184.052 71.8446 183.905 71.3932 183.555 71.1385L176.346 65.9012C175.563 65.3318 175.965 64.0922 176.934 64.0922L185.844 64.0922C186.278 64.0922 186.662 63.8132 186.796 63.4012L189.549 54.927Z" fill="#926B5A" fill-opacity="0.45" shape-rendering="crispEdges"/>
</g>
<g filter="url(#filter4_d_51_289)">
<path d="M235.549 54.927C235.848 54.0057 237.152 54.0057 237.451 54.9271L240.204 63.4012C240.338 63.8132 240.722 64.0922 241.156 64.0922L250.066 64.0922C251.035 64.0922 251.437 65.3318 250.654 65.9012L243.445 71.1385C243.095 71.3932 242.948 71.8446 243.082 72.2566L245.835 80.7308C246.135 81.6521 245.08 82.4182 244.296 81.8488L237.088 76.6115C236.737 76.3568 236.263 76.3568 235.912 76.6115L228.704 81.8488C227.92 82.4182 226.865 81.6521 227.165 80.7307L229.918 72.2566C230.052 71.8446 229.905 71.3932 229.555 71.1385L222.346 65.9012C221.563 65.3318 221.965 64.0922 222.934 64.0922L231.844 64.0922C232.278 64.0922 232.662 63.8132 232.796 63.4012L235.549 54.927Z" fill="#926B5A" fill-opacity="0.28" shape-rendering="crispEdges"/>
</g>
<g filter="url(#filter5_d_51_289)">
<path d="M45.5489 54.927C45.8483 54.0057 47.1517 54.0057 47.4511 54.9271L50.2045 63.4012C50.3384 63.8132 50.7223 64.0922 51.1555 64.0922L60.0658 64.0922C61.0345 64.0922 61.4373 65.3318 60.6536 65.9012L53.445 71.1385C53.0945 71.3932 52.9479 71.8446 53.0818 72.2566L55.8352 80.7308C56.1345 81.6521 55.0801 82.4182 54.2963 81.8488L47.0878 76.6115C46.7373 76.3568 46.2627 76.3568 45.9122 76.6115L38.7037 81.8488C37.9199 82.4182 36.8655 81.6521 37.1648 80.7307L39.9182 72.2566C40.0521 71.8446 39.9055 71.3932 39.555 71.1385L32.3464 65.9012C31.5627 65.3318 31.9655 64.0922 32.9342 64.0922L41.8445 64.0922C42.2777 64.0922 42.6616 63.8132 42.7955 63.4012L45.5489 54.927Z" fill="#926B5A"/>
</g>
<path d="M44.18 18.8H45.36L51.26 33H49.78L47.94 28.56H41.56L39.74 33H38.24L44.18 18.8ZM47.62 27.46L44.76 20.44L41.86 27.46H47.62ZM53.0756 18.4H54.4356V30.64C54.4356 31.16 54.529 31.5 54.7156 31.66C54.9023 31.82 55.129 31.9 55.3956 31.9C55.6356 31.9 55.8756 31.8733 56.1156 31.82C56.3556 31.7667 56.5623 31.7133 56.7356 31.66L56.9756 32.76C56.7223 32.8667 56.409 32.9533 56.0356 33.02C55.6756 33.0867 55.3623 33.12 55.0956 33.12C54.4823 33.12 53.989 32.94 53.6156 32.58C53.2556 32.22 53.0756 31.7267 53.0756 31.1V18.4ZM62.9648 33.2C62.2182 33.2 61.5248 33.06 60.8848 32.78C60.2448 32.4867 59.6915 32.0933 59.2248 31.6C58.7582 31.0933 58.3915 30.5133 58.1248 29.86C57.8715 29.2067 57.7448 28.5067 57.7448 27.76C57.7448 26.7867 57.9648 25.8933 58.4048 25.08C58.8582 24.2667 59.4782 23.62 60.2648 23.14C61.0515 22.6467 61.9448 22.4 62.9448 22.4C63.9715 22.4 64.8648 22.6467 65.6248 23.14C66.3982 23.6333 67.0048 24.2867 67.4448 25.1C67.8848 25.9 68.1048 26.78 68.1048 27.74C68.1048 27.8467 68.1048 27.9533 68.1048 28.06C68.1048 28.1533 68.0982 28.2267 68.0848 28.28H59.1648C59.2315 29.0267 59.4382 29.6933 59.7848 30.28C60.1448 30.8533 60.6048 31.3133 61.1648 31.66C61.7382 31.9933 62.3582 32.16 63.0248 32.16C63.7048 32.16 64.3448 31.9867 64.9448 31.64C65.5582 31.2933 65.9848 30.84 66.2248 30.28L67.4048 30.6C67.1915 31.0933 66.8648 31.54 66.4248 31.94C65.9848 32.34 65.4648 32.6533 64.8648 32.88C64.2782 33.0933 63.6448 33.2 62.9648 33.2ZM59.1248 27.3H66.8248C66.7715 26.54 66.5648 25.8733 66.2048 25.3C65.8582 24.7267 65.3982 24.28 64.8248 23.96C64.2648 23.6267 63.6448 23.46 62.9648 23.46C62.2848 23.46 61.6648 23.6267 61.1048 23.96C60.5448 24.28 60.0848 24.7333 59.7248 25.32C59.3782 25.8933 59.1782 26.5533 59.1248 27.3ZM70.1325 22.58L73.1925 26.66L73.3525 26.96L73.5125 26.66L76.5525 22.58H78.0925L74.1325 27.82L78.0925 33H76.5525L73.5125 28.94L73.3525 28.66L73.1925 28.94L70.1525 33H68.6125L72.5525 27.82L68.6125 22.58H70.1325Z" fill="black"/>
<path d="M39.488 106.632H35.44V117H34.32V106.632H30.272V105.64H39.488V106.632ZM42.7208 117.16C42.1234 117.16 41.5688 117.048 41.0568 116.824C40.5554 116.589 40.1181 116.275 39.7448 115.88C39.3821 115.475 39.0994 115.016 38.8968 114.504C38.6941 113.981 38.5928 113.432 38.5928 112.856C38.5928 112.259 38.6941 111.704 38.8968 111.192C39.0994 110.669 39.3874 110.211 39.7608 109.816C40.1341 109.411 40.5714 109.096 41.0728 108.872C41.5848 108.637 42.1394 108.52 42.7368 108.52C43.3341 108.52 43.8834 108.637 44.3848 108.872C44.8861 109.096 45.3234 109.411 45.6968 109.816C46.0701 110.211 46.3581 110.669 46.5608 111.192C46.7634 111.704 46.8648 112.259 46.8648 112.856C46.8648 113.432 46.7634 113.981 46.5608 114.504C46.3581 115.016 46.0701 115.475 45.6968 115.88C45.3341 116.275 44.8968 116.589 44.3848 116.824C43.8834 117.048 43.3288 117.16 42.7208 117.16ZM39.6968 112.872C39.6968 113.491 39.8301 114.056 40.0968 114.568C40.3741 115.069 40.7421 115.469 41.2008 115.768C41.6594 116.056 42.1661 116.2 42.7208 116.2C43.2754 116.2 43.7821 116.051 44.2408 115.752C44.6994 115.453 45.0674 115.048 45.3448 114.536C45.6221 114.013 45.7608 113.448 45.7608 112.84C45.7608 112.221 45.6221 111.656 45.3448 111.144C45.0674 110.632 44.6994 110.227 44.2408 109.928C43.7821 109.629 43.2754 109.48 42.7208 109.48C42.1661 109.48 41.6594 109.635 41.2008 109.944C40.7528 110.253 40.3901 110.664 40.1128 111.176C39.8354 111.677 39.6968 112.243 39.6968 112.872ZM52.9404 117.16C52.247 117.16 51.623 116.979 51.0684 116.616C50.5244 116.253 50.0924 115.805 49.7724 115.272V120.408H48.6844V108.664H49.6604V110.28C49.991 109.757 50.4337 109.336 50.9884 109.016C51.543 108.685 52.135 108.52 52.7644 108.52C53.3404 108.52 53.8684 108.643 54.3484 108.888C54.8284 109.123 55.2444 109.443 55.5964 109.848C55.9484 110.253 56.2204 110.717 56.4124 111.24C56.615 111.752 56.7164 112.285 56.7164 112.84C56.7164 113.619 56.5564 114.339 56.2364 115C55.927 115.651 55.4897 116.173 54.9244 116.568C54.359 116.963 53.6977 117.16 52.9404 117.16ZM52.6364 116.2C53.095 116.2 53.5057 116.109 53.8684 115.928C54.231 115.736 54.5404 115.48 54.7964 115.16C55.063 114.84 55.2657 114.483 55.4044 114.088C55.543 113.683 55.6124 113.267 55.6124 112.84C55.6124 112.392 55.5324 111.965 55.3724 111.56C55.223 111.155 55.0044 110.797 54.7164 110.488C54.4284 110.179 54.0977 109.933 53.7244 109.752C53.351 109.571 52.9457 109.48 52.5084 109.48C52.231 109.48 51.943 109.533 51.6444 109.64C51.3457 109.747 51.0577 109.901 50.7804 110.104C50.5137 110.296 50.2897 110.515 50.1084 110.76C49.927 111.005 49.815 111.267 49.7724 111.544V114.104C49.943 114.499 50.1724 114.856 50.4604 115.176C50.7484 115.485 51.079 115.736 51.4524 115.928C51.8364 116.109 52.231 116.2 52.6364 116.2ZM62.8154 117.16C62.122 117.16 61.498 116.979 60.9434 116.616C60.3994 116.253 59.9674 115.805 59.6474 115.272V120.408H58.5594V108.664H59.5354V110.28C59.866 109.757 60.3087 109.336 60.8634 109.016C61.418 108.685 62.01 108.52 62.6394 108.52C63.2154 108.52 63.7434 108.643 64.2234 108.888C64.7034 109.123 65.1194 109.443 65.4714 109.848C65.8234 110.253 66.0954 110.717 66.2874 111.24C66.49 111.752 66.5914 112.285 66.5914 112.84C66.5914 113.619 66.4314 114.339 66.1114 115C65.802 115.651 65.3647 116.173 64.7994 116.568C64.234 116.963 63.5727 117.16 62.8154 117.16ZM62.5114 116.2C62.97 116.2 63.3807 116.109 63.7434 115.928C64.106 115.736 64.4154 115.48 64.6714 115.16C64.938 114.84 65.1407 114.483 65.2794 114.088C65.418 113.683 65.4874 113.267 65.4874 112.84C65.4874 112.392 65.4074 111.965 65.2474 111.56C65.098 111.155 64.8794 110.797 64.5914 110.488C64.3034 110.179 63.9727 109.933 63.5994 109.752C63.226 109.571 62.8207 109.48 62.3834 109.48C62.106 109.48 61.818 109.533 61.5194 109.64C61.2207 109.747 60.9327 109.901 60.6554 110.104C60.3887 110.296 60.1647 110.515 59.9834 110.76C59.802 111.005 59.69 111.267 59.6474 111.544V114.104C59.818 114.499 60.0474 114.856 60.3354 115.176C60.6234 115.485 60.954 115.736 61.3274 115.928C61.7114 116.109 62.106 116.2 62.5114 116.2ZM72.0344 117.16C71.437 117.16 70.8824 117.048 70.3704 116.824C69.8584 116.589 69.4157 116.275 69.0424 115.88C68.669 115.475 68.3757 115.011 68.1624 114.488C67.9597 113.965 67.8584 113.405 67.8584 112.808C67.8584 112.029 68.0344 111.315 68.3864 110.664C68.749 110.013 69.245 109.496 69.8744 109.112C70.5037 108.717 71.2184 108.52 72.0184 108.52C72.8397 108.52 73.5544 108.717 74.1624 109.112C74.781 109.507 75.2664 110.029 75.6184 110.68C75.9704 111.32 76.1464 112.024 76.1464 112.792C76.1464 112.877 76.1464 112.963 76.1464 113.048C76.1464 113.123 76.141 113.181 76.1304 113.224H68.9944C69.0477 113.821 69.213 114.355 69.4904 114.824C69.7784 115.283 70.1464 115.651 70.5944 115.928C71.053 116.195 71.549 116.328 72.0824 116.328C72.6264 116.328 73.1384 116.189 73.6184 115.912C74.109 115.635 74.4504 115.272 74.6424 114.824L75.5864 115.08C75.4157 115.475 75.1544 115.832 74.8024 116.152C74.4504 116.472 74.0344 116.723 73.5544 116.904C73.085 117.075 72.5784 117.16 72.0344 117.16ZM68.9624 112.44H75.1224C75.0797 111.832 74.9144 111.299 74.6264 110.84C74.349 110.381 73.981 110.024 73.5224 109.768C73.0744 109.501 72.5784 109.368 72.0344 109.368C71.4904 109.368 70.9944 109.501 70.5464 109.768C70.0984 110.024 69.7304 110.387 69.4424 110.856C69.165 111.315 69.005 111.843 68.9624 112.44ZM84.833 117H83.745V112.344C83.745 111.363 83.601 110.648 83.313 110.2C83.025 109.741 82.5717 109.512 81.953 109.512C81.5263 109.512 81.105 109.619 80.689 109.832C80.273 110.035 79.905 110.317 79.585 110.68C79.2757 111.032 79.0517 111.437 78.913 111.896V117H77.825V108.664H78.817V110.552C79.041 110.147 79.3343 109.795 79.697 109.496C80.0597 109.187 80.4703 108.947 80.929 108.776C81.3877 108.605 81.8623 108.52 82.353 108.52C82.8117 108.52 83.201 108.605 83.521 108.776C83.841 108.947 84.097 109.192 84.289 109.512C84.481 109.821 84.6197 110.2 84.705 110.648C84.7903 111.085 84.833 111.576 84.833 112.12V117ZM87.4251 113.352V105.528H88.5131V113.352H87.4251ZM87.4251 117V115.208H88.5131V117H87.4251ZM91.4564 113.352V105.528H92.5444V113.352H91.4564ZM91.4564 117V115.208H92.5444V117H91.4564Z" fill="black"/>
<path d="M221.86 9.9L224.4 16.13L226.93 9.9H227.66L224.72 17H224.08L221.13 9.9H221.86ZM230.113 17.1C229.74 17.1 229.393 17.03 229.073 16.89C228.753 16.7433 228.477 16.5467 228.243 16.3C228.01 16.0467 227.827 15.7567 227.693 15.43C227.567 15.1033 227.503 14.7533 227.503 14.38C227.503 13.8933 227.613 13.4467 227.833 13.04C228.06 12.6333 228.37 12.31 228.763 12.07C229.157 11.8233 229.603 11.7 230.103 11.7C230.617 11.7 231.063 11.8233 231.443 12.07C231.83 12.3167 232.133 12.6433 232.353 13.05C232.573 13.45 232.683 13.89 232.683 14.37C232.683 14.4233 232.683 14.4767 232.683 14.53C232.683 14.5767 232.68 14.6133 232.673 14.64H228.213C228.247 15.0133 228.35 15.3467 228.523 15.64C228.703 15.9267 228.933 16.1567 229.213 16.33C229.5 16.4967 229.81 16.58 230.143 16.58C230.483 16.58 230.803 16.4933 231.103 16.32C231.41 16.1467 231.623 15.92 231.743 15.64L232.333 15.8C232.227 16.0467 232.063 16.27 231.843 16.47C231.623 16.67 231.363 16.8267 231.063 16.94C230.77 17.0467 230.453 17.1 230.113 17.1ZM228.193 14.15H232.043C232.017 13.77 231.913 13.4367 231.733 13.15C231.56 12.8633 231.33 12.64 231.043 12.48C230.763 12.3133 230.453 12.23 230.113 12.23C229.773 12.23 229.463 12.3133 229.183 12.48C228.903 12.64 228.673 12.8667 228.493 13.16C228.32 13.4467 228.22 13.7767 228.193 14.15ZM236.332 12.39C235.879 12.4033 235.479 12.53 235.132 12.77C234.792 13.01 234.552 13.34 234.412 13.76V17H233.732V11.79H234.372V13.04C234.552 12.6733 234.789 12.3767 235.082 12.15C235.382 11.9233 235.699 11.7967 236.032 11.77C236.099 11.7633 236.156 11.76 236.202 11.76C236.256 11.76 236.299 11.7633 236.332 11.77V12.39ZM237.238 17V11.79H237.918V17H237.238ZM237.238 10.7V9.7H237.918V10.7H237.238ZM239.666 12.33H238.946V11.79H239.666V11.65C239.666 11.4033 239.703 11.16 239.776 10.92C239.849 10.68 239.959 10.46 240.106 10.26C240.259 10.06 240.449 9.9 240.676 9.78C240.909 9.66 241.186 9.6 241.506 9.6C241.753 9.6 241.973 9.62667 242.166 9.68C242.366 9.73333 242.539 9.79667 242.686 9.87C242.833 9.94333 242.943 10.01 243.016 10.07L242.706 10.56C242.599 10.46 242.439 10.3767 242.226 10.31C242.019 10.2367 241.793 10.2 241.546 10.2C241.266 10.2 241.036 10.2733 240.856 10.42C240.683 10.56 240.553 10.74 240.466 10.96C240.386 11.18 240.346 11.4033 240.346 11.63V11.79H242.956V17H242.276V12.33H240.346V17H239.666V12.33ZM246.705 17.1C246.332 17.1 245.985 17.03 245.665 16.89C245.345 16.7433 245.068 16.5467 244.835 16.3C244.602 16.0467 244.418 15.7567 244.285 15.43C244.158 15.1033 244.095 14.7533 244.095 14.38C244.095 13.8933 244.205 13.4467 244.425 13.04C244.652 12.6333 244.962 12.31 245.355 12.07C245.748 11.8233 246.195 11.7 246.695 11.7C247.208 11.7 247.655 11.8233 248.035 12.07C248.422 12.3167 248.725 12.6433 248.945 13.05C249.165 13.45 249.275 13.89 249.275 14.37C249.275 14.4233 249.275 14.4767 249.275 14.53C249.275 14.5767 249.272 14.6133 249.265 14.64H244.805C244.838 15.0133 244.942 15.3467 245.115 15.64C245.295 15.9267 245.525 16.1567 245.805 16.33C246.092 16.4967 246.402 16.58 246.735 16.58C247.075 16.58 247.395 16.4933 247.695 16.32C248.002 16.1467 248.215 15.92 248.335 15.64L248.925 15.8C248.818 16.0467 248.655 16.27 248.435 16.47C248.215 16.67 247.955 16.8267 247.655 16.94C247.362 17.0467 247.045 17.1 246.705 17.1ZM244.785 14.15H248.635C248.608 13.77 248.505 13.4367 248.325 13.15C248.152 12.8633 247.922 12.64 247.635 12.48C247.355 12.3133 247.045 12.23 246.705 12.23C246.365 12.23 246.055 12.3133 245.775 12.48C245.495 12.64 245.265 12.8667 245.085 13.16C244.912 13.4467 244.812 13.7767 244.785 14.15ZM252.924 12.39C252.471 12.4033 252.071 12.53 251.724 12.77C251.384 13.01 251.144 13.34 251.004 13.76V17H250.324V11.79H250.964V13.04C251.144 12.6733 251.381 12.3767 251.674 12.15C251.974 11.9233 252.291 11.7967 252.624 11.77C252.691 11.7633 252.748 11.76 252.794 11.76C252.848 11.76 252.891 11.7633 252.924 11.77V12.39ZM253.391 15.5C253.391 15.1733 253.484 14.8933 253.671 14.66C253.857 14.42 254.114 14.2367 254.441 14.11C254.774 13.9767 255.157 13.91 255.591 13.91C255.844 13.91 256.107 13.93 256.381 13.97C256.654 14.01 256.897 14.07 257.111 14.15V13.71C257.111 13.27 256.981 12.92 256.721 12.66C256.461 12.4 256.101 12.27 255.641 12.27C255.361 12.27 255.084 12.3233 254.811 12.43C254.544 12.53 254.264 12.68 253.971 12.88L253.711 12.4C254.051 12.1667 254.384 11.9933 254.711 11.88C255.037 11.76 255.371 11.7 255.711 11.7C256.351 11.7 256.857 11.8833 257.231 12.25C257.604 12.6167 257.791 13.1233 257.791 13.77V16.18C257.791 16.2733 257.811 16.3433 257.851 16.39C257.891 16.43 257.954 16.4533 258.041 16.46V17C257.967 17.0067 257.904 17.0133 257.851 17.02C257.797 17.0267 257.757 17.0267 257.731 17.02C257.564 17.0133 257.437 16.96 257.351 16.86C257.264 16.76 257.217 16.6533 257.211 16.54L257.201 16.16C256.967 16.46 256.664 16.6933 256.291 16.86C255.917 17.02 255.537 17.1 255.151 17.1C254.817 17.1 254.514 17.03 254.241 16.89C253.974 16.7433 253.764 16.55 253.611 16.31C253.464 16.0633 253.391 15.7933 253.391 15.5ZM256.881 15.9C256.954 15.8067 257.011 15.7167 257.051 15.63C257.091 15.5433 257.111 15.4667 257.111 15.4V14.64C256.884 14.5533 256.647 14.4867 256.401 14.44C256.161 14.3933 255.917 14.37 255.671 14.37C255.184 14.37 254.791 14.4667 254.491 14.66C254.191 14.8533 254.041 15.1167 254.041 15.45C254.041 15.6433 254.091 15.8267 254.191 16C254.291 16.1667 254.437 16.3067 254.631 16.42C254.824 16.5267 255.051 16.58 255.311 16.58C255.637 16.58 255.941 16.5167 256.221 16.39C256.507 16.2633 256.727 16.1 256.881 15.9ZM258.91 14.41C258.91 13.9167 259.01 13.4667 259.21 13.06C259.416 12.6467 259.7 12.3167 260.06 12.07C260.42 11.8233 260.83 11.7 261.29 11.7C261.723 11.7 262.11 11.8167 262.45 12.05C262.796 12.2767 263.066 12.5533 263.26 12.88V9.7H263.94V16.18C263.94 16.2733 263.96 16.3433 264 16.39C264.04 16.43 264.1 16.4533 264.18 16.46V17C264.046 17.02 263.943 17.0267 263.87 17.02C263.73 17.0133 263.606 16.9567 263.5 16.85C263.393 16.7433 263.34 16.6267 263.34 16.5V15.99C263.133 16.33 262.853 16.6 262.5 16.8C262.146 17 261.78 17.1 261.4 17.1C261.04 17.1 260.706 17.0267 260.4 16.88C260.1 16.7333 259.836 16.5333 259.61 16.28C259.39 16.0267 259.216 15.74 259.09 15.42C258.97 15.0933 258.91 14.7567 258.91 14.41ZM263.26 15.21V13.6C263.173 13.36 263.033 13.1433 262.84 12.95C262.646 12.75 262.426 12.5933 262.18 12.48C261.94 12.36 261.7 12.3 261.46 12.3C261.18 12.3 260.926 12.36 260.7 12.48C260.473 12.5933 260.276 12.75 260.11 12.95C259.95 13.15 259.826 13.3767 259.74 13.63C259.653 13.8833 259.61 14.1433 259.61 14.41C259.61 14.69 259.656 14.9567 259.75 15.21C259.85 15.4633 259.99 15.69 260.17 15.89C260.35 16.0833 260.556 16.2333 260.79 16.34C261.023 16.4467 261.276 16.5 261.55 16.5C261.723 16.5 261.903 16.4667 262.09 16.4C262.276 16.3333 262.453 16.2433 262.62 16.13C262.793 16.01 262.936 15.87 263.05 15.71C263.163 15.55 263.233 15.3833 263.26 15.21ZM267.609 15.5C267.609 15.1733 267.703 14.8933 267.889 14.66C268.076 14.42 268.333 14.2367 268.659 14.11C268.993 13.9767 269.376 13.91 269.809 13.91C270.063 13.91 270.326 13.93 270.599 13.97C270.873 14.01 271.116 14.07 271.329 14.15V13.71C271.329 13.27 271.199 12.92 270.939 12.66C270.679 12.4 270.319 12.27 269.859 12.27C269.579 12.27 269.303 12.3233 269.029 12.43C268.763 12.53 268.483 12.68 268.189 12.88L267.929 12.4C268.269 12.1667 268.603 11.9933 268.929 11.88C269.256 11.76 269.589 11.7 269.929 11.7C270.569 11.7 271.076 11.8833 271.449 12.25C271.823 12.6167 272.009 13.1233 272.009 13.77V16.18C272.009 16.2733 272.029 16.3433 272.069 16.39C272.109 16.43 272.173 16.4533 272.259 16.46V17C272.186 17.0067 272.123 17.0133 272.069 17.02C272.016 17.0267 271.976 17.0267 271.949 17.02C271.783 17.0133 271.656 16.96 271.569 16.86C271.483 16.76 271.436 16.6533 271.429 16.54L271.419 16.16C271.186 16.46 270.883 16.6933 270.509 16.86C270.136 17.02 269.756 17.1 269.369 17.1C269.036 17.1 268.733 17.03 268.459 16.89C268.193 16.7433 267.983 16.55 267.829 16.31C267.683 16.0633 267.609 15.7933 267.609 15.5ZM271.099 15.9C271.173 15.8067 271.229 15.7167 271.269 15.63C271.309 15.5433 271.329 15.4667 271.329 15.4V14.64C271.103 14.5533 270.866 14.4867 270.619 14.44C270.379 14.3933 270.136 14.37 269.889 14.37C269.403 14.37 269.009 14.4667 268.709 14.66C268.409 14.8533 268.259 15.1167 268.259 15.45C268.259 15.6433 268.309 15.8267 268.409 16C268.509 16.1667 268.656 16.3067 268.849 16.42C269.043 16.5267 269.269 16.58 269.529 16.58C269.856 16.58 270.159 16.5167 270.439 16.39C270.726 16.2633 270.946 16.1 271.099 15.9ZM277.859 17H277.179V14.09C277.179 13.4767 277.089 13.03 276.909 12.75C276.729 12.4633 276.445 12.32 276.059 12.32C275.792 12.32 275.529 12.3867 275.269 12.52C275.009 12.6467 274.779 12.8233 274.579 13.05C274.385 13.27 274.245 13.5233 274.159 13.81V17H273.479V11.79H274.099V12.97C274.239 12.7167 274.422 12.4967 274.649 12.31C274.875 12.1167 275.132 11.9667 275.419 11.86C275.705 11.7533 276.002 11.7 276.309 11.7C276.595 11.7 276.839 11.7533 277.039 11.86C277.239 11.9667 277.399 12.12 277.519 12.32C277.639 12.5133 277.725 12.75 277.779 13.03C277.832 13.3033 277.859 13.61 277.859 13.95V17ZM280.751 17L278.641 11.79H279.351L281.131 16.32L282.921 11.79H283.591L281.481 17H280.751ZM283.986 15.5C283.986 15.1733 284.08 14.8933 284.266 14.66C284.453 14.42 284.71 14.2367 285.036 14.11C285.37 13.9767 285.753 13.91 286.186 13.91C286.44 13.91 286.703 13.93 286.976 13.97C287.25 14.01 287.493 14.07 287.706 14.15V13.71C287.706 13.27 287.576 12.92 287.316 12.66C287.056 12.4 286.696 12.27 286.236 12.27C285.956 12.27 285.68 12.3233 285.406 12.43C285.14 12.53 284.86 12.68 284.566 12.88L284.306 12.4C284.646 12.1667 284.98 11.9933 285.306 11.88C285.633 11.76 285.966 11.7 286.306 11.7C286.946 11.7 287.453 11.8833 287.826 12.25C288.2 12.6167 288.386 13.1233 288.386 13.77V16.18C288.386 16.2733 288.406 16.3433 288.446 16.39C288.486 16.43 288.55 16.4533 288.636 16.46V17C288.563 17.0067 288.5 17.0133 288.446 17.02C288.393 17.0267 288.353 17.0267 288.326 17.02C288.16 17.0133 288.033 16.96 287.946 16.86C287.86 16.76 287.813 16.6533 287.806 16.54L287.796 16.16C287.563 16.46 287.26 16.6933 286.886 16.86C286.513 17.02 286.133 17.1 285.746 17.1C285.413 17.1 285.11 17.03 284.836 16.89C284.57 16.7433 284.36 16.55 284.206 16.31C284.06 16.0633 283.986 15.7933 283.986 15.5ZM287.476 15.9C287.55 15.8067 287.606 15.7167 287.646 15.63C287.686 15.5433 287.706 15.4667 287.706 15.4V14.64C287.48 14.5533 287.243 14.4867 286.996 14.44C286.756 14.3933 286.513 14.37 286.266 14.37C285.78 14.37 285.386 14.4667 285.086 14.66C284.786 14.8533 284.636 15.1167 284.636 15.45C284.636 15.6433 284.686 15.8267 284.786 16C284.886 16.1667 285.033 16.3067 285.226 16.42C285.42 16.5267 285.646 16.58 285.906 16.58C286.233 16.58 286.536 16.5167 286.816 16.39C287.103 16.2633 287.323 16.1 287.476 15.9ZM285.256 10.66V9.72H285.836V10.66H285.256ZM286.746 10.66V9.72H287.326V10.66H286.746ZM294.235 17H293.555V14.09C293.555 13.4767 293.465 13.03 293.285 12.75C293.105 12.4633 292.822 12.32 292.435 12.32C292.169 12.32 291.905 12.3867 291.645 12.52C291.385 12.6467 291.155 12.8233 290.955 13.05C290.762 13.27 290.622 13.5233 290.535 13.81V17H289.855V11.79H290.475V12.97C290.615 12.7167 290.799 12.4967 291.025 12.31C291.252 12.1167 291.509 11.9667 291.795 11.86C292.082 11.7533 292.379 11.7 292.685 11.7C292.972 11.7 293.215 11.7533 293.415 11.86C293.615 11.9667 293.775 12.12 293.895 12.32C294.015 12.5133 294.102 12.75 294.155 13.03C294.209 13.3033 294.235 13.61 294.235 13.95V17ZM295.336 14.41C295.336 13.9167 295.436 13.4667 295.636 13.06C295.842 12.6467 296.126 12.3167 296.486 12.07C296.846 11.8233 297.256 11.7 297.716 11.7C298.149 11.7 298.536 11.8167 298.876 12.05C299.222 12.2767 299.492 12.5533 299.686 12.88V9.7H300.366V16.18C300.366 16.2733 300.386 16.3433 300.426 16.39C300.466 16.43 300.526 16.4533 300.606 16.46V17C300.472 17.02 300.369 17.0267 300.296 17.02C300.156 17.0133 300.032 16.9567 299.926 16.85C299.819 16.7433 299.766 16.6267 299.766 16.5V15.99C299.559 16.33 299.279 16.6 298.926 16.8C298.572 17 298.206 17.1 297.826 17.1C297.466 17.1 297.132 17.0267 296.826 16.88C296.526 16.7333 296.262 16.5333 296.036 16.28C295.816 16.0267 295.642 15.74 295.516 15.42C295.396 15.0933 295.336 14.7567 295.336 14.41ZM299.686 15.21V13.6C299.599 13.36 299.459 13.1433 299.266 12.95C299.072 12.75 298.852 12.5933 298.606 12.48C298.366 12.36 298.126 12.3 297.886 12.3C297.606 12.3 297.352 12.36 297.126 12.48C296.899 12.5933 296.702 12.75 296.536 12.95C296.376 13.15 296.252 13.3767 296.166 13.63C296.079 13.8833 296.036 14.1433 296.036 14.41C296.036 14.69 296.082 14.9567 296.176 15.21C296.276 15.4633 296.416 15.69 296.596 15.89C296.776 16.0833 296.982 16.2333 297.216 16.34C297.449 16.4467 297.702 16.5 297.976 16.5C298.149 16.5 298.329 16.4667 298.516 16.4C298.702 16.3333 298.879 16.2433 299.046 16.13C299.219 16.01 299.362 15.87 299.476 15.71C299.589 15.55 299.659 15.3833 299.686 15.21ZM301.486 15.5C301.486 15.1733 301.58 14.8933 301.766 14.66C301.953 14.42 302.21 14.2367 302.536 14.11C302.87 13.9767 303.253 13.91 303.686 13.91C303.94 13.91 304.203 13.93 304.476 13.97C304.75 14.01 304.993 14.07 305.206 14.15V13.71C305.206 13.27 305.076 12.92 304.816 12.66C304.556 12.4 304.196 12.27 303.736 12.27C303.456 12.27 303.18 12.3233 302.906 12.43C302.64 12.53 302.36 12.68 302.066 12.88L301.806 12.4C302.146 12.1667 302.48 11.9933 302.806 11.88C303.133 11.76 303.466 11.7 303.806 11.7C304.446 11.7 304.953 11.8833 305.326 12.25C305.7 12.6167 305.886 13.1233 305.886 13.77V16.18C305.886 16.2733 305.906 16.3433 305.946 16.39C305.986 16.43 306.05 16.4533 306.136 16.46V17C306.063 17.0067 306 17.0133 305.946 17.02C305.893 17.0267 305.853 17.0267 305.826 17.02C305.66 17.0133 305.533 16.96 305.446 16.86C305.36 16.76 305.313 16.6533 305.306 16.54L305.296 16.16C305.063 16.46 304.76 16.6933 304.386 16.86C304.013 17.02 303.633 17.1 303.246 17.1C302.913 17.1 302.61 17.03 302.336 16.89C302.07 16.7433 301.86 16.55 301.706 16.31C301.56 16.0633 301.486 15.7933 301.486 15.5ZM304.976 15.9C305.05 15.8067 305.106 15.7167 305.146 15.63C305.186 15.5433 305.206 15.4667 305.206 15.4V14.64C304.98 14.5533 304.743 14.4867 304.496 14.44C304.256 14.3933 304.013 14.37 303.766 14.37C303.28 14.37 302.886 14.4667 302.586 14.66C302.286 14.8533 302.136 15.1167 302.136 15.45C302.136 15.6433 302.186 15.8267 302.286 16C302.386 16.1667 302.533 16.3067 302.726 16.42C302.92 16.5267 303.146 16.58 303.406 16.58C303.733 16.58 304.036 16.5167 304.316 16.39C304.603 16.2633 304.823 16.1 304.976 15.9ZM309.955 12.39C309.502 12.4033 309.102 12.53 308.755 12.77C308.415 13.01 308.175 13.34 308.035 13.76V17H307.355V11.79H307.995V13.04C308.175 12.6733 308.412 12.3767 308.705 12.15C309.005 11.9233 309.322 11.7967 309.655 11.77C309.722 11.7633 309.779 11.76 309.825 11.76C309.879 11.76 309.922 11.7633 309.955 11.77V12.39ZM312.945 17.1C312.572 17.1 312.225 17.03 311.905 16.89C311.585 16.7433 311.309 16.5467 311.075 16.3C310.842 16.0467 310.659 15.7567 310.525 15.43C310.399 15.1033 310.335 14.7533 310.335 14.38C310.335 13.8933 310.445 13.4467 310.665 13.04C310.892 12.6333 311.202 12.31 311.595 12.07C311.989 11.8233 312.435 11.7 312.935 11.7C313.449 11.7 313.895 11.8233 314.275 12.07C314.662 12.3167 314.965 12.6433 315.185 13.05C315.405 13.45 315.515 13.89 315.515 14.37C315.515 14.4233 315.515 14.4767 315.515 14.53C315.515 14.5767 315.512 14.6133 315.505 14.64H311.045C311.079 15.0133 311.182 15.3467 311.355 15.64C311.535 15.9267 311.765 16.1567 312.045 16.33C312.332 16.4967 312.642 16.58 312.975 16.58C313.315 16.58 313.635 16.4933 313.935 16.32C314.242 16.1467 314.455 15.92 314.575 15.64L315.165 15.8C315.059 16.0467 314.895 16.27 314.675 16.47C314.455 16.67 314.195 16.8267 313.895 16.94C313.602 17.0467 313.285 17.1 312.945 17.1ZM311.025 14.15H314.875C314.849 13.77 314.745 13.4367 314.565 13.15C314.392 12.8633 314.162 12.64 313.875 12.48C313.595 12.3133 313.285 12.23 312.945 12.23C312.605 12.23 312.295 12.3133 312.015 12.48C311.735 12.64 311.505 12.8667 311.325 13.16C311.152 13.4467 311.052 13.7767 311.025 14.15Z" fill="#838282"/>
<circle cx="213" cy="13" r="4.5" stroke="#838282"/>
<line y1="-0.5" x2="3.39502" y2="-0.5" transform="matrix(0.697617 0.716471 -0.697617 0.716471 210.105 12.8652)" stroke="#838282"/>
<line y1="-0.5" x2="5.47803" y2="-0.5" transform="matrix(-0.672544 0.740058 -0.721907 -0.69199 216.158 11.2432)" stroke="#838282"/>
</g>
<defs>
<filter id="filter0_d_51_289" x="0" y="0" width="330" height="179" filterUnits="userSpaceOnUse" color-interpolation-filters="sRGB">
<feFlood flood-opacity="0" result="BackgroundImageFix"/>
<feColorMatrix in="SourceAlpha" type="matrix" values="0 0 0 0 0 0 0 0 0 0 0 0 0 0 0 0 0 0 127 0" result="hardAlpha"/>
<feOffset dy="4"/>
<feGaussianBlur stdDeviation="2"/>
<feComposite in2="hardAlpha" operator="out"/>
<feColorMatrix type="matrix" values="0 0 0 0 0 0 0 0 0 0 0 0 0 0 0 0 0 0 0.25 0"/>
<feBlend mode="normal" in2="BackgroundImageFix" result="effect1_dropShadow_51_289"/>
<feBlend mode="normal" in="SourceGraphic" in2="effect1_dropShadow_51_289" result="shape"/>
</filter>
<filter id="filter1_d_51_289" x="76.9321" y="54.2363" width="37.1357" height="35.8076" filterUnits="userSpaceOnUse" color-interpolation-filters="sRGB">
<feFlood flood-opacity="0" result="BackgroundImageFix"/>
<feColorMatrix in="SourceAlpha" type="matrix" values="0 0 0 0 0 0 0 0 0 0 0 0 0 0 0 0 0 0 127 0" result="hardAlpha"/>
<feOffset dy="4"/>
<feGaussianBlur stdDeviation="2"/>
<feComposite in2="hardAlpha" operator="out"/>
<feColorMatrix type="matrix" values="0 0 0 0 0 0 0 0 0 0 0 0 0 0 0 0 0 0 0.25 0"/>
<feBlend mode="normal" in2="BackgroundImageFix" result="effect1_dropShadow_51_289"/>
<feBlend mode="normal" in="SourceGraphic" in2="effect1_dropShadow_51_289" result="shape"/>
</filter>
<filter id="filter2_d_51_289" x="125.932" y="54.2363" width="37.1357" height="35.8076" filterUnits="userSpaceOnUse" color-interpolation-filters="sRGB">
<feFlood flood-opacity="0" result="BackgroundImageFix"/>
<feColorMatrix in="SourceAlpha" type="matrix" values="0 0 0 0 0 0 0 0 0 0 0 0 0 0 0 0 0 0 127 0" result="hardAlpha"/>
<feOffset dy="4"/>
<feGaussianBlur stdDeviation="2"/>
<feComposite in2="hardAlpha" operator="out"/>
<feColorMatrix type="matrix" values="0 0 0 0 0 0 0 0 0 0 0 0 0 0 0 0 0 0 0.25 0"/>
<feBlend mode="normal" in2="BackgroundImageFix" result="effect1_dropShadow_51_289"/>
<feBlend mode="normal" in="SourceGraphic" in2="effect1_dropShadow_51_289" result="shape"/>
</filter>
<filter id="filter3_d_51_289" x="171.932" y="54.2363" width="37.1357" height="35.8076" filterUnits="userSpaceOnUse" color-interpolation-filters="sRGB">
<feFlood flood-opacity="0" result="BackgroundImageFix"/>
<feColorMatrix in="SourceAlpha" type="matrix" values="0 0 0 0 0 0 0 0 0 0 0 0 0 0 0 0 0 0 127 0" result="hardAlpha"/>
<feOffset dy="4"/>
<feGaussianBlur stdDeviation="2"/>
<feComposite in2="hardAlpha" operator="out"/>
<feColorMatrix type="matrix" values="0 0 0 0 0 0 0 0 0 0 0 0 0 0 0 0 0 0 0.25 0"/>
<feBlend mode="normal" in2="BackgroundImageFix" result="effect1_dropShadow_51_289"/>
<feBlend mode="normal" in="SourceGraphic" in2="effect1_dropShadow_51_289" result="shape"/>
</filter>
<filter id="filter4_d_51_289" x="217.932" y="54.2363" width="37.1357" height="35.8076" filterUnits="userSpaceOnUse" color-interpolation-filters="sRGB">
<feFlood flood-opacity="0" result="BackgroundImageFix"/>
<feColorMatrix in="SourceAlpha" type="matrix" values="0 0 0 0 0 0 0 0 0 0 0 0 0 0 0 0 0 0 127 0" result="hardAlpha"/>
<feOffset dy="4"/>
<feGaussianBlur stdDeviation="2"/>
<feComposite in2="hardAlpha" operator="out"/>
<feColorMatrix type="matrix" values="0 0 0 0 0 0 0 0 0 0 0 0 0 0 0 0 0 0 0.25 0"/>
<feBlend mode="normal" in2="BackgroundImageFix" result="effect1_dropShadow_51_289"/>
<feBlend mode="normal" in="SourceGraphic" in2="effect1_dropShadow_51_289" result="shape"/>
</filter>
<filter id="filter5_d_51_289" x="27.9321" y="54.2363" width="37.1357" height="35.8076" filterUnits="userSpaceOnUse" color-interpolation-filters="sRGB">
<feFlood flood-opacity="0" result="BackgroundImageFix"/>
<feColorMatrix in="SourceAlpha" type="matrix" values="0 0 0 0 0 0 0 0 0 0 0 0 0 0 0 0 0 0 127 0" result="hardAlpha"/>
<feOffset dy="4"/>
<feGaussianBlur stdDeviation="2"/>
<feComposite in2="hardAlpha" operator="out"/>
<feColorMatrix type="matrix" values="0 0 0 0 0 0 0 0 0 0 0 0 0 0 0 0 0 0 0.25 0"/>
<feBlend mode="normal" in2="BackgroundImageFix" result="effect1_dropShadow_51_289"/>
<feBlend mode="normal" in="SourceGraphic" in2="effect1_dropShadow_51_289" result="shape"/>
</filter>
</defs>
</svg>
