<svg width="330" height="171" viewBox="0 0 330 171" fill="none" xmlns="http://www.w3.org/2000/svg">
<g filter="url(#filter0_d_60_424)">
<path d="M4 4C4 1.79086 5.79086 0 8 0H322C324.209 0 326 1.79086 326 4V136C326 138.209 324.209 140 322 140H8.00001C5.79087 140 4 138.209 4 136V4Z" fill="white"/>
<path d="M39.78 33V18.82H41.18V27.06L49 18.8H50.54L44.74 25.04L50.84 33H49.26L43.84 25.88L41.18 28.64V33H39.78ZM57.5516 23.78C56.6449 23.8067 55.8449 24.06 55.1516 24.54C54.4716 25.02 53.9916 25.68 53.7116 26.52V33H52.3516V22.58H53.6316V25.08C53.9916 24.3467 54.4649 23.7533 55.0516 23.3C55.6516 22.8467 56.2849 22.5933 56.9516 22.54C57.0849 22.5267 57.1982 22.52 57.2916 22.52C57.3982 22.52 57.4849 22.5267 57.5516 22.54V23.78ZM59.3633 33V22.58H60.7233V33H59.3633ZM59.3633 20.4V18.4H60.7233V20.4H59.3633ZM67.1388 33.2C66.2854 33.2 65.4921 33.06 64.7588 32.78C64.0254 32.5 63.3921 32.0733 62.8588 31.5L63.4188 30.54C64.0054 31.0867 64.5921 31.4867 65.1788 31.74C65.7788 31.98 66.4121 32.1 67.0788 32.1C67.8921 32.1 68.5521 31.94 69.0588 31.62C69.5654 31.2867 69.8188 30.8133 69.8188 30.2C69.8188 29.7867 69.6921 29.4733 69.4388 29.26C69.1988 29.0333 68.8454 28.8533 68.3788 28.72C67.9254 28.5733 67.3788 28.42 66.7388 28.26C66.0188 28.06 65.4121 27.8533 64.9188 27.64C64.4388 27.4133 64.0721 27.1333 63.8188 26.8C63.5788 26.4533 63.4588 26.0067 63.4588 25.46C63.4588 24.78 63.6254 24.22 63.9588 23.78C64.3054 23.3267 64.7721 22.9867 65.3588 22.76C65.9588 22.52 66.6254 22.4 67.3587 22.4C68.1588 22.4 68.8654 22.5267 69.4788 22.78C70.0921 23.0333 70.5921 23.3867 70.9788 23.84L70.3188 24.76C69.9454 24.3333 69.4988 24.02 68.9788 23.82C68.4721 23.6067 67.9054 23.5 67.2788 23.5C66.8521 23.5 66.4454 23.56 66.0588 23.68C65.6721 23.7867 65.3521 23.9733 65.0988 24.24C64.8588 24.4933 64.7388 24.8467 64.7388 25.3C64.7388 25.6733 64.8321 25.9667 65.0188 26.18C65.2054 26.38 65.4854 26.5533 65.8588 26.7C66.2321 26.8333 66.6921 26.98 67.2388 27.14C68.0254 27.3533 68.7121 27.5733 69.2988 27.8C69.8854 28.0133 70.3388 28.2933 70.6588 28.64C70.9788 28.9867 71.1388 29.4733 71.1388 30.1C71.1388 31.0733 70.7721 31.8333 70.0388 32.38C69.3054 32.9267 68.3388 33.2 67.1388 33.2ZM78.3867 32.5C78.2801 32.54 78.1134 32.6133 77.8867 32.72C77.6601 32.8267 77.3867 32.92 77.0667 33C76.7467 33.08 76.4001 33.12 76.0267 33.12C75.6401 33.12 75.2734 33.0467 74.9267 32.9C74.5934 32.7533 74.3267 32.5333 74.1267 32.24C73.9267 31.9333 73.8267 31.56 73.8267 31.12V23.66H72.3867V22.58H73.8267V19.06H75.1867V22.58H77.5867V23.66H75.1867V30.74C75.2134 31.1133 75.3467 31.3933 75.5867 31.58C75.8401 31.7667 76.1267 31.86 76.4467 31.86C76.8201 31.86 77.1601 31.8 77.4667 31.68C77.7734 31.5467 77.9601 31.4533 78.0267 31.4L78.3867 32.5ZM80.0859 33V22.58H81.4459V33H80.0859ZM80.0859 20.4V18.4H81.4459V20.4H80.0859ZM83.6014 30C83.6014 29.3467 83.7881 28.7867 84.1614 28.32C84.5347 27.84 85.0481 27.4733 85.7014 27.22C86.3681 26.9533 87.1347 26.82 88.0014 26.82C88.5081 26.82 89.0347 26.86 89.5814 26.94C90.1281 27.02 90.6147 27.14 91.0414 27.3V26.42C91.0414 25.54 90.7814 24.84 90.2614 24.32C89.7414 23.8 89.0214 23.54 88.1014 23.54C87.5414 23.54 86.9881 23.6467 86.4414 23.86C85.9081 24.06 85.3481 24.36 84.7614 24.76L84.2414 23.8C84.9214 23.3333 85.5881 22.9867 86.2414 22.76C86.8947 22.52 87.5614 22.4 88.2414 22.4C89.5214 22.4 90.5347 22.7667 91.2814 23.5C92.0281 24.2333 92.4014 25.2467 92.4014 26.54V31.36C92.4014 31.5467 92.4414 31.6867 92.5214 31.78C92.6014 31.86 92.7281 31.9067 92.9014 31.92V33C92.7547 33.0133 92.6281 33.0267 92.5214 33.04C92.4147 33.0533 92.3347 33.0533 92.2814 33.04C91.9481 33.0267 91.6947 32.92 91.5214 32.72C91.3481 32.52 91.2547 32.3067 91.2414 32.08L91.2214 31.32C90.7547 31.92 90.1481 32.3867 89.4014 32.72C88.6547 33.04 87.8947 33.2 87.1214 33.2C86.4547 33.2 85.8481 33.06 85.3014 32.78C84.7681 32.4867 84.3481 32.1 84.0414 31.62C83.7481 31.1267 83.6014 30.5867 83.6014 30ZM90.5814 30.8C90.7281 30.6133 90.8414 30.4333 90.9214 30.26C91.0014 30.0867 91.0414 29.9333 91.0414 29.8V28.28C90.5881 28.1067 90.1147 27.9733 89.6214 27.88C89.1414 27.7867 88.6547 27.74 88.1614 27.74C87.1881 27.74 86.4014 27.9333 85.8014 28.32C85.2014 28.7067 84.9014 29.2333 84.9014 29.9C84.9014 30.2867 85.0014 30.6533 85.2014 31C85.4014 31.3333 85.6947 31.6133 86.0814 31.84C86.4681 32.0533 86.9214 32.16 87.4414 32.16C88.0947 32.16 88.7014 32.0333 89.2614 31.78C89.8347 31.5267 90.2747 31.2 90.5814 30.8ZM104.1 33H102.74V27.18C102.74 25.9533 102.56 25.06 102.2 24.5C101.84 23.9267 101.273 23.64 100.5 23.64C99.9665 23.64 99.4398 23.7733 98.9198 24.04C98.3998 24.2933 97.9398 24.6467 97.5398 25.1C97.1532 25.54 96.8732 26.0467 96.6998 26.62V33H95.3398V22.58H96.5798V24.94C96.8598 24.4333 97.2265 23.9933 97.6798 23.62C98.1332 23.2333 98.6465 22.9333 99.2198 22.72C99.7932 22.5067 100.387 22.4 101 22.4C101.573 22.4 102.06 22.5067 102.46 22.72C102.86 22.9333 103.18 23.24 103.42 23.64C103.66 24.0267 103.833 24.5 103.94 25.06C104.047 25.6067 104.1 26.22 104.1 26.9V33Z" fill="black"/>
<path d="M41.488 117V107.752L37.376 114.936H36.672L32.544 107.752V117H31.424V105.64H32.576L37.008 113.416L41.472 105.64H42.608V117H41.488ZM45.7113 119.56C45.8606 119.571 46.0046 119.576 46.1432 119.576C46.2819 119.587 46.3833 119.581 46.4473 119.56C46.5753 119.539 46.6979 119.464 46.8153 119.336C46.9326 119.208 47.0713 118.963 47.2313 118.6C47.3913 118.237 47.6153 117.704 47.9033 117L44.2713 108.664H45.4233L48.4793 115.88L51.2953 108.664H52.3833L48.0633 119.416C47.9886 119.619 47.8766 119.805 47.7273 119.976C47.5779 120.157 47.3913 120.296 47.1673 120.392C46.9539 120.499 46.6873 120.557 46.3673 120.568C46.2713 120.579 46.1699 120.579 46.0633 120.568C45.9673 120.568 45.8499 120.557 45.7113 120.536V119.56ZM57.2223 117.16C56.6143 117.16 56.0543 117.048 55.5423 116.824C55.0409 116.589 54.5983 116.269 54.2143 115.864C53.8409 115.459 53.5476 114.995 53.3343 114.472C53.1316 113.949 53.0303 113.395 53.0303 112.808C53.0303 112.019 53.2063 111.299 53.5583 110.648C53.9103 109.997 54.4009 109.48 55.0303 109.096C55.6596 108.712 56.3849 108.52 57.2063 108.52C57.9849 108.52 58.6729 108.701 59.2703 109.064C59.8676 109.416 60.3103 109.896 60.5983 110.504L59.5423 110.84C59.3076 110.413 58.9769 110.083 58.5503 109.848C58.1343 109.603 57.6703 109.48 57.1583 109.48C56.6036 109.48 56.0969 109.624 55.6383 109.912C55.1796 110.2 54.8116 110.595 54.5343 111.096C54.2676 111.597 54.1343 112.168 54.1343 112.808C54.1343 113.437 54.2729 114.008 54.5503 114.52C54.8276 115.032 55.1956 115.443 55.6543 115.752C56.1129 116.051 56.6196 116.2 57.1743 116.2C57.5369 116.2 57.8836 116.136 58.2143 116.008C58.5556 115.88 58.8489 115.709 59.0943 115.496C59.3503 115.272 59.5209 115.032 59.6063 114.776L60.6783 115.096C60.5289 115.491 60.2783 115.848 59.9263 116.168C59.5849 116.477 59.1796 116.723 58.7103 116.904C58.2516 117.075 57.7556 117.16 57.2223 117.16ZM68.3395 117L65.2515 112.728L63.4755 114.392V117H62.3875V105.32H63.4755V113.224L68.1955 108.68H69.3955L65.9875 112.088L69.5235 117H68.3395ZM74.0344 117.16C73.437 117.16 72.8824 117.048 72.3704 116.824C71.8584 116.589 71.4157 116.275 71.0424 115.88C70.669 115.475 70.3757 115.011 70.1624 114.488C69.9597 113.965 69.8584 113.405 69.8584 112.808C69.8584 112.029 70.0344 111.315 70.3864 110.664C70.749 110.013 71.245 109.496 71.8744 109.112C72.5037 108.717 73.2184 108.52 74.0184 108.52C74.8397 108.52 75.5544 108.717 76.1624 109.112C76.781 109.507 77.2664 110.029 77.6184 110.68C77.9704 111.32 78.1464 112.024 78.1464 112.792C78.1464 112.877 78.1464 112.963 78.1464 113.048C78.1464 113.123 78.141 113.181 78.1304 113.224H70.9944C71.0477 113.821 71.213 114.355 71.4904 114.824C71.7784 115.283 72.1464 115.651 72.5944 115.928C73.053 116.195 73.549 116.328 74.0824 116.328C74.6264 116.328 75.1384 116.189 75.6184 115.912C76.109 115.635 76.4504 115.272 76.6424 114.824L77.5864 115.08C77.4157 115.475 77.1544 115.832 76.8024 116.152C76.4504 116.472 76.0344 116.723 75.5544 116.904C75.085 117.075 74.5784 117.16 74.0344 117.16ZM70.9624 112.44H77.1224C77.0797 111.832 76.9144 111.299 76.6264 110.84C76.349 110.381 75.981 110.024 75.5224 109.768C75.0744 109.501 74.5784 109.368 74.0344 109.368C73.4904 109.368 72.9944 109.501 72.5464 109.768C72.0984 110.024 71.7304 110.387 71.4424 110.856C71.165 111.315 71.005 111.843 70.9624 112.44ZM83.7469 116.6C83.6615 116.632 83.5282 116.691 83.3469 116.776C83.1655 116.861 82.9469 116.936 82.6909 117C82.4349 117.064 82.1575 117.096 81.8589 117.096C81.5495 117.096 81.2562 117.037 80.9789 116.92C80.7122 116.803 80.4989 116.627 80.3389 116.392C80.1789 116.147 80.0989 115.848 80.0989 115.496V109.528H78.9469V108.664H80.0989V105.848H81.1869V108.664H83.1069V109.528H81.1869V115.192C81.2082 115.491 81.3149 115.715 81.5069 115.864C81.7095 116.013 81.9389 116.088 82.1949 116.088C82.4935 116.088 82.7655 116.04 83.0109 115.944C83.2562 115.837 83.4055 115.763 83.4589 115.72L83.7469 116.6ZM96.1924 117H95.1044V112.344C95.1044 111.363 94.9604 110.648 94.6724 110.2C94.3844 109.741 93.931 109.512 93.3124 109.512C92.8857 109.512 92.4644 109.619 92.0484 109.832C91.6324 110.035 91.2644 110.317 90.9444 110.68C90.635 111.032 90.411 111.437 90.2724 111.896V117H89.1844V108.664H90.1764V110.552C90.4004 110.147 90.6937 109.795 91.0564 109.496C91.419 109.187 91.8297 108.947 92.2884 108.776C92.747 108.605 93.2217 108.52 93.7124 108.52C94.171 108.52 94.5604 108.605 94.8804 108.776C95.2004 108.947 95.4564 109.192 95.6484 109.512C95.8404 109.821 95.979 110.2 96.0644 110.648C96.1497 111.085 96.1924 111.576 96.1924 112.12V117ZM102.065 117.16C101.467 117.16 100.913 117.048 100.401 116.824C99.8992 116.589 99.4618 116.275 99.0885 115.88C98.7258 115.475 98.4432 115.016 98.2405 114.504C98.0378 113.981 97.9365 113.432 97.9365 112.856C97.9365 112.259 98.0378 111.704 98.2405 111.192C98.4432 110.669 98.7312 110.211 99.1045 109.816C99.4778 109.411 99.9152 109.096 100.417 108.872C100.929 108.637 101.483 108.52 102.081 108.52C102.678 108.52 103.227 108.637 103.729 108.872C104.23 109.096 104.667 109.411 105.041 109.816C105.414 110.211 105.702 110.669 105.905 111.192C106.107 111.704 106.209 112.259 106.209 112.856C106.209 113.432 106.107 113.981 105.905 114.504C105.702 115.016 105.414 115.475 105.041 115.88C104.678 116.275 104.241 116.589 103.729 116.824C103.227 117.048 102.673 117.16 102.065 117.16ZM99.0405 112.872C99.0405 113.491 99.1738 114.056 99.4405 114.568C99.7178 115.069 100.086 115.469 100.545 115.768C101.003 116.056 101.51 116.2 102.065 116.2C102.619 116.2 103.126 116.051 103.585 115.752C104.043 115.453 104.411 115.048 104.689 114.536C104.966 114.013 105.105 113.448 105.105 112.84C105.105 112.221 104.966 111.656 104.689 111.144C104.411 110.632 104.043 110.227 103.585 109.928C103.126 109.629 102.619 109.48 102.065 109.48C101.51 109.48 101.003 109.635 100.545 109.944C100.097 110.253 99.7338 110.664 99.4565 111.176C99.1792 111.677 99.0405 112.243 99.0405 112.872ZM100.417 106.856V105.352H101.345V106.856H100.417ZM102.801 106.856V105.352H103.729V106.856H102.801ZM106.78 119.896C106.428 119.896 106.097 119.848 105.788 119.752C105.468 119.656 105.191 119.496 104.956 119.272L105.484 118.536C105.644 118.685 105.831 118.787 106.044 118.84C106.247 118.893 106.449 118.92 106.652 118.92C106.908 118.92 107.148 118.856 107.372 118.728C107.596 118.6 107.777 118.419 107.916 118.184C108.065 117.96 108.14 117.709 108.14 117.432V108.664H109.228V117.368C109.228 117.859 109.111 118.296 108.876 118.68C108.641 119.064 108.337 119.363 107.964 119.576C107.591 119.789 107.196 119.896 106.78 119.896ZM108.14 106.92V105.32H109.228V106.92H108.14ZM111.062 112.856C111.062 112.067 111.222 111.347 111.542 110.696C111.873 110.035 112.326 109.507 112.902 109.112C113.478 108.717 114.134 108.52 114.87 108.52C115.563 108.52 116.182 108.707 116.726 109.08C117.281 109.443 117.713 109.885 118.022 110.408V105.32H119.11V115.688C119.11 115.837 119.142 115.949 119.206 116.024C119.27 116.088 119.366 116.125 119.494 116.136V117C119.281 117.032 119.115 117.043 118.998 117.032C118.774 117.021 118.577 116.931 118.406 116.76C118.235 116.589 118.15 116.403 118.15 116.2V115.384C117.819 115.928 117.371 116.36 116.806 116.68C116.241 117 115.654 117.16 115.046 117.16C114.47 117.16 113.937 117.043 113.446 116.808C112.966 116.573 112.545 116.253 112.182 115.848C111.83 115.443 111.553 114.984 111.35 114.472C111.158 113.949 111.062 113.411 111.062 112.856ZM118.022 114.136V111.56C117.883 111.176 117.659 110.829 117.35 110.52C117.041 110.2 116.689 109.949 116.294 109.768C115.91 109.576 115.526 109.48 115.142 109.48C114.694 109.48 114.289 109.576 113.926 109.768C113.563 109.949 113.249 110.2 112.982 110.52C112.726 110.84 112.529 111.203 112.39 111.608C112.251 112.013 112.182 112.429 112.182 112.856C112.182 113.304 112.257 113.731 112.406 114.136C112.566 114.541 112.79 114.904 113.078 115.224C113.366 115.533 113.697 115.773 114.07 115.944C114.443 116.115 114.849 116.2 115.286 116.2C115.563 116.2 115.851 116.147 116.15 116.04C116.449 115.933 116.731 115.789 116.998 115.608C117.275 115.416 117.505 115.192 117.686 114.936C117.867 114.68 117.979 114.413 118.022 114.136ZM121.847 113.352V105.528H122.935V113.352H121.847ZM121.847 117V115.208H122.935V117H121.847Z" fill="black"/>
<path d="M221.86 9.9L224.4 16.13L226.93 9.9H227.66L224.72 17H224.08L221.13 9.9H221.86ZM230.113 17.1C229.74 17.1 229.393 17.03 229.073 16.89C228.753 16.7433 228.477 16.5467 228.243 16.3C228.01 16.0467 227.827 15.7567 227.693 15.43C227.567 15.1033 227.503 14.7533 227.503 14.38C227.503 13.8933 227.613 13.4467 227.833 13.04C228.06 12.6333 228.37 12.31 228.763 12.07C229.157 11.8233 229.603 11.7 230.103 11.7C230.617 11.7 231.063 11.8233 231.443 12.07C231.83 12.3167 232.133 12.6433 232.353 13.05C232.573 13.45 232.683 13.89 232.683 14.37C232.683 14.4233 232.683 14.4767 232.683 14.53C232.683 14.5767 232.68 14.6133 232.673 14.64H228.213C228.247 15.0133 228.35 15.3467 228.523 15.64C228.703 15.9267 228.933 16.1567 229.213 16.33C229.5 16.4967 229.81 16.58 230.143 16.58C230.483 16.58 230.803 16.4933 231.103 16.32C231.41 16.1467 231.623 15.92 231.743 15.64L232.333 15.8C232.227 16.0467 232.063 16.27 231.843 16.47C231.623 16.67 231.363 16.8267 231.063 16.94C230.77 17.0467 230.453 17.1 230.113 17.1ZM228.193 14.15H232.043C232.017 13.77 231.913 13.4367 231.733 13.15C231.56 12.8633 231.33 12.64 231.043 12.48C230.763 12.3133 230.453 12.23 230.113 12.23C229.773 12.23 229.463 12.3133 229.183 12.48C228.903 12.64 228.673 12.8667 228.493 13.16C228.32 13.4467 228.22 13.7767 228.193 14.15ZM236.332 12.39C235.879 12.4033 235.479 12.53 235.132 12.77C234.792 13.01 234.552 13.34 234.412 13.76V17H233.732V11.79H234.372V13.04C234.552 12.6733 234.789 12.3767 235.082 12.15C235.382 11.9233 235.699 11.7967 236.032 11.77C236.099 11.7633 236.156 11.76 236.202 11.76C236.256 11.76 236.299 11.7633 236.332 11.77V12.39ZM237.238 17V11.79H237.918V17H237.238ZM237.238 10.7V9.7H237.918V10.7H237.238ZM239.666 12.33H238.946V11.79H239.666V11.65C239.666 11.4033 239.703 11.16 239.776 10.92C239.849 10.68 239.959 10.46 240.106 10.26C240.259 10.06 240.449 9.9 240.676 9.78C240.909 9.66 241.186 9.6 241.506 9.6C241.753 9.6 241.973 9.62667 242.166 9.68C242.366 9.73333 242.539 9.79667 242.686 9.87C242.833 9.94333 242.943 10.01 243.016 10.07L242.706 10.56C242.599 10.46 242.439 10.3767 242.226 10.31C242.019 10.2367 241.793 10.2 241.546 10.2C241.266 10.2 241.036 10.2733 240.856 10.42C240.683 10.56 240.553 10.74 240.466 10.96C240.386 11.18 240.346 11.4033 240.346 11.63V11.79H242.956V17H242.276V12.33H240.346V17H239.666V12.33ZM246.705 17.1C246.332 17.1 245.985 17.03 245.665 16.89C245.345 16.7433 245.068 16.5467 244.835 16.3C244.602 16.0467 244.418 15.7567 244.285 15.43C244.158 15.1033 244.095 14.7533 244.095 14.38C244.095 13.8933 244.205 13.4467 244.425 13.04C244.652 12.6333 244.962 12.31 245.355 12.07C245.748 11.8233 246.195 11.7 246.695 11.7C247.208 11.7 247.655 11.8233 248.035 12.07C248.422 12.3167 248.725 12.6433 248.945 13.05C249.165 13.45 249.275 13.89 249.275 14.37C249.275 14.4233 249.275 14.4767 249.275 14.53C249.275 14.5767 249.272 14.6133 249.265 14.64H244.805C244.838 15.0133 244.942 15.3467 245.115 15.64C245.295 15.9267 245.525 16.1567 245.805 16.33C246.092 16.4967 246.402 16.58 246.735 16.58C247.075 16.58 247.395 16.4933 247.695 16.32C248.002 16.1467 248.215 15.92 248.335 15.64L248.925 15.8C248.818 16.0467 248.655 16.27 248.435 16.47C248.215 16.67 247.955 16.8267 247.655 16.94C247.362 17.0467 247.045 17.1 246.705 17.1ZM244.785 14.15H248.635C248.608 13.77 248.505 13.4367 248.325 13.15C248.152 12.8633 247.922 12.64 247.635 12.48C247.355 12.3133 247.045 12.23 246.705 12.23C246.365 12.23 246.055 12.3133 245.775 12.48C245.495 12.64 245.265 12.8667 245.085 13.16C244.912 13.4467 244.812 13.7767 244.785 14.15ZM252.924 12.39C252.471 12.4033 252.071 12.53 251.724 12.77C251.384 13.01 251.144 13.34 251.004 13.76V17H250.324V11.79H250.964V13.04C251.144 12.6733 251.381 12.3767 251.674 12.15C251.974 11.9233 252.291 11.7967 252.624 11.77C252.691 11.7633 252.748 11.76 252.794 11.76C252.848 11.76 252.891 11.7633 252.924 11.77V12.39ZM253.391 15.5C253.391 15.1733 253.484 14.8933 253.671 14.66C253.857 14.42 254.114 14.2367 254.441 14.11C254.774 13.9767 255.157 13.91 255.591 13.91C255.844 13.91 256.107 13.93 256.381 13.97C256.654 14.01 256.897 14.07 257.111 14.15V13.71C257.111 13.27 256.981 12.92 256.721 12.66C256.461 12.4 256.101 12.27 255.641 12.27C255.361 12.27 255.084 12.3233 254.811 12.43C254.544 12.53 254.264 12.68 253.971 12.88L253.711 12.4C254.051 12.1667 254.384 11.9933 254.711 11.88C255.037 11.76 255.371 11.7 255.711 11.7C256.351 11.7 256.857 11.8833 257.231 12.25C257.604 12.6167 257.791 13.1233 257.791 13.77V16.18C257.791 16.2733 257.811 16.3433 257.851 16.39C257.891 16.43 257.954 16.4533 258.041 16.46V17C257.967 17.0067 257.904 17.0133 257.851 17.02C257.797 17.0267 257.757 17.0267 257.731 17.02C257.564 17.0133 257.437 16.96 257.351 16.86C257.264 16.76 257.217 16.6533 257.211 16.54L257.201 16.16C256.967 16.46 256.664 16.6933 256.291 16.86C255.917 17.02 255.537 17.1 255.151 17.1C254.817 17.1 254.514 17.03 254.241 16.89C253.974 16.7433 253.764 16.55 253.611 16.31C253.464 16.0633 253.391 15.7933 253.391 15.5ZM256.881 15.9C256.954 15.8067 257.011 15.7167 257.051 15.63C257.091 15.5433 257.111 15.4667 257.111 15.4V14.64C256.884 14.5533 256.647 14.4867 256.401 14.44C256.161 14.3933 255.917 14.37 255.671 14.37C255.184 14.37 254.791 14.4667 254.491 14.66C254.191 14.8533 254.041 15.1167 254.041 15.45C254.041 15.6433 254.091 15.8267 254.191 16C254.291 16.1667 254.437 16.3067 254.631 16.42C254.824 16.5267 255.051 16.58 255.311 16.58C255.637 16.58 255.941 16.5167 256.221 16.39C256.507 16.2633 256.727 16.1 256.881 15.9ZM258.91 14.41C258.91 13.9167 259.01 13.4667 259.21 13.06C259.416 12.6467 259.7 12.3167 260.06 12.07C260.42 11.8233 260.83 11.7 261.29 11.7C261.723 11.7 262.11 11.8167 262.45 12.05C262.796 12.2767 263.066 12.5533 263.26 12.88V9.7H263.94V16.18C263.94 16.2733 263.96 16.3433 264 16.39C264.04 16.43 264.1 16.4533 264.18 16.46V17C264.046 17.02 263.943 17.0267 263.87 17.02C263.73 17.0133 263.606 16.9567 263.5 16.85C263.393 16.7433 263.34 16.6267 263.34 16.5V15.99C263.133 16.33 262.853 16.6 262.5 16.8C262.146 17 261.78 17.1 261.4 17.1C261.04 17.1 260.706 17.0267 260.4 16.88C260.1 16.7333 259.836 16.5333 259.61 16.28C259.39 16.0267 259.216 15.74 259.09 15.42C258.97 15.0933 258.91 14.7567 258.91 14.41ZM263.26 15.21V13.6C263.173 13.36 263.033 13.1433 262.84 12.95C262.646 12.75 262.426 12.5933 262.18 12.48C261.94 12.36 261.7 12.3 261.46 12.3C261.18 12.3 260.926 12.36 260.7 12.48C260.473 12.5933 260.276 12.75 260.11 12.95C259.95 13.15 259.826 13.3767 259.74 13.63C259.653 13.8833 259.61 14.1433 259.61 14.41C259.61 14.69 259.656 14.9567 259.75 15.21C259.85 15.4633 259.99 15.69 260.17 15.89C260.35 16.0833 260.556 16.2333 260.79 16.34C261.023 16.4467 261.276 16.5 261.55 16.5C261.723 16.5 261.903 16.4667 262.09 16.4C262.276 16.3333 262.453 16.2433 262.62 16.13C262.793 16.01 262.936 15.87 263.05 15.71C263.163 15.55 263.233 15.3833 263.26 15.21ZM267.609 15.5C267.609 15.1733 267.703 14.8933 267.889 14.66C268.076 14.42 268.333 14.2367 268.659 14.11C268.993 13.9767 269.376 13.91 269.809 13.91C270.063 13.91 270.326 13.93 270.599 13.97C270.873 14.01 271.116 14.07 271.329 14.15V13.71C271.329 13.27 271.199 12.92 270.939 12.66C270.679 12.4 270.319 12.27 269.859 12.27C269.579 12.27 269.303 12.3233 269.029 12.43C268.763 12.53 268.483 12.68 268.189 12.88L267.929 12.4C268.269 12.1667 268.603 11.9933 268.929 11.88C269.256 11.76 269.589 11.7 269.929 11.7C270.569 11.7 271.076 11.8833 271.449 12.25C271.823 12.6167 272.009 13.1233 272.009 13.77V16.18C272.009 16.2733 272.029 16.3433 272.069 16.39C272.109 16.43 272.173 16.4533 272.259 16.46V17C272.186 17.0067 272.123 17.0133 272.069 17.02C272.016 17.0267 271.976 17.0267 271.949 17.02C271.783 17.0133 271.656 16.96 271.569 16.86C271.483 16.76 271.436 16.6533 271.429 16.54L271.419 16.16C271.186 16.46 270.883 16.6933 270.509 16.86C270.136 17.02 269.756 17.1 269.369 17.1C269.036 17.1 268.733 17.03 268.459 16.89C268.193 16.7433 267.983 16.55 267.829 16.31C267.683 16.0633 267.609 15.7933 267.609 15.5ZM271.099 15.9C271.173 15.8067 271.229 15.7167 271.269 15.63C271.309 15.5433 271.329 15.4667 271.329 15.4V14.64C271.103 14.5533 270.866 14.4867 270.619 14.44C270.379 14.3933 270.136 14.37 269.889 14.37C269.403 14.37 269.009 14.4667 268.709 14.66C268.409 14.8533 268.259 15.1167 268.259 15.45C268.259 15.6433 268.309 15.8267 268.409 16C268.509 16.1667 268.656 16.3067 268.849 16.42C269.043 16.5267 269.269 16.58 269.529 16.58C269.856 16.58 270.159 16.5167 270.439 16.39C270.726 16.2633 270.946 16.1 271.099 15.9ZM277.859 17H277.179V14.09C277.179 13.4767 277.089 13.03 276.909 12.75C276.729 12.4633 276.445 12.32 276.059 12.32C275.792 12.32 275.529 12.3867 275.269 12.52C275.009 12.6467 274.779 12.8233 274.579 13.05C274.385 13.27 274.245 13.5233 274.159 13.81V17H273.479V11.79H274.099V12.97C274.239 12.7167 274.422 12.4967 274.649 12.31C274.875 12.1167 275.132 11.9667 275.419 11.86C275.705 11.7533 276.002 11.7 276.309 11.7C276.595 11.7 276.839 11.7533 277.039 11.86C277.239 11.9667 277.399 12.12 277.519 12.32C277.639 12.5133 277.725 12.75 277.779 13.03C277.832 13.3033 277.859 13.61 277.859 13.95V17ZM280.751 17L278.641 11.79H279.351L281.131 16.32L282.921 11.79H283.591L281.481 17H280.751ZM283.986 15.5C283.986 15.1733 284.08 14.8933 284.266 14.66C284.453 14.42 284.71 14.2367 285.036 14.11C285.37 13.9767 285.753 13.91 286.186 13.91C286.44 13.91 286.703 13.93 286.976 13.97C287.25 14.01 287.493 14.07 287.706 14.15V13.71C287.706 13.27 287.576 12.92 287.316 12.66C287.056 12.4 286.696 12.27 286.236 12.27C285.956 12.27 285.68 12.3233 285.406 12.43C285.14 12.53 284.86 12.68 284.566 12.88L284.306 12.4C284.646 12.1667 284.98 11.9933 285.306 11.88C285.633 11.76 285.966 11.7 286.306 11.7C286.946 11.7 287.453 11.8833 287.826 12.25C288.2 12.6167 288.386 13.1233 288.386 13.77V16.18C288.386 16.2733 288.406 16.3433 288.446 16.39C288.486 16.43 288.55 16.4533 288.636 16.46V17C288.563 17.0067 288.5 17.0133 288.446 17.02C288.393 17.0267 288.353 17.0267 288.326 17.02C288.16 17.0133 288.033 16.96 287.946 16.86C287.86 16.76 287.813 16.6533 287.806 16.54L287.796 16.16C287.563 16.46 287.26 16.6933 286.886 16.86C286.513 17.02 286.133 17.1 285.746 17.1C285.413 17.1 285.11 17.03 284.836 16.89C284.57 16.7433 284.36 16.55 284.206 16.31C284.06 16.0633 283.986 15.7933 283.986 15.5ZM287.476 15.9C287.55 15.8067 287.606 15.7167 287.646 15.63C287.686 15.5433 287.706 15.4667 287.706 15.4V14.64C287.48 14.5533 287.243 14.4867 286.996 14.44C286.756 14.3933 286.513 14.37 286.266 14.37C285.78 14.37 285.386 14.4667 285.086 14.66C284.786 14.8533 284.636 15.1167 284.636 15.45C284.636 15.6433 284.686 15.8267 284.786 16C284.886 16.1667 285.033 16.3067 285.226 16.42C285.42 16.5267 285.646 16.58 285.906 16.58C286.233 16.58 286.536 16.5167 286.816 16.39C287.103 16.2633 287.323 16.1 287.476 15.9ZM285.256 10.66V9.72H285.836V10.66H285.256ZM286.746 10.66V9.72H287.326V10.66H286.746ZM294.235 17H293.555V14.09C293.555 13.4767 293.465 13.03 293.285 12.75C293.105 12.4633 292.822 12.32 292.435 12.32C292.169 12.32 291.905 12.3867 291.645 12.52C291.385 12.6467 291.155 12.8233 290.955 13.05C290.762 13.27 290.622 13.5233 290.535 13.81V17H289.855V11.79H290.475V12.97C290.615 12.7167 290.799 12.4967 291.025 12.31C291.252 12.1167 291.509 11.9667 291.795 11.86C292.082 11.7533 292.379 11.7 292.685 11.7C292.972 11.7 293.215 11.7533 293.415 11.86C293.615 11.9667 293.775 12.12 293.895 12.32C294.015 12.5133 294.102 12.75 294.155 13.03C294.209 13.3033 294.235 13.61 294.235 13.95V17ZM295.336 14.41C295.336 13.9167 295.436 13.4667 295.636 13.06C295.842 12.6467 296.126 12.3167 296.486 12.07C296.846 11.8233 297.256 11.7 297.716 11.7C298.149 11.7 298.536 11.8167 298.876 12.05C299.222 12.2767 299.492 12.5533 299.686 12.88V9.7H300.366V16.18C300.366 16.2733 300.386 16.3433 300.426 16.39C300.466 16.43 300.526 16.4533 300.606 16.46V17C300.472 17.02 300.369 17.0267 300.296 17.02C300.156 17.0133 300.032 16.9567 299.926 16.85C299.819 16.7433 299.766 16.6267 299.766 16.5V15.99C299.559 16.33 299.279 16.6 298.926 16.8C298.572 17 298.206 17.1 297.826 17.1C297.466 17.1 297.132 17.0267 296.826 16.88C296.526 16.7333 296.262 16.5333 296.036 16.28C295.816 16.0267 295.642 15.74 295.516 15.42C295.396 15.0933 295.336 14.7567 295.336 14.41ZM299.686 15.21V13.6C299.599 13.36 299.459 13.1433 299.266 12.95C299.072 12.75 298.852 12.5933 298.606 12.48C298.366 12.36 298.126 12.3 297.886 12.3C297.606 12.3 297.352 12.36 297.126 12.48C296.899 12.5933 296.702 12.75 296.536 12.95C296.376 13.15 296.252 13.3767 296.166 13.63C296.079 13.8833 296.036 14.1433 296.036 14.41C296.036 14.69 296.082 14.9567 296.176 15.21C296.276 15.4633 296.416 15.69 296.596 15.89C296.776 16.0833 296.982 16.2333 297.216 16.34C297.449 16.4467 297.702 16.5 297.976 16.5C298.149 16.5 298.329 16.4667 298.516 16.4C298.702 16.3333 298.879 16.2433 299.046 16.13C299.219 16.01 299.362 15.87 299.476 15.71C299.589 15.55 299.659 15.3833 299.686 15.21ZM301.486 15.5C301.486 15.1733 301.58 14.8933 301.766 14.66C301.953 14.42 302.21 14.2367 302.536 14.11C302.87 13.9767 303.253 13.91 303.686 13.91C303.94 13.91 304.203 13.93 304.476 13.97C304.75 14.01 304.993 14.07 305.206 14.15V13.71C305.206 13.27 305.076 12.92 304.816 12.66C304.556 12.4 304.196 12.27 303.736 12.27C303.456 12.27 303.18 12.3233 302.906 12.43C302.64 12.53 302.36 12.68 302.066 12.88L301.806 12.4C302.146 12.1667 302.48 11.9933 302.806 11.88C303.133 11.76 303.466 11.7 303.806 11.7C304.446 11.7 304.953 11.8833 305.326 12.25C305.7 12.6167 305.886 13.1233 305.886 13.77V16.18C305.886 16.2733 305.906 16.3433 305.946 16.39C305.986 16.43 306.05 16.4533 306.136 16.46V17C306.063 17.0067 306 17.0133 305.946 17.02C305.893 17.0267 305.853 17.0267 305.826 17.02C305.66 17.0133 305.533 16.96 305.446 16.86C305.36 16.76 305.313 16.6533 305.306 16.54L305.296 16.16C305.063 16.46 304.76 16.6933 304.386 16.86C304.013 17.02 303.633 17.1 303.246 17.1C302.913 17.1 302.61 17.03 302.336 16.89C302.07 16.7433 301.86 16.55 301.706 16.31C301.56 16.0633 301.486 15.7933 301.486 15.5ZM304.976 15.9C305.05 15.8067 305.106 15.7167 305.146 15.63C305.186 15.5433 305.206 15.4667 305.206 15.4V14.64C304.98 14.5533 304.743 14.4867 304.496 14.44C304.256 14.3933 304.013 14.37 303.766 14.37C303.28 14.37 302.886 14.4667 302.586 14.66C302.286 14.8533 302.136 15.1167 302.136 15.45C302.136 15.6433 302.186 15.8267 302.286 16C302.386 16.1667 302.533 16.3067 302.726 16.42C302.92 16.5267 303.146 16.58 303.406 16.58C303.733 16.58 304.036 16.5167 304.316 16.39C304.603 16.2633 304.823 16.1 304.976 15.9ZM309.955 12.39C309.502 12.4033 309.102 12.53 308.755 12.77C308.415 13.01 308.175 13.34 308.035 13.76V17H307.355V11.79H307.995V13.04C308.175 12.6733 308.412 12.3767 308.705 12.15C309.005 11.9233 309.322 11.7967 309.655 11.77C309.722 11.7633 309.779 11.76 309.825 11.76C309.879 11.76 309.922 11.7633 309.955 11.77V12.39ZM312.945 17.1C312.572 17.1 312.225 17.03 311.905 16.89C311.585 16.7433 311.309 16.5467 311.075 16.3C310.842 16.0467 310.659 15.7567 310.525 15.43C310.399 15.1033 310.335 14.7533 310.335 14.38C310.335 13.8933 310.445 13.4467 310.665 13.04C310.892 12.6333 311.202 12.31 311.595 12.07C311.989 11.8233 312.435 11.7 312.935 11.7C313.449 11.7 313.895 11.8233 314.275 12.07C314.662 12.3167 314.965 12.6433 315.185 13.05C315.405 13.45 315.515 13.89 315.515 14.37C315.515 14.4233 315.515 14.4767 315.515 14.53C315.515 14.5767 315.512 14.6133 315.505 14.64H311.045C311.079 15.0133 311.182 15.3467 311.355 15.64C311.535 15.9267 311.765 16.1567 312.045 16.33C312.332 16.4967 312.642 16.58 312.975 16.58C313.315 16.58 313.635 16.4933 313.935 16.32C314.242 16.1467 314.455 15.92 314.575 15.64L315.165 15.8C315.059 16.0467 314.895 16.27 314.675 16.47C314.455 16.67 314.195 16.8267 313.895 16.94C313.602 17.0467 313.285 17.1 312.945 17.1ZM311.025 14.15H314.875C314.849 13.77 314.745 13.4367 314.565 13.15C314.392 12.8633 314.162 12.64 313.875 12.48C313.595 12.3133 313.285 12.23 312.945 12.23C312.605 12.23 312.295 12.3133 312.015 12.48C311.735 12.64 311.505 12.8667 311.325 13.16C311.152 13.4467 311.052 13.7767 311.025 14.15Z" fill="#838282"/>
<circle cx="213" cy="13" r="4.5" stroke="#838282"/>
<line y1="-0.5" x2="3.39502" y2="-0.5" transform="matrix(0.697617 0.716471 -0.697617 0.716471 210.105 12.8652)" stroke="#838282"/>
<line y1="-0.5" x2="5.47803" y2="-0.5" transform="matrix(-0.672544 0.740058 -0.721907 -0.69199 216.158 11.2432)" stroke="#838282"/>
</g>
<g filter="url(#filter1_d_60_424)">
<path d="M95.5489 54.927C95.8483 54.0057 97.1517 54.0057 97.4511 54.9271L100.204 63.4012C100.338 63.8132 100.722 64.0922 101.156 64.0922L110.066 64.0922C111.035 64.0922 111.437 65.3318 110.654 65.9012L103.445 71.1385C103.095 71.3932 102.948 71.8446 103.082 72.2566L105.835 80.7308C106.135 81.6521 105.08 82.4182 104.296 81.8488L97.0878 76.6115C96.7373 76.3568 96.2627 76.3568 95.9122 76.6115L88.7037 81.8488C87.9199 82.4182 86.8655 81.6521 87.1648 80.7307L89.9182 72.2566C90.0521 71.8446 89.9055 71.3932 89.555 71.1385L82.3464 65.9012C81.5627 65.3318 81.9655 64.0922 82.9342 64.0922L91.8445 64.0922C92.2777 64.0922 92.6616 63.8132 92.7955 63.4012L95.5489 54.927Z" fill="#926B5A" fill-opacity="0.84" shape-rendering="crispEdges"/>
</g>
<g filter="url(#filter2_d_60_424)">
<path d="M144.549 54.927C144.848 54.0057 146.152 54.0057 146.451 54.9271L149.204 63.4012C149.338 63.8132 149.722 64.0922 150.156 64.0922L159.066 64.0922C160.035 64.0922 160.437 65.3318 159.654 65.9012L152.445 71.1385C152.095 71.3932 151.948 71.8446 152.082 72.2566L154.835 80.7308C155.135 81.6521 154.08 82.4182 153.296 81.8488L146.088 76.6115C145.737 76.3568 145.263 76.3568 144.912 76.6115L137.704 81.8488C136.92 82.4182 135.865 81.6521 136.165 80.7307L138.918 72.2566C139.052 71.8446 138.905 71.3932 138.555 71.1385L131.346 65.9012C130.563 65.3318 130.965 64.0922 131.934 64.0922L140.844 64.0922C141.278 64.0922 141.662 63.8132 141.796 63.4012L144.549 54.927Z" fill="#926B5A" fill-opacity="0.63" shape-rendering="crispEdges"/>
</g>
<g filter="url(#filter3_d_60_424)">
<path d="M190.549 54.927C190.848 54.0057 192.152 54.0057 192.451 54.9271L195.204 63.4012C195.338 63.8132 195.722 64.0922 196.156 64.0922L205.066 64.0922C206.035 64.0922 206.437 65.3318 205.654 65.9012L198.445 71.1385C198.095 71.3932 197.948 71.8446 198.082 72.2566L200.835 80.7308C201.135 81.6521 200.08 82.4182 199.296 81.8488L192.088 76.6115C191.737 76.3568 191.263 76.3568 190.912 76.6115L183.704 81.8488C182.92 82.4182 181.865 81.6521 182.165 80.7307L184.918 72.2566C185.052 71.8446 184.905 71.3932 184.555 71.1385L177.346 65.9012C176.563 65.3318 176.965 64.0922 177.934 64.0922L186.844 64.0922C187.278 64.0922 187.662 63.8132 187.796 63.4012L190.549 54.927Z" fill="#926B5A" fill-opacity="0.45" shape-rendering="crispEdges"/>
</g>
<g filter="url(#filter4_d_60_424)">
<path d="M237.5 55.2361L240.253 63.7102C240.521 64.5343 241.289 65.0922 242.156 65.0922L251.066 65.0922L243.857 70.3295C243.156 70.8388 242.863 71.7416 243.131 72.5656L245.884 81.0398L238.676 75.8024C237.975 75.2932 237.025 75.2932 236.324 75.8024L229.116 81.0398L231.869 72.5656C232.137 71.7415 231.844 70.8388 231.143 70.3295L230.555 71.1385L231.143 70.3295L223.934 65.0922L232.844 65.0922C233.711 65.0922 234.479 64.5343 234.747 63.7102L237.5 55.2361Z" stroke="#926B5A" stroke-opacity="0.63" stroke-width="2" shape-rendering="crispEdges"/>
</g>
<g filter="url(#filter5_d_60_424)">
<path d="M46.5489 54.927C46.8483 54.0057 48.1517 54.0057 48.4511 54.9271L51.2045 63.4012C51.3384 63.8132 51.7223 64.0922 52.1555 64.0922L61.0658 64.0922C62.0345 64.0922 62.4373 65.3318 61.6536 65.9012L54.445 71.1385C54.0945 71.3932 53.9479 71.8446 54.0818 72.2566L56.8352 80.7308C57.1345 81.6521 56.0801 82.4182 55.2963 81.8488L48.0878 76.6115C47.7373 76.3568 47.2627 76.3568 46.9122 76.6115L39.7037 81.8488C38.9199 82.4182 37.8655 81.6521 38.1648 80.7307L40.9182 72.2566C41.0521 71.8446 40.9055 71.3932 40.555 71.1385L33.3464 65.9012C32.5627 65.3318 32.9655 64.0922 33.9342 64.0922L42.8445 64.0922C43.2777 64.0922 43.6616 63.8132 43.7955 63.4012L46.5489 54.927Z" fill="#926B5A"/>
</g>
<defs>
<filter id="filter0_d_60_424" x="0" y="0" width="330" height="179" filterUnits="userSpaceOnUse" color-interpolation-filters="sRGB">
<feFlood flood-opacity="0" result="BackgroundImageFix"/>
<feColorMatrix in="SourceAlpha" type="matrix" values="0 0 0 0 0 0 0 0 0 0 0 0 0 0 0 0 0 0 127 0" result="hardAlpha"/>
<feOffset dy="4"/>
<feGaussianBlur stdDeviation="2"/>
<feComposite in2="hardAlpha" operator="out"/>
<feColorMatrix type="matrix" values="0 0 0 0 0 0 0 0 0 0 0 0 0 0 0 0 0 0 0.25 0"/>
<feBlend mode="normal" in2="BackgroundImageFix" result="effect1_dropShadow_60_424"/>
<feBlend mode="normal" in="SourceGraphic" in2="effect1_dropShadow_60_424" result="shape"/>
</filter>
<filter id="filter1_d_60_424" x="77.9321" y="54.2363" width="37.1357" height="35.8076" filterUnits="userSpaceOnUse" color-interpolation-filters="sRGB">
<feFlood flood-opacity="0" result="BackgroundImageFix"/>
<feColorMatrix in="SourceAlpha" type="matrix" values="0 0 0 0 0 0 0 0 0 0 0 0 0 0 0 0 0 0 127 0" result="hardAlpha"/>
<feOffset dy="4"/>
<feGaussianBlur stdDeviation="2"/>
<feComposite in2="hardAlpha" operator="out"/>
<feColorMatrix type="matrix" values="0 0 0 0 0 0 0 0 0 0 0 0 0 0 0 0 0 0 0.25 0"/>
<feBlend mode="normal" in2="BackgroundImageFix" result="effect1_dropShadow_60_424"/>
<feBlend mode="normal" in="SourceGraphic" in2="effect1_dropShadow_60_424" result="shape"/>
</filter>
<filter id="filter2_d_60_424" x="126.932" y="54.2363" width="37.1357" height="35.8076" filterUnits="userSpaceOnUse" color-interpolation-filters="sRGB">
<feFlood flood-opacity="0" result="BackgroundImageFix"/>
<feColorMatrix in="SourceAlpha" type="matrix" values="0 0 0 0 0 0 0 0 0 0 0 0 0 0 0 0 0 0 127 0" result="hardAlpha"/>
<feOffset dy="4"/>
<feGaussianBlur stdDeviation="2"/>
<feComposite in2="hardAlpha" operator="out"/>
<feColorMatrix type="matrix" values="0 0 0 0 0 0 0 0 0 0 0 0 0 0 0 0 0 0 0.25 0"/>
<feBlend mode="normal" in2="BackgroundImageFix" result="effect1_dropShadow_60_424"/>
<feBlend mode="normal" in="SourceGraphic" in2="effect1_dropShadow_60_424" result="shape"/>
</filter>
<filter id="filter3_d_60_424" x="172.932" y="54.2363" width="37.1357" height="35.8076" filterUnits="userSpaceOnUse" color-interpolation-filters="sRGB">
<feFlood flood-opacity="0" result="BackgroundImageFix"/>
<feColorMatrix in="SourceAlpha" type="matrix" values="0 0 0 0 0 0 0 0 0 0 0 0 0 0 0 0 0 0 127 0" result="hardAlpha"/>
<feOffset dy="4"/>
<feGaussianBlur stdDeviation="2"/>
<feComposite in2="hardAlpha" operator="out"/>
<feColorMatrix type="matrix" values="0 0 0 0 0 0 0 0 0 0 0 0 0 0 0 0 0 0 0.25 0"/>
<feBlend mode="normal" in2="BackgroundImageFix" result="effect1_dropShadow_60_424"/>
<feBlend mode="normal" in="SourceGraphic" in2="effect1_dropShadow_60_424" result="shape"/>
</filter>
<filter id="filter4_d_60_424" x="218.932" y="54.2363" width="37.1357" height="35.8076" filterUnits="userSpaceOnUse" color-interpolation-filters="sRGB">
<feFlood flood-opacity="0" result="BackgroundImageFix"/>
<feColorMatrix in="SourceAlpha" type="matrix" values="0 0 0 0 0 0 0 0 0 0 0 0 0 0 0 0 0 0 127 0" result="hardAlpha"/>
<feOffset dy="4"/>
<feGaussianBlur stdDeviation="2"/>
<feComposite in2="hardAlpha" operator="out"/>
<feColorMatrix type="matrix" values="0 0 0 0 0 0 0 0 0 0 0 0 0 0 0 0 0 0 0.25 0"/>
<feBlend mode="normal" in2="BackgroundImageFix" result="effect1_dropShadow_60_424"/>
<feBlend mode="normal" in="SourceGraphic" in2="effect1_dropShadow_60_424" result="shape"/>
</filter>
<filter id="filter5_d_60_424" x="28.9321" y="54.2363" width="37.1357" height="35.8076" filterUnits="userSpaceOnUse" color-interpolation-filters="sRGB">
<feFlood flood-opacity="0" result="BackgroundImageFix"/>
<feColorMatrix in="SourceAlpha" type="matrix" values="0 0 0 0 0 0 0 0 0 0 0 0 0 0 0 0 0 0 127 0" result="hardAlpha"/>
<feOffset dy="4"/>
<feGaussianBlur stdDeviation="2"/>
<feComposite in2="hardAlpha" operator="out"/>
<feColorMatrix type="matrix" values="0 0 0 0 0 0 0 0 0 0 0 0 0 0 0 0 0 0 0.25 0"/>
<feBlend mode="normal" in2="BackgroundImageFix" result="effect1_dropShadow_60_424"/>
<feBlend mode="normal" in="SourceGraphic" in2="effect1_dropShadow_60_424" result="shape"/>
</filter>
</defs>
</svg>
