<svg width="330" height="171" viewBox="0 0 330 171" fill="none" xmlns="http://www.w3.org/2000/svg">
<g filter="url(#filter0_d_60_425)">
<path d="M4 4C4 1.79086 5.79086 0 8 0H322C324.209 0 326 1.79086 326 4V136C326 138.209 324.209 140 322 140H8.00001C5.79087 140 4 138.209 4 136V4Z" fill="white"/>
<g filter="url(#filter1_d_60_425)">
<path d="M94.5489 54.927C94.8483 54.0057 96.1517 54.0057 96.4511 54.9271L99.2045 63.4012C99.3384 63.8132 99.7223 64.0922 100.156 64.0922L109.066 64.0922C110.035 64.0922 110.437 65.3318 109.654 65.9012L102.445 71.1385C102.095 71.3932 101.948 71.8446 102.082 72.2566L104.835 80.7308C105.135 81.6521 104.08 82.4182 103.296 81.8488L96.0878 76.6115C95.7373 76.3568 95.2627 76.3568 94.9122 76.6115L87.7037 81.8488C86.9199 82.4182 85.8655 81.6521 86.1648 80.7307L88.9182 72.2566C89.0521 71.8446 88.9055 71.3932 88.555 71.1385L81.3464 65.9012C80.5627 65.3318 80.9655 64.0922 81.9342 64.0922L90.8445 64.0922C91.2777 64.0922 91.6616 63.8132 91.7955 63.4012L94.5489 54.927Z" fill="#926B5A" fill-opacity="0.84" shape-rendering="crispEdges"/>
</g>
<g filter="url(#filter2_d_60_425)">
<path d="M143.549 54.927C143.848 54.0057 145.152 54.0057 145.451 54.9271L148.204 63.4012C148.338 63.8132 148.722 64.0922 149.156 64.0922L158.066 64.0922C159.035 64.0922 159.437 65.3318 158.654 65.9012L151.445 71.1385C151.095 71.3932 150.948 71.8446 151.082 72.2566L153.835 80.7308C154.135 81.6521 153.08 82.4182 152.296 81.8488L145.088 76.6115C144.737 76.3568 144.263 76.3568 143.912 76.6115L136.704 81.8488C135.92 82.4182 134.865 81.6521 135.165 80.7307L137.918 72.2566C138.052 71.8446 137.905 71.3932 137.555 71.1385L130.346 65.9012C129.563 65.3318 129.965 64.0922 130.934 64.0922L139.844 64.0922C140.278 64.0922 140.662 63.8132 140.796 63.4012L143.549 54.927Z" fill="#926B5A" fill-opacity="0.63" shape-rendering="crispEdges"/>
</g>
<g filter="url(#filter3_d_60_425)">
<path d="M189.549 54.927C189.848 54.0057 191.152 54.0057 191.451 54.9271L194.204 63.4012C194.338 63.8132 194.722 64.0922 195.156 64.0922L204.066 64.0922C205.035 64.0922 205.437 65.3318 204.654 65.9012L197.445 71.1385C197.095 71.3932 196.948 71.8446 197.082 72.2566L199.835 80.7308C200.135 81.6521 199.08 82.4182 198.296 81.8488L191.088 76.6115C190.737 76.3568 190.263 76.3568 189.912 76.6115L182.704 81.8488C181.92 82.4182 180.865 81.6521 181.165 80.7307L183.918 72.2566C184.052 71.8446 183.905 71.3932 183.555 71.1385L176.346 65.9012C175.563 65.3318 175.965 64.0922 176.934 64.0922L185.844 64.0922C186.278 64.0922 186.662 63.8132 186.796 63.4012L189.549 54.927Z" fill="#926B5A" fill-opacity="0.45" shape-rendering="crispEdges"/>
</g>
<g filter="url(#filter4_d_60_425)">
<path d="M235.549 54.927C235.848 54.0057 237.152 54.0057 237.451 54.9271L240.204 63.4012C240.338 63.8132 240.722 64.0922 241.156 64.0922L250.066 64.0922C251.035 64.0922 251.437 65.3318 250.654 65.9012L243.445 71.1385C243.095 71.3932 242.948 71.8446 243.082 72.2566L245.835 80.7308C246.135 81.6521 245.08 82.4182 244.296 81.8488L237.088 76.6115C236.737 76.3568 236.263 76.3568 235.912 76.6115L228.704 81.8488C227.92 82.4182 226.865 81.6521 227.165 80.7307L229.918 72.2566C230.052 71.8446 229.905 71.3932 229.555 71.1385L222.346 65.9012C221.563 65.3318 221.965 64.0922 222.934 64.0922L231.844 64.0922C232.278 64.0922 232.662 63.8132 232.796 63.4012L235.549 54.927Z" fill="#926B5A" fill-opacity="0.28" shape-rendering="crispEdges"/>
</g>
<g filter="url(#filter5_d_60_425)">
<path d="M45.5489 54.927C45.8483 54.0057 47.1517 54.0057 47.4511 54.9271L50.2045 63.4012C50.3384 63.8132 50.7223 64.0922 51.1555 64.0922L60.0658 64.0922C61.0345 64.0922 61.4373 65.3318 60.6536 65.9012L53.445 71.1385C53.0945 71.3932 52.9479 71.8446 53.0818 72.2566L55.8352 80.7308C56.1345 81.6521 55.0801 82.4182 54.2963 81.8488L47.0878 76.6115C46.7373 76.3568 46.2627 76.3568 45.9122 76.6115L38.7037 81.8488C37.9199 82.4182 36.8655 81.6521 37.1648 80.7307L39.9182 72.2566C40.0521 71.8446 39.9055 71.3932 39.555 71.1385L32.3464 65.9012C31.5627 65.3318 31.9655 64.0922 32.9342 64.0922L41.8445 64.0922C42.2777 64.0922 42.6616 63.8132 42.7955 63.4012L45.5489 54.927Z" fill="#926B5A"/>
</g>
<path d="M39.78 33V18.8H41.18V31.76H49.38V33H39.78ZM55.4258 33.2C54.6791 33.2 53.9858 33.06 53.3458 32.78C52.7058 32.4867 52.1524 32.0933 51.6858 31.6C51.2191 31.0933 50.8524 30.5133 50.5858 29.86C50.3324 29.2067 50.2058 28.5067 50.2058 27.76C50.2058 26.7867 50.4258 25.8933 50.8658 25.08C51.3191 24.2667 51.9391 23.62 52.7258 23.14C53.5124 22.6467 54.4058 22.4 55.4058 22.4C56.4324 22.4 57.3258 22.6467 58.0858 23.14C58.8591 23.6333 59.4658 24.2867 59.9058 25.1C60.3458 25.9 60.5658 26.78 60.5658 27.74C60.5658 27.8467 60.5658 27.9533 60.5658 28.06C60.5658 28.1533 60.5591 28.2267 60.5458 28.28H51.6258C51.6924 29.0267 51.8991 29.6933 52.2458 30.28C52.6058 30.8533 53.0658 31.3133 53.6258 31.66C54.1991 31.9933 54.8191 32.16 55.4858 32.16C56.1658 32.16 56.8058 31.9867 57.4058 31.64C58.0191 31.2933 58.4458 30.84 58.6858 30.28L59.8658 30.6C59.6524 31.0933 59.3258 31.54 58.8858 31.94C58.4458 32.34 57.9258 32.6533 57.3258 32.88C56.7391 33.0933 56.1058 33.2 55.4258 33.2ZM51.5858 27.3H59.2858C59.2324 26.54 59.0258 25.8733 58.6658 25.3C58.3191 24.7267 57.8591 24.28 57.2858 23.96C56.7258 23.6267 56.1058 23.46 55.4258 23.46C54.7458 23.46 54.1258 23.6267 53.5658 23.96C53.0058 24.28 52.5458 24.7333 52.1858 25.32C51.8391 25.8933 51.6391 26.5533 51.5858 27.3ZM62.6641 33V22.58H64.0241V33H62.6641ZM62.6641 20.4V18.4H64.0241V20.4H62.6641ZM67.0795 18.4H68.4395V30.64C68.4395 31.16 68.5329 31.5 68.7195 31.66C68.9062 31.82 69.1329 31.9 69.3995 31.9C69.6395 31.9 69.8795 31.8733 70.1195 31.82C70.3595 31.7667 70.5662 31.7133 70.7395 31.66L70.9795 32.76C70.7262 32.8667 70.4129 32.9533 70.0395 33.02C69.6795 33.0867 69.3662 33.12 69.0995 33.12C68.4862 33.12 67.9929 32.94 67.6195 32.58C67.2595 32.22 67.0795 31.7267 67.0795 31.1V18.4ZM71.6287 30C71.6287 29.3467 71.8154 28.7867 72.1888 28.32C72.5621 27.84 73.0754 27.4733 73.7288 27.22C74.3954 26.9533 75.1621 26.82 76.0288 26.82C76.5354 26.82 77.0621 26.86 77.6088 26.94C78.1554 27.02 78.6421 27.14 79.0688 27.3V26.42C79.0688 25.54 78.8088 24.84 78.2888 24.32C77.7688 23.8 77.0488 23.54 76.1288 23.54C75.5688 23.54 75.0154 23.6467 74.4688 23.86C73.9354 24.06 73.3754 24.36 72.7888 24.76L72.2688 23.8C72.9488 23.3333 73.6154 22.9867 74.2688 22.76C74.9221 22.52 75.5888 22.4 76.2688 22.4C77.5488 22.4 78.5621 22.7667 79.3088 23.5C80.0554 24.2333 80.4288 25.2467 80.4288 26.54V31.36C80.4288 31.5467 80.4688 31.6867 80.5488 31.78C80.6288 31.86 80.7554 31.9067 80.9288 31.92V33C80.7821 33.0133 80.6554 33.0267 80.5488 33.04C80.4421 33.0533 80.3621 33.0533 80.3088 33.04C79.9754 33.0267 79.7221 32.92 79.5488 32.72C79.3754 32.52 79.2821 32.3067 79.2688 32.08L79.2488 31.32C78.7821 31.92 78.1754 32.3867 77.4288 32.72C76.6821 33.04 75.9221 33.2 75.1488 33.2C74.4821 33.2 73.8754 33.06 73.3288 32.78C72.7954 32.4867 72.3754 32.1 72.0688 31.62C71.7754 31.1267 71.6287 30.5867 71.6287 30ZM78.6088 30.8C78.7554 30.6133 78.8688 30.4333 78.9488 30.26C79.0288 30.0867 79.0688 29.9333 79.0688 29.8V28.28C78.6154 28.1067 78.1421 27.9733 77.6488 27.88C77.1688 27.7867 76.6821 27.74 76.1888 27.74C75.2154 27.74 74.4288 27.9333 73.8288 28.32C73.2288 28.7067 72.9288 29.2333 72.9288 29.9C72.9288 30.2867 73.0288 30.6533 73.2288 31C73.4288 31.3333 73.7221 31.6133 74.1088 31.84C74.4954 32.0533 74.9488 32.16 75.4688 32.16C76.1221 32.16 76.7288 32.0333 77.2888 31.78C77.8621 31.5267 78.3021 31.2 78.6088 30.8Z" fill="black"/>
<path d="M221.86 9.9L224.4 16.13L226.93 9.9H227.66L224.72 17H224.08L221.13 9.9H221.86ZM230.113 17.1C229.74 17.1 229.393 17.03 229.073 16.89C228.753 16.7433 228.477 16.5467 228.243 16.3C228.01 16.0467 227.827 15.7567 227.693 15.43C227.567 15.1033 227.503 14.7533 227.503 14.38C227.503 13.8933 227.613 13.4467 227.833 13.04C228.06 12.6333 228.37 12.31 228.763 12.07C229.157 11.8233 229.603 11.7 230.103 11.7C230.617 11.7 231.063 11.8233 231.443 12.07C231.83 12.3167 232.133 12.6433 232.353 13.05C232.573 13.45 232.683 13.89 232.683 14.37C232.683 14.4233 232.683 14.4767 232.683 14.53C232.683 14.5767 232.68 14.6133 232.673 14.64H228.213C228.247 15.0133 228.35 15.3467 228.523 15.64C228.703 15.9267 228.933 16.1567 229.213 16.33C229.5 16.4967 229.81 16.58 230.143 16.58C230.483 16.58 230.803 16.4933 231.103 16.32C231.41 16.1467 231.623 15.92 231.743 15.64L232.333 15.8C232.227 16.0467 232.063 16.27 231.843 16.47C231.623 16.67 231.363 16.8267 231.063 16.94C230.77 17.0467 230.453 17.1 230.113 17.1ZM228.193 14.15H232.043C232.017 13.77 231.913 13.4367 231.733 13.15C231.56 12.8633 231.33 12.64 231.043 12.48C230.763 12.3133 230.453 12.23 230.113 12.23C229.773 12.23 229.463 12.3133 229.183 12.48C228.903 12.64 228.673 12.8667 228.493 13.16C228.32 13.4467 228.22 13.7767 228.193 14.15ZM236.332 12.39C235.879 12.4033 235.479 12.53 235.132 12.77C234.792 13.01 234.552 13.34 234.412 13.76V17H233.732V11.79H234.372V13.04C234.552 12.6733 234.789 12.3767 235.082 12.15C235.382 11.9233 235.699 11.7967 236.032 11.77C236.099 11.7633 236.156 11.76 236.202 11.76C236.256 11.76 236.299 11.7633 236.332 11.77V12.39ZM237.238 17V11.79H237.918V17H237.238ZM237.238 10.7V9.7H237.918V10.7H237.238ZM239.666 12.33H238.946V11.79H239.666V11.65C239.666 11.4033 239.703 11.16 239.776 10.92C239.849 10.68 239.959 10.46 240.106 10.26C240.259 10.06 240.449 9.9 240.676 9.78C240.909 9.66 241.186 9.6 241.506 9.6C241.753 9.6 241.973 9.62667 242.166 9.68C242.366 9.73333 242.539 9.79667 242.686 9.87C242.833 9.94333 242.943 10.01 243.016 10.07L242.706 10.56C242.599 10.46 242.439 10.3767 242.226 10.31C242.019 10.2367 241.793 10.2 241.546 10.2C241.266 10.2 241.036 10.2733 240.856 10.42C240.683 10.56 240.553 10.74 240.466 10.96C240.386 11.18 240.346 11.4033 240.346 11.63V11.79H242.956V17H242.276V12.33H240.346V17H239.666V12.33ZM246.705 17.1C246.332 17.1 245.985 17.03 245.665 16.89C245.345 16.7433 245.068 16.5467 244.835 16.3C244.602 16.0467 244.418 15.7567 244.285 15.43C244.158 15.1033 244.095 14.7533 244.095 14.38C244.095 13.8933 244.205 13.4467 244.425 13.04C244.652 12.6333 244.962 12.31 245.355 12.07C245.748 11.8233 246.195 11.7 246.695 11.7C247.208 11.7 247.655 11.8233 248.035 12.07C248.422 12.3167 248.725 12.6433 248.945 13.05C249.165 13.45 249.275 13.89 249.275 14.37C249.275 14.4233 249.275 14.4767 249.275 14.53C249.275 14.5767 249.272 14.6133 249.265 14.64H244.805C244.838 15.0133 244.942 15.3467 245.115 15.64C245.295 15.9267 245.525 16.1567 245.805 16.33C246.092 16.4967 246.402 16.58 246.735 16.58C247.075 16.58 247.395 16.4933 247.695 16.32C248.002 16.1467 248.215 15.92 248.335 15.64L248.925 15.8C248.818 16.0467 248.655 16.27 248.435 16.47C248.215 16.67 247.955 16.8267 247.655 16.94C247.362 17.0467 247.045 17.1 246.705 17.1ZM244.785 14.15H248.635C248.608 13.77 248.505 13.4367 248.325 13.15C248.152 12.8633 247.922 12.64 247.635 12.48C247.355 12.3133 247.045 12.23 246.705 12.23C246.365 12.23 246.055 12.3133 245.775 12.48C245.495 12.64 245.265 12.8667 245.085 13.16C244.912 13.4467 244.812 13.7767 244.785 14.15ZM252.924 12.39C252.471 12.4033 252.071 12.53 251.724 12.77C251.384 13.01 251.144 13.34 251.004 13.76V17H250.324V11.79H250.964V13.04C251.144 12.6733 251.381 12.3767 251.674 12.15C251.974 11.9233 252.291 11.7967 252.624 11.77C252.691 11.7633 252.748 11.76 252.794 11.76C252.848 11.76 252.891 11.7633 252.924 11.77V12.39ZM253.391 15.5C253.391 15.1733 253.484 14.8933 253.671 14.66C253.857 14.42 254.114 14.2367 254.441 14.11C254.774 13.9767 255.157 13.91 255.591 13.91C255.844 13.91 256.107 13.93 256.381 13.97C256.654 14.01 256.897 14.07 257.111 14.15V13.71C257.111 13.27 256.981 12.92 256.721 12.66C256.461 12.4 256.101 12.27 255.641 12.27C255.361 12.27 255.084 12.3233 254.811 12.43C254.544 12.53 254.264 12.68 253.971 12.88L253.711 12.4C254.051 12.1667 254.384 11.9933 254.711 11.88C255.037 11.76 255.371 11.7 255.711 11.7C256.351 11.7 256.857 11.8833 257.231 12.25C257.604 12.6167 257.791 13.1233 257.791 13.77V16.18C257.791 16.2733 257.811 16.3433 257.851 16.39C257.891 16.43 257.954 16.4533 258.041 16.46V17C257.967 17.0067 257.904 17.0133 257.851 17.02C257.797 17.0267 257.757 17.0267 257.731 17.02C257.564 17.0133 257.437 16.96 257.351 16.86C257.264 16.76 257.217 16.6533 257.211 16.54L257.201 16.16C256.967 16.46 256.664 16.6933 256.291 16.86C255.917 17.02 255.537 17.1 255.151 17.1C254.817 17.1 254.514 17.03 254.241 16.89C253.974 16.7433 253.764 16.55 253.611 16.31C253.464 16.0633 253.391 15.7933 253.391 15.5ZM256.881 15.9C256.954 15.8067 257.011 15.7167 257.051 15.63C257.091 15.5433 257.111 15.4667 257.111 15.4V14.64C256.884 14.5533 256.647 14.4867 256.401 14.44C256.161 14.3933 255.917 14.37 255.671 14.37C255.184 14.37 254.791 14.4667 254.491 14.66C254.191 14.8533 254.041 15.1167 254.041 15.45C254.041 15.6433 254.091 15.8267 254.191 16C254.291 16.1667 254.437 16.3067 254.631 16.42C254.824 16.5267 255.051 16.58 255.311 16.58C255.637 16.58 255.941 16.5167 256.221 16.39C256.507 16.2633 256.727 16.1 256.881 15.9ZM258.91 14.41C258.91 13.9167 259.01 13.4667 259.21 13.06C259.416 12.6467 259.7 12.3167 260.06 12.07C260.42 11.8233 260.83 11.7 261.29 11.7C261.723 11.7 262.11 11.8167 262.45 12.05C262.796 12.2767 263.066 12.5533 263.26 12.88V9.7H263.94V16.18C263.94 16.2733 263.96 16.3433 264 16.39C264.04 16.43 264.1 16.4533 264.18 16.46V17C264.046 17.02 263.943 17.0267 263.87 17.02C263.73 17.0133 263.606 16.9567 263.5 16.85C263.393 16.7433 263.34 16.6267 263.34 16.5V15.99C263.133 16.33 262.853 16.6 262.5 16.8C262.146 17 261.78 17.1 261.4 17.1C261.04 17.1 260.706 17.0267 260.4 16.88C260.1 16.7333 259.836 16.5333 259.61 16.28C259.39 16.0267 259.216 15.74 259.09 15.42C258.97 15.0933 258.91 14.7567 258.91 14.41ZM263.26 15.21V13.6C263.173 13.36 263.033 13.1433 262.84 12.95C262.646 12.75 262.426 12.5933 262.18 12.48C261.94 12.36 261.7 12.3 261.46 12.3C261.18 12.3 260.926 12.36 260.7 12.48C260.473 12.5933 260.276 12.75 260.11 12.95C259.95 13.15 259.826 13.3767 259.74 13.63C259.653 13.8833 259.61 14.1433 259.61 14.41C259.61 14.69 259.656 14.9567 259.75 15.21C259.85 15.4633 259.99 15.69 260.17 15.89C260.35 16.0833 260.556 16.2333 260.79 16.34C261.023 16.4467 261.276 16.5 261.55 16.5C261.723 16.5 261.903 16.4667 262.09 16.4C262.276 16.3333 262.453 16.2433 262.62 16.13C262.793 16.01 262.936 15.87 263.05 15.71C263.163 15.55 263.233 15.3833 263.26 15.21ZM267.609 15.5C267.609 15.1733 267.703 14.8933 267.889 14.66C268.076 14.42 268.333 14.2367 268.659 14.11C268.993 13.9767 269.376 13.91 269.809 13.91C270.063 13.91 270.326 13.93 270.599 13.97C270.873 14.01 271.116 14.07 271.329 14.15V13.71C271.329 13.27 271.199 12.92 270.939 12.66C270.679 12.4 270.319 12.27 269.859 12.27C269.579 12.27 269.303 12.3233 269.029 12.43C268.763 12.53 268.483 12.68 268.189 12.88L267.929 12.4C268.269 12.1667 268.603 11.9933 268.929 11.88C269.256 11.76 269.589 11.7 269.929 11.7C270.569 11.7 271.076 11.8833 271.449 12.25C271.823 12.6167 272.009 13.1233 272.009 13.77V16.18C272.009 16.2733 272.029 16.3433 272.069 16.39C272.109 16.43 272.173 16.4533 272.259 16.46V17C272.186 17.0067 272.123 17.0133 272.069 17.02C272.016 17.0267 271.976 17.0267 271.949 17.02C271.783 17.0133 271.656 16.96 271.569 16.86C271.483 16.76 271.436 16.6533 271.429 16.54L271.419 16.16C271.186 16.46 270.883 16.6933 270.509 16.86C270.136 17.02 269.756 17.1 269.369 17.1C269.036 17.1 268.733 17.03 268.459 16.89C268.193 16.7433 267.983 16.55 267.829 16.31C267.683 16.0633 267.609 15.7933 267.609 15.5ZM271.099 15.9C271.173 15.8067 271.229 15.7167 271.269 15.63C271.309 15.5433 271.329 15.4667 271.329 15.4V14.64C271.103 14.5533 270.866 14.4867 270.619 14.44C270.379 14.3933 270.136 14.37 269.889 14.37C269.403 14.37 269.009 14.4667 268.709 14.66C268.409 14.8533 268.259 15.1167 268.259 15.45C268.259 15.6433 268.309 15.8267 268.409 16C268.509 16.1667 268.656 16.3067 268.849 16.42C269.043 16.5267 269.269 16.58 269.529 16.58C269.856 16.58 270.159 16.5167 270.439 16.39C270.726 16.2633 270.946 16.1 271.099 15.9ZM277.859 17H277.179V14.09C277.179 13.4767 277.089 13.03 276.909 12.75C276.729 12.4633 276.445 12.32 276.059 12.32C275.792 12.32 275.529 12.3867 275.269 12.52C275.009 12.6467 274.779 12.8233 274.579 13.05C274.385 13.27 274.245 13.5233 274.159 13.81V17H273.479V11.79H274.099V12.97C274.239 12.7167 274.422 12.4967 274.649 12.31C274.875 12.1167 275.132 11.9667 275.419 11.86C275.705 11.7533 276.002 11.7 276.309 11.7C276.595 11.7 276.839 11.7533 277.039 11.86C277.239 11.9667 277.399 12.12 277.519 12.32C277.639 12.5133 277.725 12.75 277.779 13.03C277.832 13.3033 277.859 13.61 277.859 13.95V17ZM280.751 17L278.641 11.79H279.351L281.131 16.32L282.921 11.79H283.591L281.481 17H280.751ZM283.986 15.5C283.986 15.1733 284.08 14.8933 284.266 14.66C284.453 14.42 284.71 14.2367 285.036 14.11C285.37 13.9767 285.753 13.91 286.186 13.91C286.44 13.91 286.703 13.93 286.976 13.97C287.25 14.01 287.493 14.07 287.706 14.15V13.71C287.706 13.27 287.576 12.92 287.316 12.66C287.056 12.4 286.696 12.27 286.236 12.27C285.956 12.27 285.68 12.3233 285.406 12.43C285.14 12.53 284.86 12.68 284.566 12.88L284.306 12.4C284.646 12.1667 284.98 11.9933 285.306 11.88C285.633 11.76 285.966 11.7 286.306 11.7C286.946 11.7 287.453 11.8833 287.826 12.25C288.2 12.6167 288.386 13.1233 288.386 13.77V16.18C288.386 16.2733 288.406 16.3433 288.446 16.39C288.486 16.43 288.55 16.4533 288.636 16.46V17C288.563 17.0067 288.5 17.0133 288.446 17.02C288.393 17.0267 288.353 17.0267 288.326 17.02C288.16 17.0133 288.033 16.96 287.946 16.86C287.86 16.76 287.813 16.6533 287.806 16.54L287.796 16.16C287.563 16.46 287.26 16.6933 286.886 16.86C286.513 17.02 286.133 17.1 285.746 17.1C285.413 17.1 285.11 17.03 284.836 16.89C284.57 16.7433 284.36 16.55 284.206 16.31C284.06 16.0633 283.986 15.7933 283.986 15.5ZM287.476 15.9C287.55 15.8067 287.606 15.7167 287.646 15.63C287.686 15.5433 287.706 15.4667 287.706 15.4V14.64C287.48 14.5533 287.243 14.4867 286.996 14.44C286.756 14.3933 286.513 14.37 286.266 14.37C285.78 14.37 285.386 14.4667 285.086 14.66C284.786 14.8533 284.636 15.1167 284.636 15.45C284.636 15.6433 284.686 15.8267 284.786 16C284.886 16.1667 285.033 16.3067 285.226 16.42C285.42 16.5267 285.646 16.58 285.906 16.58C286.233 16.58 286.536 16.5167 286.816 16.39C287.103 16.2633 287.323 16.1 287.476 15.9ZM285.256 10.66V9.72H285.836V10.66H285.256ZM286.746 10.66V9.72H287.326V10.66H286.746ZM294.235 17H293.555V14.09C293.555 13.4767 293.465 13.03 293.285 12.75C293.105 12.4633 292.822 12.32 292.435 12.32C292.169 12.32 291.905 12.3867 291.645 12.52C291.385 12.6467 291.155 12.8233 290.955 13.05C290.762 13.27 290.622 13.5233 290.535 13.81V17H289.855V11.79H290.475V12.97C290.615 12.7167 290.799 12.4967 291.025 12.31C291.252 12.1167 291.509 11.9667 291.795 11.86C292.082 11.7533 292.379 11.7 292.685 11.7C292.972 11.7 293.215 11.7533 293.415 11.86C293.615 11.9667 293.775 12.12 293.895 12.32C294.015 12.5133 294.102 12.75 294.155 13.03C294.209 13.3033 294.235 13.61 294.235 13.95V17ZM295.336 14.41C295.336 13.9167 295.436 13.4667 295.636 13.06C295.842 12.6467 296.126 12.3167 296.486 12.07C296.846 11.8233 297.256 11.7 297.716 11.7C298.149 11.7 298.536 11.8167 298.876 12.05C299.222 12.2767 299.492 12.5533 299.686 12.88V9.7H300.366V16.18C300.366 16.2733 300.386 16.3433 300.426 16.39C300.466 16.43 300.526 16.4533 300.606 16.46V17C300.472 17.02 300.369 17.0267 300.296 17.02C300.156 17.0133 300.032 16.9567 299.926 16.85C299.819 16.7433 299.766 16.6267 299.766 16.5V15.99C299.559 16.33 299.279 16.6 298.926 16.8C298.572 17 298.206 17.1 297.826 17.1C297.466 17.1 297.132 17.0267 296.826 16.88C296.526 16.7333 296.262 16.5333 296.036 16.28C295.816 16.0267 295.642 15.74 295.516 15.42C295.396 15.0933 295.336 14.7567 295.336 14.41ZM299.686 15.21V13.6C299.599 13.36 299.459 13.1433 299.266 12.95C299.072 12.75 298.852 12.5933 298.606 12.48C298.366 12.36 298.126 12.3 297.886 12.3C297.606 12.3 297.352 12.36 297.126 12.48C296.899 12.5933 296.702 12.75 296.536 12.95C296.376 13.15 296.252 13.3767 296.166 13.63C296.079 13.8833 296.036 14.1433 296.036 14.41C296.036 14.69 296.082 14.9567 296.176 15.21C296.276 15.4633 296.416 15.69 296.596 15.89C296.776 16.0833 296.982 16.2333 297.216 16.34C297.449 16.4467 297.702 16.5 297.976 16.5C298.149 16.5 298.329 16.4667 298.516 16.4C298.702 16.3333 298.879 16.2433 299.046 16.13C299.219 16.01 299.362 15.87 299.476 15.71C299.589 15.55 299.659 15.3833 299.686 15.21ZM301.486 15.5C301.486 15.1733 301.58 14.8933 301.766 14.66C301.953 14.42 302.21 14.2367 302.536 14.11C302.87 13.9767 303.253 13.91 303.686 13.91C303.94 13.91 304.203 13.93 304.476 13.97C304.75 14.01 304.993 14.07 305.206 14.15V13.71C305.206 13.27 305.076 12.92 304.816 12.66C304.556 12.4 304.196 12.27 303.736 12.27C303.456 12.27 303.18 12.3233 302.906 12.43C302.64 12.53 302.36 12.68 302.066 12.88L301.806 12.4C302.146 12.1667 302.48 11.9933 302.806 11.88C303.133 11.76 303.466 11.7 303.806 11.7C304.446 11.7 304.953 11.8833 305.326 12.25C305.7 12.6167 305.886 13.1233 305.886 13.77V16.18C305.886 16.2733 305.906 16.3433 305.946 16.39C305.986 16.43 306.05 16.4533 306.136 16.46V17C306.063 17.0067 306 17.0133 305.946 17.02C305.893 17.0267 305.853 17.0267 305.826 17.02C305.66 17.0133 305.533 16.96 305.446 16.86C305.36 16.76 305.313 16.6533 305.306 16.54L305.296 16.16C305.063 16.46 304.76 16.6933 304.386 16.86C304.013 17.02 303.633 17.1 303.246 17.1C302.913 17.1 302.61 17.03 302.336 16.89C302.07 16.7433 301.86 16.55 301.706 16.31C301.56 16.0633 301.486 15.7933 301.486 15.5ZM304.976 15.9C305.05 15.8067 305.106 15.7167 305.146 15.63C305.186 15.5433 305.206 15.4667 305.206 15.4V14.64C304.98 14.5533 304.743 14.4867 304.496 14.44C304.256 14.3933 304.013 14.37 303.766 14.37C303.28 14.37 302.886 14.4667 302.586 14.66C302.286 14.8533 302.136 15.1167 302.136 15.45C302.136 15.6433 302.186 15.8267 302.286 16C302.386 16.1667 302.533 16.3067 302.726 16.42C302.92 16.5267 303.146 16.58 303.406 16.58C303.733 16.58 304.036 16.5167 304.316 16.39C304.603 16.2633 304.823 16.1 304.976 15.9ZM309.955 12.39C309.502 12.4033 309.102 12.53 308.755 12.77C308.415 13.01 308.175 13.34 308.035 13.76V17H307.355V11.79H307.995V13.04C308.175 12.6733 308.412 12.3767 308.705 12.15C309.005 11.9233 309.322 11.7967 309.655 11.77C309.722 11.7633 309.779 11.76 309.825 11.76C309.879 11.76 309.922 11.7633 309.955 11.77V12.39ZM312.945 17.1C312.572 17.1 312.225 17.03 311.905 16.89C311.585 16.7433 311.309 16.5467 311.075 16.3C310.842 16.0467 310.659 15.7567 310.525 15.43C310.399 15.1033 310.335 14.7533 310.335 14.38C310.335 13.8933 310.445 13.4467 310.665 13.04C310.892 12.6333 311.202 12.31 311.595 12.07C311.989 11.8233 312.435 11.7 312.935 11.7C313.449 11.7 313.895 11.8233 314.275 12.07C314.662 12.3167 314.965 12.6433 315.185 13.05C315.405 13.45 315.515 13.89 315.515 14.37C315.515 14.4233 315.515 14.4767 315.515 14.53C315.515 14.5767 315.512 14.6133 315.505 14.64H311.045C311.079 15.0133 311.182 15.3467 311.355 15.64C311.535 15.9267 311.765 16.1567 312.045 16.33C312.332 16.4967 312.642 16.58 312.975 16.58C313.315 16.58 313.635 16.4933 313.935 16.32C314.242 16.1467 314.455 15.92 314.575 15.64L315.165 15.8C315.059 16.0467 314.895 16.27 314.675 16.47C314.455 16.67 314.195 16.8267 313.895 16.94C313.602 17.0467 313.285 17.1 312.945 17.1ZM311.025 14.15H314.875C314.849 13.77 314.745 13.4367 314.565 13.15C314.392 12.8633 314.162 12.64 313.875 12.48C313.595 12.3133 313.285 12.23 312.945 12.23C312.605 12.23 312.295 12.3133 312.015 12.48C311.735 12.64 311.505 12.8667 311.325 13.16C311.152 13.4467 311.052 13.7767 311.025 14.15Z" fill="#838282"/>
<circle cx="213" cy="13" r="4.5" stroke="#838282"/>
<line y1="-0.5" x2="3.39502" y2="-0.5" transform="matrix(0.697617 0.716471 -0.697617 0.716471 210.105 12.8652)" stroke="#838282"/>
<line y1="-0.5" x2="5.47803" y2="-0.5" transform="matrix(-0.672544 0.740058 -0.721907 -0.69199 216.158 11.2432)" stroke="#838282"/>
</g>
<path d="M39.944 97.64H40.888L45.608 109H44.424L42.952 105.448H37.848L36.392 109H35.192L39.944 97.64ZM42.696 104.568L40.408 98.952L38.088 104.568H42.696ZM38.76 95.88V94.376H39.688V95.88H38.76ZM41.144 95.88V94.376H42.072V95.88H41.144ZM47.0605 97.32H48.1485V107.112C48.1485 107.528 48.2232 107.8 48.3725 107.928C48.5218 108.056 48.7032 108.12 48.9165 108.12C49.1085 108.12 49.3005 108.099 49.4925 108.056C49.6845 108.013 49.8498 107.971 49.9885 107.928L50.1805 108.808C49.9778 108.893 49.7272 108.963 49.4285 109.016C49.1405 109.069 48.8898 109.096 48.6765 109.096C48.1858 109.096 47.7912 108.952 47.4925 108.664C47.2045 108.376 47.0605 107.981 47.0605 107.48V97.32ZM54.1079 109.16C53.4252 109.16 52.7905 109.048 52.2039 108.824C51.6172 108.6 51.1105 108.259 50.6839 107.8L51.1319 107.032C51.6012 107.469 52.0705 107.789 52.5399 107.992C53.0199 108.184 53.5265 108.28 54.0599 108.28C54.7105 108.28 55.2385 108.152 55.6439 107.896C56.0492 107.629 56.2519 107.251 56.2519 106.76C56.2519 106.429 56.1505 106.179 55.9479 106.008C55.7559 105.827 55.4732 105.683 55.0999 105.576C54.7372 105.459 54.2999 105.336 53.7879 105.208C53.2119 105.048 52.7265 104.883 52.3319 104.712C51.9479 104.531 51.6545 104.307 51.4519 104.04C51.2599 103.763 51.1639 103.405 51.1639 102.968C51.1639 102.424 51.2972 101.976 51.5639 101.624C51.8412 101.261 52.2145 100.989 52.6839 100.808C53.1639 100.616 53.6972 100.52 54.2839 100.52C54.9239 100.52 55.4892 100.621 55.9799 100.824C56.4705 101.027 56.8705 101.309 57.1799 101.672L56.6519 102.408C56.3532 102.067 55.9959 101.816 55.5799 101.656C55.1745 101.485 54.7212 101.4 54.2199 101.4C53.8785 101.4 53.5532 101.448 53.2439 101.544C52.9345 101.629 52.6785 101.779 52.4759 101.992C52.2839 102.195 52.1879 102.477 52.1879 102.84C52.1879 103.139 52.2625 103.373 52.4119 103.544C52.5612 103.704 52.7852 103.843 53.0839 103.96C53.3825 104.067 53.7505 104.184 54.1879 104.312C54.8172 104.483 55.3665 104.659 55.8359 104.84C56.3052 105.011 56.6679 105.235 56.9239 105.512C57.1799 105.789 57.3079 106.179 57.3079 106.68C57.3079 107.459 57.0145 108.067 56.4279 108.504C55.8412 108.941 55.0679 109.16 54.1079 109.16ZM65.0583 109L61.9703 104.728L60.1943 106.392V109H59.1063V97.32H60.1943V105.224L64.9143 100.68H66.1143L62.7063 104.088L66.2423 109H65.0583ZM66.8874 106.6C66.8874 106.077 67.0367 105.629 67.3354 105.256C67.634 104.872 68.0447 104.579 68.5674 104.376C69.1007 104.163 69.714 104.056 70.4074 104.056C70.8127 104.056 71.234 104.088 71.6714 104.152C72.1087 104.216 72.498 104.312 72.8394 104.44V103.736C72.8394 103.032 72.6314 102.472 72.2154 102.056C71.7994 101.64 71.2234 101.432 70.4874 101.432C70.0394 101.432 69.5967 101.517 69.1594 101.688C68.7327 101.848 68.2847 102.088 67.8154 102.408L67.3994 101.64C67.9434 101.267 68.4767 100.989 68.9994 100.808C69.522 100.616 70.0554 100.52 70.5994 100.52C71.6234 100.52 72.434 100.813 73.0314 101.4C73.6287 101.987 73.9274 102.797 73.9274 103.832V107.688C73.9274 107.837 73.9594 107.949 74.0234 108.024C74.0874 108.088 74.1887 108.125 74.3274 108.136V109C74.21 109.011 74.1087 109.021 74.0234 109.032C73.938 109.043 73.874 109.043 73.8314 109.032C73.5647 109.021 73.362 108.936 73.2234 108.776C73.0847 108.616 73.01 108.445 72.9994 108.264L72.9834 107.656C72.61 108.136 72.1247 108.509 71.5274 108.776C70.93 109.032 70.322 109.16 69.7034 109.16C69.17 109.16 68.6847 109.048 68.2474 108.824C67.8207 108.589 67.4847 108.28 67.2394 107.896C67.0047 107.501 66.8874 107.069 66.8874 106.6ZM72.4714 107.24C72.5887 107.091 72.6794 106.947 72.7434 106.808C72.8074 106.669 72.8394 106.547 72.8394 106.44V105.224C72.4767 105.085 72.098 104.979 71.7034 104.904C71.3194 104.829 70.93 104.792 70.5354 104.792C69.7567 104.792 69.1274 104.947 68.6474 105.256C68.1674 105.565 67.9274 105.987 67.9274 106.52C67.9274 106.829 68.0074 107.123 68.1674 107.4C68.3274 107.667 68.562 107.891 68.8714 108.072C69.1807 108.243 69.5434 108.328 69.9594 108.328C70.482 108.328 70.9674 108.227 71.4154 108.024C71.874 107.821 72.226 107.56 72.4714 107.24ZM80.4381 101.624C79.7128 101.645 79.0728 101.848 78.5181 102.232C77.9741 102.616 77.5901 103.144 77.3661 103.816V109H76.2781V100.664H77.3021V102.664C77.5901 102.077 77.9688 101.603 78.4381 101.24C78.9181 100.877 79.4248 100.675 79.9581 100.632C80.0648 100.621 80.1555 100.616 80.2301 100.616C80.3155 100.616 80.3848 100.621 80.4381 100.632V101.624ZM82.1595 105.352V97.528H83.2475V105.352H82.1595ZM82.1595 109V107.208H83.2475V109H82.1595ZM86.1908 105.352V97.528H87.2788V105.352H86.1908ZM86.1908 109V107.208H87.2788V109H86.1908ZM99.9801 109L96.8921 104.728L95.1161 106.392V109H94.0281V97.32H95.1161V105.224L99.8361 100.68H101.036L97.6281 104.088L101.164 109H99.9801ZM105.627 109.16C105.03 109.16 104.475 109.048 103.963 108.824C103.462 108.589 103.024 108.275 102.651 107.88C102.288 107.475 102.006 107.016 101.803 106.504C101.6 105.981 101.499 105.432 101.499 104.856C101.499 104.259 101.6 103.704 101.803 103.192C102.006 102.669 102.294 102.211 102.667 101.816C103.04 101.411 103.478 101.096 103.979 100.872C104.491 100.637 105.046 100.52 105.643 100.52C106.24 100.52 106.79 100.637 107.291 100.872C107.792 101.096 108.23 101.411 108.603 101.816C108.976 102.211 109.264 102.669 109.467 103.192C109.67 103.704 109.771 104.259 109.771 104.856C109.771 105.432 109.67 105.981 109.467 106.504C109.264 107.016 108.976 107.475 108.603 107.88C108.24 108.275 107.803 108.589 107.291 108.824C106.79 109.048 106.235 109.16 105.627 109.16ZM102.603 104.872C102.603 105.491 102.736 106.056 103.003 106.568C103.28 107.069 103.648 107.469 104.107 107.768C104.566 108.056 105.072 108.2 105.627 108.2C106.182 108.2 106.688 108.051 107.147 107.752C107.606 107.453 107.974 107.048 108.251 106.536C108.528 106.013 108.667 105.448 108.667 104.84C108.667 104.221 108.528 103.656 108.251 103.144C107.974 102.632 107.606 102.227 107.147 101.928C106.688 101.629 106.182 101.48 105.627 101.48C105.072 101.48 104.566 101.635 104.107 101.944C103.659 102.253 103.296 102.664 103.019 103.176C102.742 103.677 102.603 104.243 102.603 104.872ZM123.991 109H122.903V104.344C122.903 103.373 122.748 102.659 122.439 102.2C122.129 101.741 121.671 101.512 121.063 101.512C120.433 101.512 119.868 101.736 119.367 102.184C118.876 102.632 118.529 103.208 118.327 103.912V109H117.239V104.344C117.239 103.363 117.089 102.648 116.791 102.2C116.492 101.741 116.033 101.512 115.415 101.512C114.796 101.512 114.236 101.731 113.735 102.168C113.233 102.605 112.881 103.181 112.679 103.896V109H111.591V100.664H112.583V102.552C112.935 101.901 113.383 101.4 113.927 101.048C114.481 100.696 115.095 100.52 115.767 100.52C116.46 100.52 117.02 100.717 117.447 101.112C117.873 101.507 118.135 102.024 118.231 102.664C118.615 101.96 119.073 101.427 119.607 101.064C120.151 100.701 120.764 100.52 121.447 100.52C121.916 100.52 122.311 100.605 122.631 100.776C122.961 100.947 123.223 101.192 123.415 101.512C123.617 101.821 123.761 102.2 123.847 102.648C123.943 103.085 123.991 103.576 123.991 104.12V109ZM138.694 109H137.606V104.344C137.606 103.373 137.451 102.659 137.142 102.2C136.832 101.741 136.374 101.512 135.766 101.512C135.136 101.512 134.571 101.736 134.07 102.184C133.579 102.632 133.232 103.208 133.03 103.912V109H131.942V104.344C131.942 103.363 131.792 102.648 131.494 102.2C131.195 101.741 130.736 101.512 130.118 101.512C129.499 101.512 128.939 101.731 128.438 102.168C127.936 102.605 127.584 103.181 127.382 103.896V109H126.294V100.664H127.286V102.552C127.638 101.901 128.086 101.4 128.63 101.048C129.184 100.696 129.798 100.52 130.47 100.52C131.163 100.52 131.723 100.717 132.15 101.112C132.576 101.507 132.838 102.024 132.934 102.664C133.318 101.96 133.776 101.427 134.31 101.064C134.854 100.701 135.467 100.52 136.15 100.52C136.619 100.52 137.014 100.605 137.334 100.776C137.664 100.947 137.926 101.192 138.118 101.512C138.32 101.821 138.464 102.2 138.55 102.648C138.646 103.085 138.694 103.576 138.694 104.12V109ZM144.597 109.16C144 109.16 143.445 109.048 142.933 108.824C142.421 108.589 141.978 108.275 141.605 107.88C141.232 107.475 140.938 107.011 140.725 106.488C140.522 105.965 140.421 105.405 140.421 104.808C140.421 104.029 140.597 103.315 140.949 102.664C141.312 102.013 141.808 101.496 142.437 101.112C143.066 100.717 143.781 100.52 144.581 100.52C145.402 100.52 146.117 100.717 146.725 101.112C147.344 101.507 147.829 102.029 148.181 102.68C148.533 103.32 148.709 104.024 148.709 104.792C148.709 104.877 148.709 104.963 148.709 105.048C148.709 105.123 148.704 105.181 148.693 105.224H141.557C141.61 105.821 141.776 106.355 142.053 106.824C142.341 107.283 142.709 107.651 143.157 107.928C143.616 108.195 144.112 108.328 144.645 108.328C145.189 108.328 145.701 108.189 146.181 107.912C146.672 107.635 147.013 107.272 147.205 106.824L148.149 107.08C147.978 107.475 147.717 107.832 147.365 108.152C147.013 108.472 146.597 108.723 146.117 108.904C145.648 109.075 145.141 109.16 144.597 109.16ZM141.525 104.44H147.685C147.642 103.832 147.477 103.299 147.189 102.84C146.912 102.381 146.544 102.024 146.085 101.768C145.637 101.501 145.141 101.368 144.597 101.368C144.053 101.368 143.557 101.501 143.109 101.768C142.661 102.024 142.293 102.387 142.005 102.856C141.728 103.315 141.568 103.843 141.525 104.44ZM154.548 101.624C153.822 101.645 153.182 101.848 152.628 102.232C152.084 102.616 151.7 103.144 151.476 103.816V109H150.388V100.664H151.412V102.664C151.7 102.077 152.078 101.603 152.548 101.24C153.028 100.877 153.534 100.675 154.068 100.632C154.174 100.621 154.265 100.616 154.34 100.616C154.425 100.616 154.494 100.621 154.548 100.632V101.624ZM159.14 104.856C159.14 104.067 159.3 103.347 159.62 102.696C159.951 102.035 160.404 101.507 160.98 101.112C161.556 100.717 162.212 100.52 162.948 100.52C163.641 100.52 164.26 100.707 164.804 101.08C165.359 101.443 165.791 101.885 166.1 102.408V97.32H167.188V107.688C167.188 107.837 167.22 107.949 167.284 108.024C167.348 108.088 167.444 108.125 167.572 108.136V109C167.359 109.032 167.193 109.043 167.076 109.032C166.852 109.021 166.655 108.931 166.484 108.76C166.313 108.589 166.228 108.403 166.228 108.2V107.384C165.897 107.928 165.449 108.36 164.884 108.68C164.319 109 163.732 109.16 163.124 109.16C162.548 109.16 162.015 109.043 161.524 108.808C161.044 108.573 160.623 108.253 160.26 107.848C159.908 107.443 159.631 106.984 159.428 106.472C159.236 105.949 159.14 105.411 159.14 104.856ZM166.1 106.136V103.56C165.961 103.176 165.737 102.829 165.428 102.52C165.119 102.2 164.767 101.949 164.372 101.768C163.988 101.576 163.604 101.48 163.22 101.48C162.772 101.48 162.367 101.576 162.004 101.768C161.641 101.949 161.327 102.2 161.06 102.52C160.804 102.84 160.607 103.203 160.468 103.608C160.329 104.013 160.26 104.429 160.26 104.856C160.26 105.304 160.335 105.731 160.484 106.136C160.644 106.541 160.868 106.904 161.156 107.224C161.444 107.533 161.775 107.773 162.148 107.944C162.521 108.115 162.927 108.2 163.364 108.2C163.641 108.2 163.929 108.147 164.228 108.04C164.527 107.933 164.809 107.789 165.076 107.608C165.353 107.416 165.583 107.192 165.764 106.936C165.945 106.68 166.057 106.413 166.1 106.136ZM173.253 109.16C172.656 109.16 172.101 109.048 171.589 108.824C171.077 108.589 170.634 108.275 170.261 107.88C169.888 107.475 169.594 107.011 169.381 106.488C169.178 105.965 169.077 105.405 169.077 104.808C169.077 104.029 169.253 103.315 169.605 102.664C169.968 102.013 170.464 101.496 171.093 101.112C171.722 100.717 172.437 100.52 173.237 100.52C174.058 100.52 174.773 100.717 175.381 101.112C176 101.507 176.485 102.029 176.837 102.68C177.189 103.32 177.365 104.024 177.365 104.792C177.365 104.877 177.365 104.963 177.365 105.048C177.365 105.123 177.36 105.181 177.349 105.224H170.213C170.266 105.821 170.432 106.355 170.709 106.824C170.997 107.283 171.365 107.651 171.813 107.928C172.272 108.195 172.768 108.328 173.301 108.328C173.845 108.328 174.357 108.189 174.837 107.912C175.328 107.635 175.669 107.272 175.861 106.824L176.805 107.08C176.634 107.475 176.373 107.832 176.021 108.152C175.669 108.472 175.253 108.723 174.773 108.904C174.304 109.075 173.797 109.16 173.253 109.16ZM170.181 104.44H176.341C176.298 103.832 176.133 103.299 175.845 102.84C175.568 102.381 175.2 102.024 174.741 101.768C174.293 101.501 173.797 101.368 173.253 101.368C172.709 101.368 172.213 101.501 171.765 101.768C171.317 102.024 170.949 102.387 170.661 102.856C170.384 103.315 170.224 103.843 170.181 104.44ZM179.35 101.528H178.198V100.664H179.35V100.44C179.35 100.045 179.409 99.656 179.526 99.272C179.643 98.888 179.819 98.536 180.054 98.216C180.299 97.896 180.603 97.64 180.966 97.448C181.339 97.256 181.782 97.16 182.294 97.16C182.689 97.16 183.041 97.2027 183.35 97.288C183.67 97.3733 183.947 97.4747 184.182 97.592C184.417 97.7093 184.593 97.816 184.71 97.912L184.214 98.696C184.043 98.536 183.787 98.4027 183.446 98.296C183.115 98.1787 182.753 98.12 182.358 98.12C181.91 98.12 181.542 98.2373 181.254 98.472C180.977 98.696 180.769 98.984 180.63 99.336C180.502 99.688 180.438 100.045 180.438 100.408V100.664H184.614V109H183.526V101.528H180.438V109H179.35V101.528ZM194.021 109H192.933V104.344C192.933 103.363 192.789 102.648 192.501 102.2C192.213 101.741 191.759 101.512 191.141 101.512C190.714 101.512 190.293 101.619 189.877 101.832C189.461 102.035 189.093 102.317 188.773 102.68C188.463 103.032 188.239 103.437 188.101 103.896V109H187.013V100.664H188.005V102.552C188.229 102.147 188.522 101.795 188.885 101.496C189.247 101.187 189.658 100.947 190.117 100.776C190.575 100.605 191.05 100.52 191.541 100.52C191.999 100.52 192.389 100.605 192.709 100.776C193.029 100.947 193.285 101.192 193.477 101.512C193.669 101.821 193.807 102.2 193.892 102.648C193.978 103.085 194.021 103.576 194.021 104.12V109ZM196.341 109V100.664H197.429V109H196.341ZM196.341 98.92V97.32H197.429V98.92H196.341ZM203.825 108.6C203.74 108.632 203.606 108.691 203.425 108.776C203.244 108.861 203.025 108.936 202.769 109C202.513 109.064 202.236 109.096 201.937 109.096C201.628 109.096 201.334 109.037 201.057 108.92C200.79 108.803 200.577 108.627 200.417 108.392C200.257 108.147 200.177 107.848 200.177 107.496V101.528H199.025V100.664H200.177V97.848H201.265V100.664H203.185V101.528H201.265V107.192C201.286 107.491 201.393 107.715 201.585 107.864C201.788 108.013 202.017 108.088 202.273 108.088C202.572 108.088 202.844 108.04 203.089 107.944C203.334 107.837 203.484 107.763 203.537 107.72L203.825 108.6ZM205.184 109V100.664H206.272V109H205.184ZM205.184 98.92V97.32H206.272V98.92H205.184ZM211.149 109L207.773 100.664H208.909L211.757 107.912L214.621 100.664H215.693L212.317 109H211.149ZM221.2 108.6C221.115 108.632 220.981 108.691 220.8 108.776C220.619 108.861 220.4 108.936 220.144 109C219.888 109.064 219.611 109.096 219.312 109.096C219.003 109.096 218.709 109.037 218.432 108.92C218.165 108.803 217.952 108.627 217.792 108.392C217.632 108.147 217.552 107.848 217.552 107.496V101.528H216.4V100.664H217.552V97.848H218.64V100.664H220.56V101.528H218.64V107.192C218.661 107.491 218.768 107.715 218.96 107.864C219.163 108.013 219.392 108.088 219.648 108.088C219.947 108.088 220.219 108.04 220.464 107.944C220.709 107.837 220.859 107.763 220.912 107.72L221.2 108.6ZM233.646 109H232.558V104.344C232.558 103.405 232.392 102.701 232.062 102.232C231.731 101.752 231.256 101.512 230.638 101.512C230.232 101.512 229.827 101.619 229.422 101.832C229.027 102.035 228.675 102.317 228.366 102.68C228.067 103.032 227.854 103.437 227.726 103.896V109H226.638V97.32H227.726V102.552C228.056 101.933 228.515 101.443 229.102 101.08C229.699 100.707 230.334 100.52 231.006 100.52C231.486 100.52 231.891 100.605 232.222 100.776C232.563 100.947 232.835 101.197 233.038 101.528C233.251 101.848 233.406 102.227 233.502 102.664C233.598 103.091 233.646 103.576 233.646 104.12V109ZM235.294 106.6C235.294 106.077 235.443 105.629 235.742 105.256C236.04 104.872 236.451 104.579 236.974 104.376C237.507 104.163 238.12 104.056 238.814 104.056C239.219 104.056 239.64 104.088 240.078 104.152C240.515 104.216 240.904 104.312 241.246 104.44V103.736C241.246 103.032 241.038 102.472 240.622 102.056C240.206 101.64 239.63 101.432 238.894 101.432C238.446 101.432 238.003 101.517 237.566 101.688C237.139 101.848 236.691 102.088 236.222 102.408L235.806 101.64C236.35 101.267 236.883 100.989 237.406 100.808C237.928 100.616 238.462 100.52 239.006 100.52C240.03 100.52 240.84 100.813 241.438 101.4C242.035 101.987 242.334 102.797 242.334 103.832V107.688C242.334 107.837 242.366 107.949 242.43 108.024C242.494 108.088 242.595 108.125 242.734 108.136V109C242.616 109.011 242.515 109.021 242.43 109.032C242.344 109.043 242.28 109.043 242.238 109.032C241.971 109.021 241.768 108.936 241.63 108.776C241.491 108.616 241.416 108.445 241.406 108.264L241.39 107.656C241.016 108.136 240.531 108.509 239.934 108.776C239.336 109.032 238.728 109.16 238.11 109.16C237.576 109.16 237.091 109.048 236.654 108.824C236.227 108.589 235.891 108.28 235.646 107.896C235.411 107.501 235.294 107.069 235.294 106.6ZM240.878 107.24C240.995 107.091 241.086 106.947 241.15 106.808C241.214 106.669 241.246 106.547 241.246 106.44V105.224C240.883 105.085 240.504 104.979 240.11 104.904C239.726 104.829 239.336 104.792 238.942 104.792C238.163 104.792 237.534 104.947 237.054 105.256C236.574 105.565 236.334 105.987 236.334 106.52C236.334 106.829 236.414 107.123 236.574 107.4C236.734 107.667 236.968 107.891 237.278 108.072C237.587 108.243 237.95 108.328 238.366 108.328C238.888 108.328 239.374 108.227 239.822 108.024C240.28 107.821 240.632 107.56 240.878 107.24ZM251.692 109H250.604V104.344C250.604 103.363 250.46 102.648 250.172 102.2C249.884 101.741 249.431 101.512 248.812 101.512C248.386 101.512 247.964 101.619 247.548 101.832C247.132 102.035 246.764 102.317 246.444 102.68C246.135 103.032 245.911 103.437 245.772 103.896V109H244.684V100.664H245.676V102.552C245.9 102.147 246.194 101.795 246.556 101.496C246.919 101.187 247.33 100.947 247.788 100.776C248.247 100.605 248.722 100.52 249.212 100.52C249.671 100.52 250.06 100.605 250.38 100.776C250.7 100.947 250.956 101.192 251.148 101.512C251.34 101.821 251.479 102.2 251.564 102.648C251.65 103.085 251.692 103.576 251.692 104.12V109ZM253.453 104.856C253.453 104.067 253.613 103.347 253.933 102.696C254.263 102.035 254.717 101.507 255.293 101.112C255.869 100.717 256.525 100.52 257.261 100.52C257.954 100.52 258.573 100.707 259.117 101.08C259.671 101.443 260.103 101.885 260.413 102.408V97.32H261.501V107.688C261.501 107.837 261.533 107.949 261.597 108.024C261.661 108.088 261.757 108.125 261.885 108.136V109C261.671 109.032 261.506 109.043 261.389 109.032C261.165 109.021 260.967 108.931 260.797 108.76C260.626 108.589 260.541 108.403 260.541 108.2V107.384C260.21 107.928 259.762 108.36 259.197 108.68C258.631 109 258.045 109.16 257.437 109.16C256.861 109.16 256.327 109.043 255.837 108.808C255.357 108.573 254.935 108.253 254.573 107.848C254.221 107.443 253.943 106.984 253.741 106.472C253.549 105.949 253.453 105.411 253.453 104.856ZM260.413 106.136V103.56C260.274 103.176 260.05 102.829 259.741 102.52C259.431 102.2 259.079 101.949 258.685 101.768C258.301 101.576 257.917 101.48 257.533 101.48C257.085 101.48 256.679 101.576 256.317 101.768C255.954 101.949 255.639 102.2 255.373 102.52C255.117 102.84 254.919 103.203 254.781 103.608C254.642 104.013 254.573 104.429 254.573 104.856C254.573 105.304 254.647 105.731 254.797 106.136C254.957 106.541 255.181 106.904 255.469 107.224C255.757 107.533 256.087 107.773 256.461 107.944C256.834 108.115 257.239 108.2 257.677 108.2C257.954 108.2 258.242 108.147 258.541 108.04C258.839 107.933 259.122 107.789 259.389 107.608C259.666 107.416 259.895 107.192 260.077 106.936C260.258 106.68 260.37 106.413 260.413 106.136ZM264.014 97.32H265.102V107.112C265.102 107.528 265.176 107.8 265.326 107.928C265.475 108.056 265.656 108.12 265.87 108.12C266.062 108.12 266.254 108.099 266.446 108.056C266.638 108.013 266.803 107.971 266.942 107.928L267.134 108.808C266.931 108.893 266.68 108.963 266.382 109.016C266.094 109.069 265.843 109.096 265.63 109.096C265.139 109.096 264.744 108.952 264.446 108.664C264.158 108.376 264.014 107.981 264.014 107.48V97.32ZM267.653 106.6C267.653 106.077 267.802 105.629 268.101 105.256C268.4 104.872 268.81 104.579 269.333 104.376C269.866 104.163 270.48 104.056 271.173 104.056C271.578 104.056 272 104.088 272.437 104.152C272.874 104.216 273.264 104.312 273.605 104.44V103.736C273.605 103.032 273.397 102.472 272.981 102.056C272.565 101.64 271.989 101.432 271.253 101.432C270.805 101.432 270.362 101.517 269.925 101.688C269.498 101.848 269.05 102.088 268.581 102.408L268.165 101.64C268.709 101.267 269.242 100.989 269.765 100.808C270.288 100.616 270.821 100.52 271.365 100.52C272.389 100.52 273.2 100.813 273.797 101.4C274.394 101.987 274.693 102.797 274.693 103.832V107.688C274.693 107.837 274.725 107.949 274.789 108.024C274.853 108.088 274.954 108.125 275.093 108.136V109C274.976 109.011 274.874 109.021 274.789 109.032C274.704 109.043 274.64 109.043 274.597 109.032C274.33 109.021 274.128 108.936 273.989 108.776C273.85 108.616 273.776 108.445 273.765 108.264L273.749 107.656C273.376 108.136 272.89 108.509 272.293 108.776C271.696 109.032 271.088 109.16 270.469 109.16C269.936 109.16 269.45 109.048 269.013 108.824C268.586 108.589 268.25 108.28 268.005 107.896C267.77 107.501 267.653 107.069 267.653 106.6ZM273.237 107.24C273.354 107.091 273.445 106.947 273.509 106.808C273.573 106.669 273.605 106.547 273.605 106.44V105.224C273.242 105.085 272.864 104.979 272.469 104.904C272.085 104.829 271.696 104.792 271.301 104.792C270.522 104.792 269.893 104.947 269.413 105.256C268.933 105.565 268.693 105.987 268.693 106.52C268.693 106.829 268.773 107.123 268.933 107.4C269.093 107.667 269.328 107.891 269.637 108.072C269.946 108.243 270.309 108.328 270.725 108.328C271.248 108.328 271.733 108.227 272.181 108.024C272.64 107.821 272.992 107.56 273.237 107.24ZM43.208 128H42.12V123.344C42.12 122.405 41.9547 121.701 41.624 121.232C41.2933 120.752 40.8187 120.512 40.2 120.512C39.7947 120.512 39.3893 120.619 38.984 120.832C38.5893 121.035 38.2373 121.317 37.928 121.68C37.6293 122.032 37.416 122.437 37.288 122.896V128H36.2V116.32H37.288V121.552C37.6187 120.933 38.0773 120.443 38.664 120.08C39.2613 119.707 39.896 119.52 40.568 119.52C41.048 119.52 41.4533 119.605 41.784 119.776C42.1253 119.947 42.3973 120.197 42.6 120.528C42.8133 120.848 42.968 121.227 43.064 121.664C43.16 122.091 43.208 122.576 43.208 123.12V128ZM44.8561 125.6C44.8561 125.077 45.0055 124.629 45.3041 124.256C45.6028 123.872 46.0135 123.579 46.5361 123.376C47.0695 123.163 47.6828 123.056 48.3761 123.056C48.7815 123.056 49.2028 123.088 49.6401 123.152C50.0775 123.216 50.4668 123.312 50.8081 123.44V122.736C50.8081 122.032 50.6001 121.472 50.1841 121.056C49.7681 120.64 49.1921 120.432 48.4561 120.432C48.0081 120.432 47.5655 120.517 47.1281 120.688C46.7015 120.848 46.2535 121.088 45.7841 121.408L45.3681 120.64C45.9121 120.267 46.4455 119.989 46.9681 119.808C47.4908 119.616 48.0241 119.52 48.5681 119.52C49.5921 119.52 50.4028 119.813 51.0001 120.4C51.5975 120.987 51.8961 121.797 51.8961 122.832V126.688C51.8961 126.837 51.9281 126.949 51.9921 127.024C52.0561 127.088 52.1575 127.125 52.2961 127.136V128C52.1788 128.011 52.0775 128.021 51.9921 128.032C51.9068 128.043 51.8428 128.043 51.8001 128.032C51.5335 128.021 51.3308 127.936 51.1921 127.776C51.0535 127.616 50.9788 127.445 50.9681 127.264L50.9521 126.656C50.5788 127.136 50.0935 127.509 49.4961 127.776C48.8988 128.032 48.2908 128.16 47.6721 128.16C47.1388 128.16 46.6535 128.048 46.2161 127.824C45.7895 127.589 45.4535 127.28 45.2081 126.896C44.9735 126.501 44.8561 126.069 44.8561 125.6ZM50.4401 126.24C50.5575 126.091 50.6481 125.947 50.7121 125.808C50.7761 125.669 50.8081 125.547 50.8081 125.44V124.224C50.4455 124.085 50.0668 123.979 49.6721 123.904C49.2881 123.829 48.8988 123.792 48.5041 123.792C47.7255 123.792 47.0961 123.947 46.6161 124.256C46.1361 124.565 45.8961 124.987 45.8961 125.52C45.8961 125.829 45.9761 126.123 46.1361 126.4C46.2961 126.667 46.5308 126.891 46.8401 127.072C47.1495 127.243 47.5121 127.328 47.9281 127.328C48.4508 127.328 48.9361 127.227 49.3841 127.024C49.8428 126.821 50.1948 126.56 50.4401 126.24ZM46.8881 117.856V116.352H47.8161V117.856H46.8881ZM49.2721 117.856V116.352H50.2001V117.856H49.2721ZM58.4069 120.624C57.6815 120.645 57.0415 120.848 56.4869 121.232C55.9429 121.616 55.5589 122.144 55.3349 122.816V128H54.2469V119.664H55.2709V121.664C55.5589 121.077 55.9375 120.603 56.4069 120.24C56.8869 119.877 57.3935 119.675 57.9269 119.632C58.0335 119.621 58.1242 119.616 58.1989 119.616C58.2842 119.616 58.3535 119.621 58.4069 119.632V120.624ZM63.5594 128V119.664H64.6474V128H63.5594ZM63.5594 117.92V116.32H64.6474V117.92H63.5594ZM70.3878 128.112C69.8224 128.112 69.2998 127.995 68.8198 127.76C68.3398 127.525 67.9238 127.211 67.5718 126.816C67.2304 126.411 66.9638 125.952 66.7718 125.44C66.5798 124.928 66.4838 124.4 66.4838 123.856C66.4838 123.269 66.5744 122.72 66.7558 122.208C66.9478 121.685 67.2144 121.221 67.5558 120.816C67.9078 120.411 68.3184 120.096 68.7878 119.872C69.2571 119.637 69.7798 119.52 70.3558 119.52C71.0704 119.52 71.6891 119.701 72.2118 120.064C72.7451 120.427 73.1931 120.875 73.5558 121.408V119.664H74.5318V128.032C74.5318 128.8 74.3451 129.445 73.9718 129.968C73.6091 130.501 73.1131 130.901 72.4838 131.168C71.8651 131.435 71.1878 131.568 70.4518 131.568C69.5024 131.568 68.7344 131.397 68.1478 131.056C67.5611 130.715 67.0811 130.256 66.7078 129.68L67.3798 129.152C67.7104 129.675 68.1478 130.064 68.6918 130.32C69.2464 130.576 69.8331 130.704 70.4518 130.704C70.9958 130.704 71.4918 130.603 71.9398 130.4C72.3984 130.208 72.7611 129.915 73.0278 129.52C73.3051 129.125 73.4438 128.629 73.4438 128.032V126.384C73.1238 126.907 72.6864 127.328 72.1318 127.648C71.5771 127.957 70.9958 128.112 70.3878 128.112ZM70.6918 127.2C71.0224 127.2 71.3371 127.141 71.6358 127.024C71.9451 126.907 72.2278 126.752 72.4838 126.56C72.7398 126.357 72.9531 126.133 73.1238 125.888C73.2944 125.643 73.4011 125.392 73.4438 125.136V122.56C73.2838 122.155 73.0544 121.797 72.7558 121.488C72.4571 121.168 72.1158 120.923 71.7318 120.752C71.3584 120.571 70.9691 120.48 70.5638 120.48C70.0944 120.48 69.6731 120.581 69.2998 120.784C68.9371 120.976 68.6278 121.237 68.3718 121.568C68.1264 121.888 67.9344 122.251 67.7958 122.656C67.6571 123.061 67.5878 123.467 67.5878 123.872C67.5878 124.32 67.6678 124.747 67.8278 125.152C67.9878 125.547 68.2064 125.904 68.4838 126.224C68.7718 126.533 69.1024 126.773 69.4758 126.944C69.8598 127.115 70.2651 127.2 70.6918 127.2ZM80.5344 128.16C79.937 128.16 79.3824 128.048 78.8704 127.824C78.3584 127.589 77.9157 127.275 77.5424 126.88C77.169 126.475 76.8757 126.011 76.6624 125.488C76.4597 124.965 76.3584 124.405 76.3584 123.808C76.3584 123.029 76.5344 122.315 76.8864 121.664C77.249 121.013 77.745 120.496 78.3744 120.112C79.0037 119.717 79.7184 119.52 80.5184 119.52C81.3397 119.52 82.0544 119.717 82.6624 120.112C83.281 120.507 83.7664 121.029 84.1184 121.68C84.4704 122.32 84.6464 123.024 84.6464 123.792C84.6464 123.877 84.6464 123.963 84.6464 124.048C84.6464 124.123 84.641 124.181 84.6304 124.224H77.4944C77.5477 124.821 77.713 125.355 77.9904 125.824C78.2784 126.283 78.6464 126.651 79.0944 126.928C79.553 127.195 80.049 127.328 80.5824 127.328C81.1264 127.328 81.6384 127.189 82.1184 126.912C82.609 126.635 82.9504 126.272 83.1424 125.824L84.0864 126.08C83.9157 126.475 83.6544 126.832 83.3024 127.152C82.9504 127.472 82.5344 127.723 82.0544 127.904C81.585 128.075 81.0784 128.16 80.5344 128.16ZM77.4624 123.44H83.6224C83.5797 122.832 83.4144 122.299 83.1264 121.84C82.849 121.381 82.481 121.024 82.0224 120.768C81.5744 120.501 81.0784 120.368 80.5344 120.368C79.9904 120.368 79.4944 120.501 79.0464 120.768C78.5984 121.024 78.2304 121.387 77.9424 121.856C77.665 122.315 77.505 122.843 77.4624 123.44ZM93.333 128H92.245V123.344C92.245 122.363 92.101 121.648 91.813 121.2C91.525 120.741 91.0717 120.512 90.453 120.512C90.0263 120.512 89.605 120.619 89.189 120.832C88.773 121.035 88.405 121.317 88.085 121.68C87.7757 122.032 87.5517 122.437 87.413 122.896V128H86.325V119.664H87.317V121.552C87.541 121.147 87.8343 120.795 88.197 120.496C88.5597 120.187 88.9703 119.947 89.429 119.776C89.8877 119.605 90.3623 119.52 90.853 119.52C91.3117 119.52 91.701 119.605 92.021 119.776C92.341 119.947 92.597 120.192 92.789 120.512C92.981 120.821 93.1197 121.2 93.205 121.648C93.2903 122.085 93.333 122.576 93.333 123.12V128ZM95.9251 124.352V116.528H97.0131V124.352H95.9251ZM95.9251 128V126.208H97.0131V128H95.9251Z" fill="black"/>
<defs>
<filter id="filter0_d_60_425" x="0" y="0" width="330" height="179" filterUnits="userSpaceOnUse" color-interpolation-filters="sRGB">
<feFlood flood-opacity="0" result="BackgroundImageFix"/>
<feColorMatrix in="SourceAlpha" type="matrix" values="0 0 0 0 0 0 0 0 0 0 0 0 0 0 0 0 0 0 127 0" result="hardAlpha"/>
<feOffset dy="4"/>
<feGaussianBlur stdDeviation="2"/>
<feComposite in2="hardAlpha" operator="out"/>
<feColorMatrix type="matrix" values="0 0 0 0 0 0 0 0 0 0 0 0 0 0 0 0 0 0 0.25 0"/>
<feBlend mode="normal" in2="BackgroundImageFix" result="effect1_dropShadow_60_425"/>
<feBlend mode="normal" in="SourceGraphic" in2="effect1_dropShadow_60_425" result="shape"/>
</filter>
<filter id="filter1_d_60_425" x="76.9321" y="54.2363" width="37.1357" height="35.8076" filterUnits="userSpaceOnUse" color-interpolation-filters="sRGB">
<feFlood flood-opacity="0" result="BackgroundImageFix"/>
<feColorMatrix in="SourceAlpha" type="matrix" values="0 0 0 0 0 0 0 0 0 0 0 0 0 0 0 0 0 0 127 0" result="hardAlpha"/>
<feOffset dy="4"/>
<feGaussianBlur stdDeviation="2"/>
<feComposite in2="hardAlpha" operator="out"/>
<feColorMatrix type="matrix" values="0 0 0 0 0 0 0 0 0 0 0 0 0 0 0 0 0 0 0.25 0"/>
<feBlend mode="normal" in2="BackgroundImageFix" result="effect1_dropShadow_60_425"/>
<feBlend mode="normal" in="SourceGraphic" in2="effect1_dropShadow_60_425" result="shape"/>
</filter>
<filter id="filter2_d_60_425" x="125.932" y="54.2363" width="37.1357" height="35.8076" filterUnits="userSpaceOnUse" color-interpolation-filters="sRGB">
<feFlood flood-opacity="0" result="BackgroundImageFix"/>
<feColorMatrix in="SourceAlpha" type="matrix" values="0 0 0 0 0 0 0 0 0 0 0 0 0 0 0 0 0 0 127 0" result="hardAlpha"/>
<feOffset dy="4"/>
<feGaussianBlur stdDeviation="2"/>
<feComposite in2="hardAlpha" operator="out"/>
<feColorMatrix type="matrix" values="0 0 0 0 0 0 0 0 0 0 0 0 0 0 0 0 0 0 0.25 0"/>
<feBlend mode="normal" in2="BackgroundImageFix" result="effect1_dropShadow_60_425"/>
<feBlend mode="normal" in="SourceGraphic" in2="effect1_dropShadow_60_425" result="shape"/>
</filter>
<filter id="filter3_d_60_425" x="171.932" y="54.2363" width="37.1357" height="35.8076" filterUnits="userSpaceOnUse" color-interpolation-filters="sRGB">
<feFlood flood-opacity="0" result="BackgroundImageFix"/>
<feColorMatrix in="SourceAlpha" type="matrix" values="0 0 0 0 0 0 0 0 0 0 0 0 0 0 0 0 0 0 127 0" result="hardAlpha"/>
<feOffset dy="4"/>
<feGaussianBlur stdDeviation="2"/>
<feComposite in2="hardAlpha" operator="out"/>
<feColorMatrix type="matrix" values="0 0 0 0 0 0 0 0 0 0 0 0 0 0 0 0 0 0 0.25 0"/>
<feBlend mode="normal" in2="BackgroundImageFix" result="effect1_dropShadow_60_425"/>
<feBlend mode="normal" in="SourceGraphic" in2="effect1_dropShadow_60_425" result="shape"/>
</filter>
<filter id="filter4_d_60_425" x="217.932" y="54.2363" width="37.1357" height="35.8076" filterUnits="userSpaceOnUse" color-interpolation-filters="sRGB">
<feFlood flood-opacity="0" result="BackgroundImageFix"/>
<feColorMatrix in="SourceAlpha" type="matrix" values="0 0 0 0 0 0 0 0 0 0 0 0 0 0 0 0 0 0 127 0" result="hardAlpha"/>
<feOffset dy="4"/>
<feGaussianBlur stdDeviation="2"/>
<feComposite in2="hardAlpha" operator="out"/>
<feColorMatrix type="matrix" values="0 0 0 0 0 0 0 0 0 0 0 0 0 0 0 0 0 0 0.25 0"/>
<feBlend mode="normal" in2="BackgroundImageFix" result="effect1_dropShadow_60_425"/>
<feBlend mode="normal" in="SourceGraphic" in2="effect1_dropShadow_60_425" result="shape"/>
</filter>
<filter id="filter5_d_60_425" x="27.9321" y="54.2363" width="37.1357" height="35.8076" filterUnits="userSpaceOnUse" color-interpolation-filters="sRGB">
<feFlood flood-opacity="0" result="BackgroundImageFix"/>
<feColorMatrix in="SourceAlpha" type="matrix" values="0 0 0 0 0 0 0 0 0 0 0 0 0 0 0 0 0 0 127 0" result="hardAlpha"/>
<feOffset dy="4"/>
<feGaussianBlur stdDeviation="2"/>
<feComposite in2="hardAlpha" operator="out"/>
<feColorMatrix type="matrix" values="0 0 0 0 0 0 0 0 0 0 0 0 0 0 0 0 0 0 0.25 0"/>
<feBlend mode="normal" in2="BackgroundImageFix" result="effect1_dropShadow_60_425"/>
<feBlend mode="normal" in="SourceGraphic" in2="effect1_dropShadow_60_425" result="shape"/>
</filter>
</defs>
</svg>
